{"glyphs":{"0":{"ha":850,"x_min":0,"x_max":0,"o":"m 425 -17 b 263 26 364 -17 310 -3 b 152 139 216 54 179 92 b 91 292 125 186 104 237 b 71 463 78 346 71 403 b 91 633 71 522 78 579 b 152 785 104 688 125 739 b 263 898 179 832 216 870 b 425 940 310 926 364 940 b 586 898 485 940 539 926 b 698 785 633 870 671 832 b 759 633 725 739 746 688 b 779 463 772 579 779 522 b 759 292 779 403 772 346 b 698 139 746 237 725 186 b 586 26 671 92 633 54 b 425 -17 539 -3 485 -17 m 425 86 b 564 144 481 86 527 105 b 640 282 601 182 626 228 b 661 463 654 336 661 396 b 640 643 661 529 654 589 b 564 781 626 697 601 743 b 425 838 527 819 481 838 b 286 781 369 838 323 819 b 210 643 249 743 224 697 b 189 463 196 589 189 529 b 210 282 189 396 196 336 b 286 144 224 228 249 182 b 425 86 323 105 369 86 "},"1":{"ha":471,"x_min":0,"x_max":0,"o":"m 247 0 l 247 775 l 99 617 l 29 688 l 261 926 l 363 926 l 363 0 "},"2":{"ha":817,"x_min":0,"x_max":0,"o":"m 75 0 l 75 93 b 475 436 265 241 398 356 b 590 668 552 517 590 594 b 533 794 590 724 571 766 b 396 838 494 823 449 838 b 144 721 289 838 206 799 l 74 794 b 212 902 109 841 155 877 b 396 940 269 928 330 940 b 615 869 480 940 553 917 b 707 668 676 822 707 755 b 596 410 707 582 670 496 b 257 103 522 325 409 222 l 711 103 l 711 0 "},"3":{"ha":774,"x_min":0,"x_max":0,"o":"m 369 -17 b 172 26 295 -17 230 -2 b 40 136 115 55 71 92 l 108 208 b 218 119 136 171 173 142 b 367 86 263 97 313 86 b 525 133 433 86 486 102 b 583 260 564 165 583 207 b 522 383 583 315 563 356 b 353 424 480 410 424 424 b 257 422 298 424 266 423 l 257 528 b 353 526 267 527 299 526 b 508 565 416 526 467 539 b 568 679 548 590 568 628 b 509 795 568 728 548 767 b 361 838 470 823 420 838 b 117 725 268 838 186 800 l 53 797 b 371 940 131 893 237 940 b 596 874 463 940 538 918 b 683 694 654 830 683 770 b 622 547 683 633 663 584 b 485 479 581 510 536 488 b 630 411 536 474 584 451 b 699 250 676 371 699 318 b 609 58 699 171 669 107 b 369 -17 549 8 469 -17 "},"4":{"ha":775,"x_min":0,"x_max":0,"o":"m 485 0 l 485 235 l 44 235 l 44 331 l 442 926 l 600 926 l 600 336 l 731 336 l 731 235 l 600 235 l 600 0 m 485 819 l 160 336 l 485 336 "},"5":{"ha":819,"x_min":0,"x_max":0,"o":"m 418 -17 b 92 132 275 -17 167 33 l 163 210 b 418 86 226 127 312 86 b 572 143 481 86 532 105 b 632 285 612 181 632 228 b 573 430 632 345 612 393 b 419 485 534 466 482 485 b 206 399 337 485 266 456 l 121 428 l 121 926 l 688 926 l 688 824 l 236 824 l 236 501 b 453 585 294 557 366 585 b 663 506 535 585 605 558 b 749 289 720 453 749 381 b 655 67 749 197 717 123 b 418 -17 592 11 513 -17 "},"6":{"ha":821,"x_min":0,"x_max":0,"o":"m 429 -17 b 264 22 366 -17 311 -4 b 152 129 217 48 179 84 b 91 281 125 175 104 225 b 71 463 78 336 71 397 b 167 803 71 598 103 711 b 449 940 232 894 325 940 b 704 829 556 940 641 903 l 646 743 b 449 838 592 806 526 838 b 255 731 364 838 300 802 b 188 474 210 659 188 574 l 188 438 b 295 538 211 475 247 508 b 450 582 344 567 395 582 b 667 505 538 582 610 556 b 753 286 724 453 753 381 b 664 72 753 203 723 131 b 429 -17 605 13 526 -17 m 424 86 b 580 147 490 86 542 106 b 636 282 617 188 636 233 b 576 431 636 347 616 396 b 424 482 537 465 486 482 b 293 444 378 482 335 469 b 192 344 251 418 218 385 b 257 164 197 276 219 216 b 424 86 295 112 350 86 "},"7":{"ha":715,"x_min":0,"x_max":0,"o":"m 168 0 l 542 824 l 43 824 l 43 926 l 675 926 l 675 847 l 296 0 "},"8":{"ha":808,"x_min":0,"x_max":0,"o":"m 404 -17 b 167 51 310 -17 231 6 b 72 235 104 97 72 158 b 135 386 72 293 93 344 b 293 478 178 429 230 459 b 146 559 234 494 185 522 b 88 700 107 597 88 644 b 182 878 88 778 119 837 b 404 940 245 920 319 940 b 627 878 489 940 564 920 b 722 700 691 837 722 778 b 663 559 722 644 703 597 b 515 478 624 522 575 494 b 673 386 578 459 631 429 b 736 235 715 344 736 293 b 641 52 736 159 704 98 b 404 -17 578 6 499 -17 m 404 525 b 460 539 423 528 441 532 b 525 566 479 545 501 554 b 583 615 549 578 569 594 b 606 685 598 635 606 659 b 548 796 606 731 586 768 b 404 838 509 824 462 838 b 261 797 347 838 299 824 b 204 685 223 769 204 732 b 226 615 204 659 212 635 b 285 566 241 594 261 578 b 349 539 309 554 330 545 b 404 525 367 532 386 528 m 404 86 b 556 131 463 86 514 101 b 619 247 598 160 619 199 b 576 345 619 284 605 317 b 487 405 547 373 517 393 b 404 426 457 416 429 424 b 322 405 379 424 352 416 b 233 345 291 393 262 373 b 189 247 203 317 189 284 b 251 131 189 199 210 160 b 404 86 293 101 344 86 "},"9":{"ha":821,"x_min":0,"x_max":0,"o":"m 374 -15 b 117 96 268 -15 182 22 l 175 182 b 374 88 229 119 295 88 b 524 143 433 88 483 106 b 610 278 564 180 593 225 b 635 451 626 331 635 388 b 633 488 635 467 634 479 b 526 388 610 450 575 417 b 372 343 478 358 427 343 b 154 420 284 343 212 369 b 68 639 97 472 68 544 b 157 853 68 722 98 794 b 393 942 216 912 295 942 b 557 903 455 942 510 929 b 669 796 604 877 642 841 b 731 644 697 750 718 700 b 751 463 745 589 751 528 b 713 227 751 375 738 297 b 586 53 687 157 644 99 b 374 -15 528 8 457 -15 m 399 443 b 530 481 444 443 488 456 b 631 582 572 507 606 540 b 612 671 628 613 622 642 b 571 753 602 700 588 727 b 499 815 553 779 529 800 b 397 839 469 831 435 839 b 242 778 331 839 280 819 b 185 643 204 738 185 693 b 244 494 185 578 205 529 b 399 443 284 460 336 443 "}," ":{"ha":360,"x_min":0,"x_max":0,"o":""},"!":{"ha":319,"x_min":0,"x_max":0,"o":"m 117 260 l 94 926 l 225 926 l 203 260 m 160 -14 b 106 9 139 -14 122 -6 b 83 63 91 24 83 42 b 106 117 83 84 91 102 b 160 139 120 131 138 139 b 214 117 181 139 199 131 b 236 63 229 102 236 84 b 213 9 236 42 228 24 b 160 -14 198 -6 180 -14 "},"\"":{"ha":478,"x_min":0,"x_max":0,"o":"m 113 572 b 75 876 88 762 75 863 b 93 922 75 894 81 909 b 138 940 105 934 120 940 b 183 922 155 940 170 934 b 201 876 195 909 201 894 l 164 572 m 314 572 b 276 876 289 762 276 863 b 295 922 276 894 283 909 b 340 940 308 934 323 940 b 385 922 358 940 373 934 b 403 876 397 909 403 894 l 365 572 "},"#":{"ha":821,"x_min":0,"x_max":0,"o":"m 332 0 l 417 251 l 263 251 l 179 0 l 93 0 l 178 251 l 31 251 l 54 325 l 203 325 l 294 601 l 144 601 l 167 674 l 319 674 l 403 926 l 489 926 l 406 674 l 558 674 l 642 926 l 726 926 l 642 674 l 790 674 l 769 601 l 618 601 l 525 325 l 679 325 l 657 251 l 500 251 l 417 0 m 533 601 l 381 601 l 288 325 l 440 325 "},"$":{"ha":824,"x_min":0,"x_max":0,"o":"m 376 -15 b 60 131 244 -7 138 42 l 129 219 b 376 89 193 144 275 100 l 376 426 b 269 460 332 438 296 450 b 182 504 243 470 213 485 b 112 578 150 524 127 548 b 89 683 97 607 89 643 b 169 860 89 754 116 813 b 376 940 223 907 292 934 l 376 1067 l 461 1067 l 461 939 b 736 811 571 930 663 887 l 667 726 b 461 833 613 786 544 821 l 461 531 b 548 503 496 520 525 511 b 626 469 571 496 597 484 b 695 419 655 453 678 437 b 739 351 712 402 727 379 b 757 256 751 322 757 291 b 684 73 757 185 733 124 b 461 -15 635 22 561 -8 l 461 -139 l 376 -139 m 638 247 b 592 344 638 289 622 321 b 461 404 561 368 518 388 l 461 88 b 595 143 522 94 567 113 b 638 247 623 174 638 208 m 208 690 b 251 607 208 655 223 627 b 376 553 280 587 322 569 l 376 836 b 255 790 326 832 286 817 b 208 690 224 763 208 730 "},"%":{"ha":1017,"x_min":0,"x_max":0,"o":"m 267 483 b 106 548 201 483 147 505 b 43 710 64 591 43 645 b 106 875 43 776 64 831 b 267 940 147 919 201 940 b 428 875 332 940 386 919 b 490 710 469 831 490 776 b 428 548 490 645 469 591 b 267 483 386 505 332 483 m 178 0 l 769 926 l 847 926 l 254 0 m 750 -17 b 589 49 684 -17 631 5 b 526 211 547 92 526 146 b 589 375 526 277 547 331 b 750 440 631 419 684 440 b 910 375 815 440 868 419 b 972 211 951 331 972 277 b 910 48 972 145 952 91 b 750 -17 869 5 816 -17 m 267 554 b 367 599 307 554 341 569 b 407 710 394 628 407 665 b 368 824 407 756 394 794 b 267 869 342 854 308 869 b 166 824 226 869 192 854 b 126 710 140 794 126 756 b 166 599 126 665 140 628 b 267 554 192 569 226 554 m 750 54 b 851 99 792 54 825 69 b 890 211 877 128 890 166 b 851 324 890 256 877 294 b 750 369 825 354 792 369 b 648 324 708 369 674 354 b 608 211 622 294 608 256 b 648 99 608 166 622 128 b 750 54 674 69 708 54 "},"&":{"ha":892,"x_min":0,"x_max":0,"o":"m 707 0 b 606 97 688 16 655 48 b 339 -17 530 21 441 -17 b 133 51 256 -17 187 6 b 51 242 78 96 51 159 b 106 403 51 307 69 361 b 256 518 142 444 192 483 b 185 726 208 599 185 668 b 252 879 185 788 207 838 b 418 940 297 920 352 940 b 568 892 479 940 529 924 b 626 758 607 859 626 815 b 608 669 626 725 620 695 b 550 597 596 642 577 618 b 480 546 523 575 500 558 b 390 497 460 534 430 518 b 499 365 420 457 456 413 b 608 242 532 325 569 284 b 708 454 649 305 682 375 l 797 414 b 671 175 756 316 714 236 b 851 0 728 116 788 57 m 350 69 b 543 161 419 69 484 100 b 415 301 482 225 439 272 b 300 449 371 352 332 401 b 163 249 208 393 163 326 b 217 117 163 193 181 149 b 350 69 254 85 298 69 m 292 724 b 347 564 292 680 310 627 b 484 650 407 594 453 622 b 531 754 515 678 531 713 b 500 832 531 788 520 813 b 421 860 480 850 453 860 b 329 822 385 860 354 847 b 292 724 304 796 292 763 "},"'":{"ha":276,"x_min":0,"x_max":0,"o":"m 113 572 b 75 876 88 762 75 863 b 93 922 75 894 81 909 b 138 940 105 934 120 940 b 183 922 155 940 170 934 b 201 876 195 909 201 894 l 164 572 "},"(":{"ha":344,"x_min":0,"x_max":0,"o":"m 257 -276 b 61 338 126 -97 61 108 b 257 951 61 567 126 772 l 321 904 b 211 631 272 808 235 717 b 175 338 187 544 175 447 b 211 45 175 229 187 132 b 321 -228 235 -41 272 -132 "},")":{"ha":344,"x_min":0,"x_max":0,"o":"m 88 -276 b 283 338 218 -97 283 108 b 88 951 283 567 218 772 l 24 904 b 133 631 73 808 109 717 b 169 338 157 544 169 447 b 133 45 169 229 157 132 b 24 -228 109 -41 73 -132 "},"*":{"ha":472,"x_min":0,"x_max":0,"o":"m 204 540 l 213 700 l 78 614 l 47 668 l 189 740 l 47 813 l 78 868 l 213 781 l 204 940 l 268 940 l 260 781 l 393 868 l 425 813 l 283 740 l 425 668 l 393 614 l 260 700 l 268 540 "},"+":{"ha":693,"x_min":0,"x_max":0,"o":"m 386 432 l 386 136 l 307 136 l 307 432 l 40 432 l 40 504 l 307 504 l 307 792 l 386 792 l 386 504 l 653 504 l 653 432 "},",":{"ha":319,"x_min":0,"x_max":0,"o":"m 244 33 b 213 -84 244 -7 234 -47 b 132 -176 192 -122 165 -152 l 79 -133 b 140 -74 102 -119 122 -99 b 169 -4 157 -50 167 -26 b 150 -7 166 -6 159 -7 b 103 13 131 -7 116 0 b 83 64 90 27 83 44 b 105 117 83 84 91 102 b 157 139 119 131 137 139 b 219 110 182 139 203 129 b 244 33 236 91 244 66 "},"-":{"ha":417,"x_min":0,"x_max":0,"o":"m 42 290 l 42 382 l 375 382 l 375 290 "},".":{"ha":321,"x_min":0,"x_max":0,"o":"m 160 -14 b 106 8 138 -14 120 -6 b 83 63 91 23 83 41 b 106 117 83 84 91 102 b 160 139 120 131 138 139 b 214 117 181 139 199 131 b 236 63 229 102 236 84 b 214 8 236 41 229 23 b 160 -14 199 -6 181 -14 "},"/":{"ha":411,"x_min":0,"x_max":0,"o":"m 0 -28 l 329 954 l 411 954 l 82 -28 "},":":{"ha":313,"x_min":0,"x_max":0,"o":"m 160 528 b 106 551 139 528 122 535 b 83 604 91 566 83 584 b 106 658 83 625 91 644 b 160 681 120 673 138 681 b 214 658 181 681 199 673 b 236 604 229 644 236 625 b 213 551 236 584 228 566 b 160 528 198 535 180 528 m 160 -14 b 106 8 138 -14 120 -6 b 83 63 91 23 83 41 b 106 117 83 84 91 102 b 160 139 120 131 138 139 b 214 117 181 139 199 131 b 236 63 229 102 236 84 b 214 8 236 41 229 23 b 160 -14 199 -6 181 -14 "},";":{"ha":319,"x_min":0,"x_max":0,"o":"m 160 528 b 106 551 139 528 122 535 b 83 604 91 566 83 584 b 106 658 83 625 91 644 b 160 681 120 673 138 681 b 214 658 181 681 199 673 b 236 604 229 644 236 625 b 213 551 236 584 228 566 b 160 528 198 535 180 528 m 244 36 b 213 -82 244 -6 234 -45 b 132 -174 192 -119 165 -150 l 79 -132 b 139 -72 101 -117 121 -97 b 169 -1 156 -47 167 -24 b 150 -4 166 -3 159 -4 b 103 16 131 -4 116 3 b 83 67 90 29 83 46 b 105 119 83 87 91 105 b 157 142 119 134 137 142 b 219 113 182 142 203 132 b 244 36 236 94 244 69 "},"<":{"ha":693,"x_min":0,"x_max":0,"o":"m 40 428 l 40 501 l 653 806 l 653 718 l 129 464 l 653 213 l 653 125 "},"=":{"ha":693,"x_min":0,"x_max":0,"o":"m 40 561 l 40 635 l 653 635 l 653 561 m 40 293 l 40 367 l 653 367 l 653 293 "},">":{"ha":693,"x_min":0,"x_max":0,"o":"m 40 125 l 40 213 l 564 464 l 40 718 l 40 806 l 653 501 l 653 428 "},"?":{"ha":642,"x_min":0,"x_max":0,"o":"m 282 257 b 229 371 247 287 229 325 b 255 458 229 403 238 432 b 317 524 272 484 293 506 b 391 576 342 542 366 560 b 453 635 416 593 436 613 b 479 708 471 657 479 681 b 437 801 479 745 465 776 b 317 838 409 825 369 838 b 94 724 225 838 151 800 l 25 799 b 326 940 97 893 198 940 b 524 878 409 940 475 920 b 599 725 574 837 599 786 b 571 620 599 686 589 651 b 503 544 552 589 530 564 b 425 489 477 525 451 506 b 358 431 399 471 377 452 b 331 361 340 409 331 386 b 367 294 331 333 343 311 l 282 257 m 311 -14 b 258 8 291 -14 273 -6 b 235 63 242 23 235 41 b 258 117 235 84 242 102 b 311 139 273 131 291 139 b 365 117 331 139 349 131 b 388 63 380 102 388 84 b 365 8 388 41 380 23 b 311 -14 349 -6 331 -14 "},"@":{"ha":1088,"x_min":0,"x_max":0,"o":"m 489 -97 b 174 28 363 -97 258 -55 b 49 339 91 112 49 216 b 215 724 49 487 104 615 b 600 886 325 832 454 886 b 915 759 729 886 834 844 b 1038 446 997 674 1038 570 b 965 206 1038 344 1013 264 b 797 118 917 147 861 118 b 708 151 760 118 730 129 b 671 231 685 172 673 199 l 671 240 b 574 152 646 204 613 175 b 450 118 534 129 493 118 b 296 181 386 118 335 139 b 238 344 257 222 238 277 b 338 590 238 439 271 521 b 564 693 404 659 480 693 b 674 663 606 693 643 683 b 742 585 705 642 728 616 l 760 671 l 854 671 l 775 294 b 772 265 773 283 772 274 b 791 213 772 243 778 225 b 838 193 803 200 819 193 b 940 256 873 193 907 214 b 989 446 972 297 989 361 b 880 728 989 561 953 655 b 596 839 807 802 713 839 b 247 688 463 839 346 789 b 97 342 147 588 97 472 b 210 61 97 230 135 136 b 494 -51 285 -14 380 -51 b 753 26 584 -51 670 -25 l 778 -10 b 489 -97 687 -68 591 -97 m 479 196 b 685 321 559 196 627 238 l 725 514 b 674 584 716 540 699 563 b 582 615 650 605 619 615 b 409 535 514 615 457 588 b 338 350 361 481 338 419 b 375 239 338 305 350 268 b 479 196 400 210 435 196 "},"A":{"ha":914,"x_min":0,"x_max":0,"o":"m 769 0 l 688 207 l 226 207 l 144 0 l 13 0 l 386 926 l 529 926 l 901 0 m 457 808 l 261 308 l 654 308 "},"B":{"ha":874,"x_min":0,"x_max":0,"o":"m 108 0 l 108 926 l 521 926 b 710 861 600 926 664 905 b 781 690 757 818 781 761 b 733 549 781 635 765 588 b 618 478 702 511 663 487 b 745 400 667 470 709 444 b 799 250 781 356 799 306 b 727 69 799 175 775 115 b 531 0 679 23 614 0 m 501 525 b 619 567 552 525 592 539 b 661 674 647 594 661 630 b 619 781 661 717 647 753 b 501 824 591 809 551 824 l 224 824 l 224 525 l 501 525 m 508 103 b 634 146 562 103 604 117 b 679 263 664 175 679 213 b 634 376 679 307 664 345 b 508 422 604 407 562 422 l 224 422 l 224 103 l 508 103 "},"C":{"ha":939,"x_min":0,"x_max":0,"o":"m 547 -17 b 208 117 412 -17 299 28 b 71 463 116 207 71 322 b 208 808 71 603 116 718 b 547 942 299 897 412 942 b 899 758 696 942 813 881 l 803 704 b 694 802 776 745 740 778 b 547 839 648 827 599 839 b 292 733 444 839 359 804 b 190 463 224 663 190 573 b 292 192 190 353 224 263 b 547 86 360 122 445 86 b 694 124 599 86 648 99 b 803 221 740 149 776 181 l 900 168 b 547 -17 810 45 693 -17 "},"D":{"ha":972,"x_min":0,"x_max":0,"o":"m 108 0 l 108 926 l 425 926 b 769 794 567 926 681 882 b 900 463 856 706 900 596 b 769 131 900 328 856 218 b 425 0 682 44 568 0 m 425 103 b 685 206 534 103 621 137 b 781 463 749 274 781 360 b 686 721 781 566 749 652 b 425 824 623 789 536 824 l 224 824 l 224 103 l 425 103 "},"E":{"ha":790,"x_min":0,"x_max":0,"o":"m 108 0 l 108 926 l 715 926 l 715 824 l 224 824 l 224 525 l 706 525 l 706 422 l 224 422 l 224 103 l 715 103 l 715 0 "},"F":{"ha":765,"x_min":0,"x_max":0,"o":"m 108 0 l 108 926 l 715 926 l 715 824 l 224 824 l 224 525 l 706 525 l 706 422 l 224 422 l 224 0 "},"G":{"ha":990,"x_min":0,"x_max":0,"o":"m 547 -18 b 208 116 413 -18 300 27 b 71 463 117 205 71 321 b 208 808 71 604 116 719 b 547 942 299 897 412 942 b 907 769 694 942 814 884 l 815 711 b 699 804 786 750 747 781 b 547 839 652 827 601 839 b 292 733 444 839 359 804 b 190 463 224 663 190 573 b 292 192 190 353 224 263 b 547 86 360 122 445 86 b 690 116 598 86 646 96 b 797 186 735 136 770 159 l 797 374 l 478 374 l 478 476 l 911 476 l 911 143 b 547 -18 816 36 694 -18 "},"H":{"ha":989,"x_min":0,"x_max":0,"o":"m 765 0 l 765 425 l 224 425 l 224 0 l 108 0 l 108 926 l 224 926 l 224 528 l 765 528 l 765 926 l 881 926 l 881 0 "},"I":{"ha":332,"x_min":0,"x_max":0,"o":"m 108 0 l 108 926 l 224 926 l 224 0 "},"J":{"ha":660,"x_min":0,"x_max":0,"o":"m 257 -17 b 15 90 157 -17 76 19 l 76 178 b 250 86 125 117 183 86 b 385 140 306 86 352 104 b 436 281 419 175 436 222 l 436 926 l 551 926 l 551 279 b 469 59 551 183 524 109 b 257 -17 415 9 344 -17 "},"K":{"ha":835,"x_min":0,"x_max":0,"o":"m 668 0 l 317 417 l 224 311 l 224 0 l 108 0 l 108 926 l 224 926 l 224 449 l 633 926 l 778 926 l 392 488 l 813 0 "},"L":{"ha":685,"x_min":0,"x_max":0,"o":"m 93 0 l 93 926 l 208 926 l 208 103 l 639 103 l 639 0 "},"M":{"ha":1124,"x_min":0,"x_max":0,"o":"m 900 0 l 900 779 l 586 0 l 539 0 l 224 779 l 224 0 l 108 0 l 108 926 l 274 926 l 563 213 l 850 926 l 1015 926 l 1015 0 "},"N":{"ha":983,"x_min":0,"x_max":0,"o":"m 764 0 l 224 739 l 224 0 l 108 0 l 108 926 l 226 926 l 760 203 l 760 926 l 875 926 l 875 0 "},"O":{"ha":1063,"x_min":0,"x_max":0,"o":"m 531 -17 b 199 119 395 -17 285 29 b 71 463 114 210 71 325 b 199 806 71 600 114 715 b 531 942 285 896 395 942 b 863 806 666 942 776 896 b 992 463 949 715 992 600 b 863 119 992 325 949 210 b 531 -17 776 29 666 -17 m 531 86 b 778 192 632 86 715 122 b 872 463 841 263 872 353 b 778 733 872 572 841 662 b 531 839 715 803 632 839 b 283 733 428 839 345 804 b 190 463 221 663 190 573 b 283 192 190 353 221 263 b 531 86 345 122 428 86 "},"P":{"ha":815,"x_min":0,"x_max":0,"o":"m 108 0 l 108 926 l 481 926 b 693 846 570 926 641 900 b 771 647 745 792 771 726 b 692 449 771 569 745 502 b 481 368 640 395 569 368 l 224 368 l 224 0 m 467 471 b 600 520 521 471 566 487 b 651 647 634 553 651 595 b 600 774 651 699 634 741 b 467 824 566 807 521 824 l 224 824 l 224 471 l 467 471 "},"Q":{"ha":1063,"x_min":0,"x_max":0,"o":"m 531 -17 b 199 119 395 -17 285 29 b 71 463 114 210 71 325 b 199 806 71 600 114 715 b 531 942 285 896 395 942 b 863 806 666 942 776 896 b 992 463 949 715 992 600 b 864 119 992 325 949 210 l 951 26 l 872 -43 l 782 53 b 531 -17 710 6 626 -17 m 531 86 b 707 133 596 86 655 102 l 575 276 l 656 344 l 786 203 b 872 463 844 273 872 360 b 778 733 872 572 841 662 b 531 839 715 803 632 839 b 283 733 428 839 345 804 b 190 463 221 663 190 573 b 283 192 190 353 221 263 b 531 86 345 122 428 86 "},"R":{"ha":846,"x_min":0,"x_max":0,"o":"m 644 0 l 410 368 l 224 368 l 224 0 l 108 0 l 108 926 l 481 926 b 691 850 567 926 637 901 b 772 647 745 799 772 731 b 702 457 772 568 749 504 b 531 378 655 410 598 383 l 781 0 m 467 469 b 601 519 521 469 566 486 b 653 647 635 553 653 595 b 601 775 653 700 635 743 b 467 824 566 807 521 824 l 224 824 l 224 469 l 467 469 "},"S":{"ha":814,"x_min":0,"x_max":0,"o":"m 408 -17 b 53 131 258 -17 140 32 l 122 219 b 413 86 199 131 296 86 b 578 135 488 86 543 102 b 631 247 613 167 631 205 b 590 340 631 284 617 315 b 488 393 562 364 528 382 b 356 431 448 404 404 417 b 224 476 309 446 265 461 b 123 553 184 492 150 518 b 82 683 96 588 82 631 b 172 869 82 759 112 821 b 401 942 232 918 309 942 b 729 811 538 942 647 898 l 660 726 b 392 838 594 800 505 838 b 255 797 336 838 291 824 b 201 690 219 769 201 734 b 242 610 201 658 215 631 b 344 563 270 588 303 573 b 476 524 384 552 428 540 b 608 476 523 509 567 493 b 709 393 648 459 682 431 b 750 256 736 355 750 309 b 666 63 750 181 722 116 b 408 -17 610 10 524 -17 "},"T":{"ha":792,"x_min":0,"x_max":0,"o":"m 338 0 l 338 824 l 44 824 l 44 926 l 747 926 l 747 824 l 453 824 l 453 0 "},"U":{"ha":974,"x_min":0,"x_max":0,"o":"m 486 -17 b 206 84 364 -17 270 17 b 108 360 141 151 108 243 l 108 926 l 225 926 l 225 363 b 292 160 225 276 247 209 b 486 86 337 111 402 86 b 681 160 570 86 635 111 b 749 363 726 209 749 276 l 749 926 l 865 926 l 865 361 b 768 84 865 244 833 151 b 486 -17 703 17 609 -17 "},"V":{"ha":914,"x_min":0,"x_max":0,"o":"m 386 0 l 13 926 l 144 926 l 457 126 l 769 926 l 901 926 l 529 0 "},"W":{"ha":1226,"x_min":0,"x_max":0,"o":"m 817 0 l 613 747 l 408 0 l 283 0 l 19 926 l 147 926 l 353 154 l 565 926 l 661 926 l 874 154 l 1078 926 l 1207 926 l 942 0 "},"X":{"ha":906,"x_min":0,"x_max":0,"o":"m 749 0 l 453 394 l 157 0 l 17 0 l 378 475 l 38 926 l 178 926 l 453 557 l 726 926 l 868 926 l 528 476 l 889 0 "},"Y":{"ha":869,"x_min":0,"x_max":0,"o":"m 378 0 l 378 392 l 13 926 l 147 926 l 435 496 l 722 926 l 857 926 l 493 392 l 493 0 "},"Z":{"ha":813,"x_min":0,"x_max":0,"o":"m 67 0 l 67 96 l 588 824 l 67 824 l 67 926 l 736 926 l 736 831 l 214 103 l 746 103 l 746 0 "},"[":{"ha":338,"x_min":0,"x_max":0,"o":"m 56 -264 l 56 942 l 314 942 l 314 865 l 138 865 l 138 -187 l 314 -187 l 314 -264 "},"\\":{"ha":411,"x_min":0,"x_max":0,"o":"m 0 954 l 82 954 l 411 -28 l 329 -28 "},"]":{"ha":338,"x_min":0,"x_max":0,"o":"m 24 -264 l 24 -187 l 201 -187 l 201 865 l 24 865 l 24 942 l 283 942 l 283 -264 "},"^":{"ha":600,"x_min":0,"x_max":0,"o":"m 488 463 l 300 850 l 113 463 l 26 463 l 261 926 l 340 926 l 574 463 "},"_":{"ha":783,"x_min":0,"x_max":0,"o":"m -4 -132 l -4 -56 l 788 -56 l 788 -132 "},"`":{"ha":314,"x_min":0,"x_max":0,"o":"m 235 772 l 0 972 l 108 972 l 314 772 "},"a":{"ha":733,"x_min":0,"x_max":0,"o":"m 524 0 l 524 76 b 301 -17 469 14 395 -17 b 139 43 240 -17 186 3 b 68 206 92 83 68 137 b 138 369 68 277 91 331 b 301 426 184 407 238 426 b 524 336 396 426 470 396 l 524 457 b 476 560 524 500 508 535 b 354 597 445 585 404 597 b 149 504 274 597 205 566 l 100 576 b 368 688 171 650 261 688 b 556 632 445 688 507 669 b 628 461 604 595 628 538 l 628 0 m 340 58 b 524 142 423 58 484 86 l 524 269 b 340 351 483 324 422 351 b 220 310 291 351 251 338 b 174 206 189 283 174 248 b 220 99 174 162 189 127 b 340 58 251 72 291 58 "},"b":{"ha":799,"x_min":0,"x_max":0,"o":"m 208 182 b 292 107 227 152 255 127 b 410 76 330 87 369 76 b 567 149 475 76 528 100 b 625 335 606 197 625 259 b 567 522 625 411 606 473 b 410 594 528 570 475 594 b 292 563 369 594 330 584 b 208 486 255 542 227 517 l 208 182 m 104 0 l 104 926 l 208 926 l 208 569 b 435 688 267 648 342 688 b 651 591 524 688 596 655 b 733 335 706 527 733 441 b 651 78 733 227 706 142 b 435 -17 596 15 524 -17 b 208 100 341 -17 266 22 l 208 0 "},"c":{"ha":689,"x_min":0,"x_max":0,"o":"m 400 -17 b 158 84 301 -17 220 17 b 65 336 96 151 65 235 b 158 588 65 437 96 521 b 400 688 220 654 301 688 b 646 571 504 688 586 649 l 576 508 b 406 594 535 566 478 594 b 238 522 336 594 280 570 b 174 336 195 473 174 411 b 238 149 174 260 195 198 b 406 76 280 101 336 76 b 576 164 476 76 533 106 l 646 100 b 400 -17 586 22 504 -17 "},"d":{"ha":799,"x_min":0,"x_max":0,"o":"m 590 0 l 590 100 b 364 -17 533 22 457 -17 b 148 78 275 -17 203 15 b 65 335 93 142 65 227 b 149 591 65 441 93 527 b 364 688 204 655 276 688 b 590 569 456 688 532 648 l 590 926 l 694 926 l 694 0 m 390 76 b 506 108 430 76 469 87 b 590 183 544 128 572 154 l 590 486 b 506 563 572 517 544 542 b 390 594 469 584 430 594 b 232 522 324 594 271 570 b 174 335 193 473 174 411 b 232 149 174 259 193 197 b 390 76 271 100 324 76 "},"e":{"ha":782,"x_min":0,"x_max":0,"o":"m 408 -17 b 161 81 307 -17 225 16 b 65 336 97 147 65 231 b 160 585 65 434 97 517 b 396 688 223 653 301 688 b 631 585 495 688 573 653 b 718 328 689 517 718 431 l 718 301 l 176 301 b 248 136 181 236 205 181 b 417 69 291 92 347 69 b 625 156 500 69 569 98 l 675 88 b 408 -17 604 18 515 -17 m 615 379 b 557 533 614 436 595 487 b 394 601 519 578 465 601 b 237 533 328 601 275 579 b 175 379 198 488 178 437 l 615 379 "},"f":{"ha":394,"x_min":0,"x_max":0,"o":"m 133 0 l 133 579 l 22 579 l 22 671 l 133 671 l 133 722 b 186 883 133 791 151 844 b 328 940 221 921 269 940 b 469 889 385 940 432 923 l 426 822 b 344 854 402 844 375 854 b 238 722 273 854 238 810 l 238 671 l 374 671 l 374 579 l 238 579 l 238 0 "},"g":{"ha":799,"x_min":0,"x_max":0,"o":"m 374 -272 b 224 -250 315 -272 265 -265 b 103 -171 182 -235 142 -209 l 156 -96 b 374 -186 206 -156 279 -186 b 528 -138 435 -186 486 -170 b 590 10 569 -106 590 -57 l 590 111 b 492 24 564 75 531 46 b 364 -8 452 3 409 -8 b 148 85 275 -8 203 23 b 65 339 93 148 65 232 b 148 593 65 445 93 530 b 364 688 203 656 275 688 b 590 569 456 688 532 648 l 590 671 l 694 671 l 694 10 b 603 -205 694 -88 664 -160 b 374 -272 543 -250 466 -272 m 390 85 b 506 116 430 85 469 95 b 590 193 543 137 571 163 l 590 488 b 506 563 571 517 543 542 b 390 594 469 584 430 594 b 232 524 324 594 271 571 b 174 339 193 476 174 415 b 232 156 174 264 193 203 b 390 85 271 108 324 85 "},"h":{"ha":767,"x_min":0,"x_max":0,"o":"m 558 0 l 558 442 b 519 560 558 498 545 538 b 407 594 494 583 456 594 b 295 564 369 594 332 584 b 210 490 259 544 230 519 l 210 0 l 106 0 l 106 926 l 210 926 l 210 574 b 313 654 235 605 269 632 b 449 688 356 676 401 688 b 663 474 591 688 663 616 l 663 0 "},"i":{"ha":313,"x_min":0,"x_max":0,"o":"m 157 767 b 107 787 138 767 121 773 b 86 836 93 800 86 817 b 107 886 86 856 93 872 b 157 907 121 900 138 907 b 206 886 176 907 193 900 b 226 836 220 872 226 856 b 206 787 226 817 220 800 b 157 767 193 773 176 767 m 104 0 l 104 671 l 208 671 l 208 0 "},"j":{"ha":313,"x_min":0,"x_max":0,"o":"m 157 767 b 107 787 138 767 121 773 b 86 836 93 800 86 817 b 107 886 86 856 93 872 b 157 907 121 900 138 907 b 206 886 176 907 193 900 b 226 836 220 872 226 856 b 206 787 226 817 220 800 b 157 767 193 773 176 767 m 10 -272 b -136 -222 -46 -272 -94 -256 l -100 -144 b -4 -186 -72 -172 -40 -186 b 75 -156 29 -186 56 -176 b 104 -65 94 -136 104 -106 l 104 671 l 208 671 l 208 -65 b 157 -219 208 -132 191 -183 b 10 -272 123 -254 74 -272 "},"k":{"ha":714,"x_min":0,"x_max":0,"o":"m 561 0 l 321 301 l 208 192 l 208 0 l 104 0 l 104 926 l 208 926 l 208 314 l 561 671 l 693 671 l 396 367 l 694 0 "},"l":{"ha":313,"x_min":0,"x_max":0,"o":"m 104 0 l 104 926 l 208 926 l 208 0 "},"m":{"ha":1122,"x_min":0,"x_max":0,"o":"m 914 0 l 914 456 b 790 594 914 548 873 594 b 690 565 757 594 724 584 b 613 492 657 545 631 520 l 613 0 l 508 0 l 508 456 b 385 594 508 548 467 594 b 287 564 352 594 320 584 b 208 490 254 544 228 519 l 208 0 l 104 0 l 104 671 l 208 671 l 208 574 b 297 651 226 600 255 626 b 426 688 338 675 381 688 b 544 653 475 688 514 676 b 606 563 575 630 595 600 b 699 650 626 596 657 625 b 831 688 740 675 784 688 b 1018 485 956 688 1018 620 l 1018 0 "},"n":{"ha":767,"x_min":0,"x_max":0,"o":"m 558 0 l 558 439 b 519 559 558 495 545 535 b 407 594 494 583 456 594 b 294 564 368 594 331 584 b 208 490 258 544 230 519 l 208 0 l 104 0 l 104 671 l 208 671 l 208 574 b 313 654 234 605 269 632 b 449 688 356 676 401 688 b 661 471 590 688 661 615 l 661 0 "},"o":{"ha":794,"x_min":0,"x_max":0,"o":"m 397 -17 b 156 85 297 -17 217 17 b 65 336 96 152 65 236 b 156 587 65 436 96 520 b 397 688 217 654 297 688 b 638 587 497 688 578 654 b 729 336 699 520 729 436 b 638 85 729 236 699 152 b 397 -17 578 17 497 -17 m 397 76 b 560 152 466 76 520 102 b 619 336 600 203 619 264 b 560 519 619 408 600 469 b 397 594 520 569 466 594 b 235 519 329 594 275 569 b 175 336 195 469 175 408 b 235 152 175 264 195 203 b 397 76 275 102 329 76 "},"p":{"ha":794,"x_min":0,"x_max":0,"o":"m 435 -17 b 208 101 343 -17 268 23 l 208 -256 l 104 -256 l 104 671 l 208 671 l 208 571 b 306 656 233 606 266 634 b 435 688 345 677 388 688 b 651 592 524 688 596 656 b 733 336 706 529 733 444 b 651 79 733 229 706 143 b 435 -17 596 15 524 -17 m 408 76 b 565 149 474 76 526 101 b 624 336 604 198 624 260 b 565 522 624 412 604 474 b 408 594 526 570 474 594 b 292 563 369 594 330 584 b 208 488 255 542 227 517 l 208 185 b 292 108 227 154 255 128 b 408 76 330 87 369 76 "},"q":{"ha":794,"x_min":0,"x_max":0,"o":"m 386 76 b 502 108 426 76 465 87 b 586 185 540 128 568 154 l 586 488 b 502 563 568 517 540 542 b 386 594 465 584 426 594 b 229 522 320 594 268 570 b 171 336 190 474 171 412 b 229 149 171 260 190 198 b 386 76 268 101 320 76 m 360 -17 b 144 79 271 -17 199 15 b 61 336 89 143 61 229 b 144 592 61 444 89 529 b 360 688 199 656 271 688 b 489 656 406 688 449 677 b 586 571 529 634 561 606 l 586 671 l 690 671 l 690 -256 l 586 -256 l 586 101 b 360 -17 527 23 451 -17 "},"r":{"ha":458,"x_min":0,"x_max":0,"o":"m 104 0 l 104 671 l 208 671 l 208 564 b 432 686 272 645 347 686 l 432 579 b 392 582 415 581 402 582 b 288 549 359 582 325 571 b 208 475 250 528 224 503 l 208 0 "},"s":{"ha":646,"x_min":0,"x_max":0,"o":"m 318 -17 b 47 89 205 -17 115 19 l 100 164 b 195 96 123 137 155 114 b 321 68 235 77 277 68 b 438 100 371 68 410 79 b 481 183 466 121 481 149 b 438 253 481 213 466 236 b 333 292 409 271 374 284 b 212 323 293 301 252 311 b 108 383 172 334 137 354 b 65 494 80 411 65 448 b 132 632 65 549 88 595 b 314 688 176 669 237 688 b 563 590 417 688 500 655 l 514 518 b 314 603 467 575 400 603 b 206 573 269 603 232 593 b 165 497 179 553 165 528 b 196 442 165 475 175 456 b 273 410 216 427 242 416 b 373 385 304 403 337 395 b 473 351 409 375 442 363 b 550 290 504 338 530 318 b 581 186 570 261 581 227 b 512 40 581 127 558 78 b 318 -17 466 2 401 -17 "},"t":{"ha":408,"x_min":0,"x_max":0,"o":"m 275 -17 b 125 140 175 -17 125 36 l 125 579 l 14 579 l 14 671 l 125 671 l 125 854 l 231 854 l 231 671 l 367 671 l 367 579 l 231 579 l 231 163 b 248 100 231 137 236 116 b 297 76 259 84 276 76 b 368 106 327 76 350 86 l 399 26 b 275 -17 368 -2 327 -17 "},"u":{"ha":765,"x_min":0,"x_max":0,"o":"m 557 0 l 557 94 b 452 15 529 63 494 37 b 318 -17 410 -6 365 -17 b 104 197 175 -17 104 55 l 104 671 l 208 671 l 208 229 b 247 111 208 174 221 134 b 360 76 273 88 311 76 b 472 106 399 76 436 86 b 557 178 508 125 537 149 l 557 671 l 661 671 l 661 0 "},"v":{"ha":681,"x_min":0,"x_max":0,"o":"m 283 0 l 4 671 l 118 671 l 340 121 l 564 671 l 676 671 l 397 0 "},"w":{"ha":1019,"x_min":0,"x_max":0,"o":"m 685 0 l 510 539 l 335 0 l 231 0 l 17 671 l 125 671 l 289 136 l 465 671 l 556 671 l 731 136 l 894 671 l 1004 671 l 790 0 "},"x":{"ha":676,"x_min":0,"x_max":0,"o":"m 540 0 l 338 275 l 136 0 l 17 0 l 274 344 l 31 671 l 151 671 l 338 415 l 525 671 l 644 671 l 401 344 l 660 0 "},"y":{"ha":681,"x_min":0,"x_max":0,"o":"m 83 -168 b 140 -179 100 -175 119 -179 b 200 -164 164 -179 184 -174 b 240 -108 216 -154 229 -135 l 285 -7 l 4 671 l 118 671 l 340 121 l 564 671 l 676 671 l 340 -136 b 143 -272 303 -225 238 -270 b 68 -262 114 -272 89 -269 "},"z":{"ha":656,"x_min":0,"x_max":0,"o":"m 72 0 l 72 82 l 442 579 l 72 579 l 72 671 l 578 671 l 578 592 l 206 92 l 583 92 l 583 0 "},"{":{"ha":363,"x_min":0,"x_max":0,"o":"m 253 -264 b 132 -212 206 -264 166 -247 b 81 -78 98 -177 81 -132 l 81 208 b 62 277 81 236 74 259 b 7 304 49 295 31 304 l 7 374 b 62 401 31 374 49 383 b 81 469 74 419 81 442 l 81 754 b 132 890 81 810 98 855 b 253 942 166 924 206 942 l 339 942 l 339 865 l 253 865 b 188 834 228 865 206 855 b 161 756 170 813 161 787 l 161 461 b 99 339 161 397 140 356 b 161 217 140 321 161 281 l 161 -76 b 188 -156 161 -108 170 -134 b 253 -187 206 -177 228 -187 l 339 -187 l 339 -264 "},"|":{"ha":293,"x_min":0,"x_max":0,"o":"m 108 -28 l 108 954 l 185 954 l 185 -28 "},"}":{"ha":363,"x_min":0,"x_max":0,"o":"m 24 -187 l 108 -187 b 174 -156 133 -187 155 -177 b 201 -76 192 -134 201 -108 l 201 217 b 264 339 201 281 222 321 b 201 461 222 356 201 397 l 201 756 b 174 834 201 787 192 813 b 108 865 156 855 134 865 l 24 865 l 24 942 l 108 942 b 230 890 155 942 195 924 b 282 754 265 855 282 810 l 282 469 b 301 401 282 442 288 419 b 354 374 313 383 331 374 l 354 304 b 301 277 331 304 313 295 b 282 208 288 259 282 236 l 282 -78 b 230 -212 282 -132 265 -177 b 108 -264 195 -247 155 -264 l 24 -264 "},"~":{"ha":699,"x_min":0,"x_max":0,"o":"m 660 918 b 642 794 655 871 649 830 b 611 691 635 759 625 725 b 555 614 597 657 578 631 b 469 588 531 596 503 588 b 388 615 437 588 410 597 b 340 681 366 633 350 655 b 310 758 329 706 319 732 b 278 824 302 784 291 806 b 229 851 265 842 249 851 b 115 586 171 851 133 763 l 38 596 b 56 719 42 642 48 683 b 88 822 63 754 74 789 b 144 899 101 856 120 881 b 229 925 169 916 197 925 b 310 898 262 925 289 916 b 359 831 332 880 348 858 b 388 753 370 805 379 779 b 421 687 397 727 408 705 b 469 660 434 669 450 660 b 583 926 528 660 566 749 "}," ":{"ha":360,"x_min":0,"x_max":0,"o":""},"¡":{"ha":319,"x_min":0,"x_max":0,"o":"m 115 411 l 203 411 l 225 -256 l 94 -256 m 83 608 b 106 662 83 629 91 647 b 160 685 120 677 138 685 b 213 663 180 685 198 677 b 235 608 227 648 235 630 b 213 556 235 588 227 570 b 160 533 198 541 180 533 b 106 556 139 533 122 541 b 83 608 91 570 83 588 "},"¢":{"ha":689,"x_min":0,"x_max":0,"o":"m 350 -12 b 144 101 265 -1 196 37 b 65 336 91 166 65 244 b 144 569 65 427 91 504 b 350 683 196 633 265 671 l 350 785 l 432 785 l 432 686 b 646 571 519 679 590 640 l 576 508 b 432 593 539 559 491 588 l 432 78 b 576 164 490 83 538 112 l 646 100 b 432 -15 592 31 521 -8 l 432 -139 l 350 -139 m 174 336 b 221 169 174 271 189 216 b 350 82 252 123 295 94 l 350 589 b 221 502 295 577 252 548 b 174 336 189 456 174 401 "},"£":{"ha":719,"x_min":0,"x_max":0,"o":"m 28 447 l 174 447 b 120 510 148 477 130 498 b 86 574 110 523 99 544 b 67 667 73 604 67 635 b 158 860 67 743 97 807 b 378 940 219 914 293 940 b 546 899 441 940 497 927 b 658 785 595 872 632 834 l 565 729 b 499 810 553 761 531 788 b 389 843 466 832 430 843 b 249 794 334 843 288 827 b 192 665 211 762 192 719 b 204 595 192 641 196 618 b 228 544 213 572 220 555 b 267 492 235 532 248 515 b 303 447 285 470 297 455 l 511 447 l 511 372 l 342 372 b 351 313 348 351 351 331 b 246 129 351 240 316 179 b 318 142 271 138 295 142 b 425 113 349 142 384 132 b 524 85 466 94 499 85 b 603 102 552 85 579 91 b 656 140 628 114 645 126 l 706 47 b 518 -18 660 4 598 -18 b 386 14 475 -18 431 -7 b 269 46 342 35 303 46 b 106 -10 231 46 176 27 l 65 78 b 201 172 125 104 170 135 b 249 289 233 208 249 247 b 228 372 249 317 242 344 l 28 372 "},"¤":{"ha":725,"x_min":0,"x_max":0,"o":"m 635 150 l 557 229 b 363 158 501 182 437 158 b 168 229 288 158 224 182 l 89 150 l 50 190 l 128 268 b 58 463 81 326 58 391 b 128 657 58 536 81 600 l 50 736 l 89 775 l 168 697 b 363 767 223 744 288 767 b 557 697 436 767 500 744 l 635 775 l 675 736 l 597 657 b 667 463 644 600 667 536 b 597 268 667 391 644 326 l 675 190 m 600 463 b 531 631 600 528 577 584 b 363 700 484 677 428 700 b 194 631 297 700 241 677 b 125 463 148 584 125 528 b 194 294 125 397 148 341 b 363 225 241 248 297 225 b 531 294 428 225 484 248 b 600 463 577 341 600 397 "},"¥":{"ha":869,"x_min":0,"x_max":0,"o":"m 378 0 l 378 169 l 31 169 l 31 243 l 378 243 l 378 392 l 31 392 l 31 464 l 328 464 l 13 926 l 147 926 l 435 496 l 722 926 l 857 926 l 542 464 l 840 464 l 840 392 l 493 392 l 493 243 l 840 243 l 840 169 l 493 169 l 493 0 "},"¦":{"ha":293,"x_min":0,"x_max":0,"o":"m 108 -28 l 108 411 l 185 411 l 185 -28 m 108 515 l 108 954 l 185 954 l 185 515 "},"§":{"ha":650,"x_min":0,"x_max":0,"o":"m 581 438 b 453 261 581 356 538 297 b 581 92 538 228 581 171 b 508 -58 581 28 556 -22 b 318 -112 460 -94 397 -112 b 47 -4 212 -112 121 -76 l 100 64 b 318 -35 155 -2 227 -35 b 435 -3 366 -35 405 -24 b 481 85 466 19 481 48 b 438 159 481 116 466 141 b 333 201 409 177 374 191 b 212 233 293 210 252 221 b 108 294 172 245 137 266 b 65 404 80 322 65 359 b 110 517 65 450 80 487 b 224 581 141 547 178 569 b 65 753 118 614 65 671 b 133 886 65 806 88 850 b 314 940 178 922 238 940 b 563 842 421 940 504 907 l 514 779 b 318 863 468 835 402 863 b 208 832 273 863 236 852 b 165 751 179 812 165 785 b 196 692 165 727 175 708 b 273 659 216 677 242 666 b 373 633 304 652 337 644 b 473 600 409 623 442 612 b 550 540 504 588 530 568 b 581 438 570 513 581 478 m 478 425 b 435 506 478 460 464 487 b 321 551 407 524 369 539 b 200 496 263 537 223 518 b 165 414 177 474 165 446 b 196 352 165 390 175 369 b 253 317 216 335 235 323 b 347 292 272 311 303 303 b 363 288 354 290 359 288 b 478 425 439 321 478 367 "},"¨":{"ha":378,"x_min":0,"x_max":0,"o":"m 397 839 b 378 794 397 821 391 806 b 332 775 365 781 350 775 b 287 794 314 775 299 781 b 268 839 274 806 268 821 b 287 884 268 856 274 872 b 332 903 299 897 314 903 b 378 884 350 903 366 897 b 397 839 391 872 397 856 m 110 839 b 91 794 110 821 103 806 b 46 775 78 781 63 775 b 0 794 28 775 13 781 b -19 839 -13 806 -19 821 b -1 884 -19 856 -13 872 b 46 903 12 897 27 903 b 91 884 63 903 78 897 b 110 839 103 872 110 856 "},"©":{"ha":1081,"x_min":0,"x_max":0,"o":"m 1019 464 b 879 125 1019 331 973 219 b 540 -15 786 31 673 -15 b 201 126 408 -15 295 32 b 61 464 108 220 61 332 b 201 803 61 596 108 709 b 540 943 295 896 408 943 b 879 803 673 943 786 896 b 1019 464 973 709 1019 596 m 976 464 b 849 772 976 584 934 687 b 540 900 763 857 661 900 b 233 772 421 900 318 857 b 104 464 147 687 104 584 b 233 156 104 344 147 242 b 540 28 318 71 421 28 b 849 156 661 28 763 71 b 976 464 934 242 976 344 m 747 260 b 543 168 694 199 626 168 b 338 254 463 168 394 197 b 254 467 282 312 254 382 b 338 677 254 551 282 621 b 543 761 394 733 463 761 b 746 671 627 761 695 731 l 711 636 b 638 694 694 660 669 679 b 543 715 607 708 575 715 b 376 645 478 715 422 692 b 306 465 329 598 306 538 b 376 286 306 394 329 334 b 543 214 424 238 479 214 b 638 236 576 214 608 221 b 711 294 668 251 693 270 "},"ª":{"ha":525,"x_min":0,"x_max":0,"o":"m 363 453 l 363 501 b 213 442 325 462 275 442 b 104 481 172 442 136 455 b 57 586 73 506 57 542 b 103 692 57 631 72 667 b 213 729 134 717 171 729 b 363 671 275 729 325 710 l 363 747 b 331 813 363 775 352 797 b 251 838 309 829 283 838 b 115 774 197 838 151 816 l 79 826 b 261 900 127 875 188 900 b 391 863 314 900 357 888 b 442 746 425 838 442 799 l 442 453 m 243 494 b 363 547 295 494 335 512 l 363 625 b 243 678 335 660 295 678 b 167 652 213 678 187 669 b 138 586 147 635 138 613 b 167 519 138 558 147 536 b 243 494 187 503 213 494 "},"«":{"ha":610,"x_min":0,"x_max":0,"o":"m 464 88 l 242 338 l 464 583 l 568 583 l 346 338 l 568 88 m 264 88 l 42 338 l 264 583 l 368 583 l 146 338 l 368 88 "},"¬":{"ha":700,"x_min":0,"x_max":0,"o":"m 653 293 l 576 293 l 576 561 l 40 561 l 40 635 l 653 635 "},"®":{"ha":686,"x_min":0,"x_max":0,"o":"m 638 646 b 551 438 638 564 609 495 b 343 351 494 380 425 351 b 135 438 262 351 192 380 b 49 646 77 495 49 564 b 135 854 49 727 77 797 b 343 940 192 912 262 940 b 552 855 425 940 495 912 b 638 646 609 798 638 728 m 597 646 b 523 826 597 717 572 777 b 343 900 473 875 413 900 b 163 826 273 900 213 875 b 89 646 114 777 89 717 b 163 467 89 576 114 517 b 343 392 213 417 273 392 b 523 467 413 392 473 417 b 597 646 572 517 597 576 m 424 476 l 336 610 l 275 610 l 275 476 l 231 476 l 231 814 l 368 814 b 444 785 398 814 423 804 b 475 711 465 766 475 742 b 444 637 475 679 465 654 b 389 611 423 620 405 611 l 479 476 m 429 711 b 410 756 429 729 423 744 b 368 775 398 769 384 775 l 275 775 l 275 650 l 368 650 b 410 668 383 650 397 656 b 429 711 423 680 429 694 "},"¯":{"ha":504,"x_min":0,"x_max":0,"o":"m 0 821 l 0 888 l 504 888 l 504 821 "},"°":{"ha":403,"x_min":0,"x_max":0,"o":"m 371 771 b 321 651 371 724 354 684 b 201 601 288 618 248 601 b 81 651 154 601 114 618 b 32 771 48 684 32 724 b 81 890 32 817 48 857 b 201 940 114 924 154 940 b 321 890 248 940 288 924 b 371 771 354 857 371 817 m 304 771 b 274 843 304 799 294 823 b 201 874 253 863 229 874 b 130 843 174 874 150 863 b 100 771 110 823 100 799 b 129 699 100 742 110 718 b 201 669 149 679 173 669 b 274 699 229 669 253 679 b 304 771 294 719 304 743 "},"±":{"ha":693,"x_min":0,"x_max":0,"o":"m 386 450 l 386 154 l 307 154 l 307 450 l 40 450 l 40 522 l 307 522 l 307 810 l 386 810 l 386 522 l 653 522 l 653 450 m 40 0 l 40 74 l 653 74 l 653 0 "},"²":{"ha":539,"x_min":0,"x_max":0,"o":"m 69 585 l 69 647 b 315 844 185 731 267 796 b 388 979 363 891 388 937 b 353 1055 388 1013 376 1038 b 269 1081 330 1072 302 1081 b 179 1060 237 1081 207 1074 b 114 1008 151 1046 130 1029 l 68 1061 b 272 1149 114 1119 182 1149 b 413 1107 328 1149 375 1135 b 471 985 452 1079 471 1038 b 401 831 471 934 448 883 b 192 653 355 780 285 720 l 474 653 l 474 585 "},"³":{"ha":539,"x_min":0,"x_max":0,"o":"m 476 736 b 420 619 476 688 458 649 b 267 575 383 590 331 575 b 58 665 171 575 102 605 l 104 718 b 265 643 144 668 198 643 b 359 669 305 643 336 652 b 393 740 382 687 393 711 b 249 836 393 804 345 836 b 193 835 217 836 199 836 l 193 904 b 249 903 200 903 218 903 b 385 992 339 903 385 932 b 349 1057 385 1019 373 1041 b 260 1081 326 1073 296 1081 b 108 1014 200 1081 150 1058 l 65 1063 b 268 1149 116 1120 184 1149 b 412 1108 327 1149 375 1135 b 467 1000 448 1081 467 1045 b 429 912 467 963 454 934 b 343 872 404 890 375 877 b 434 831 375 869 406 855 b 476 736 462 808 476 776 "},"´":{"ha":314,"x_min":0,"x_max":0,"o":"m 79 772 l 0 772 l 206 972 l 314 972 "},"¶":{"ha":624,"x_min":0,"x_max":0,"o":"m 463 -139 l 463 864 l 339 864 l 339 -139 l 276 -139 l 276 449 b 108 519 211 449 154 472 b 38 688 61 566 38 622 b 108 856 38 753 61 809 b 276 926 154 903 211 926 l 525 926 l 525 -139 "},"·":{"ha":321,"x_min":0,"x_max":0,"o":"m 236 340 b 214 286 236 319 229 301 b 160 264 199 271 181 264 b 106 286 138 264 120 271 b 83 340 91 301 83 319 b 106 393 83 361 91 378 b 160 415 122 408 139 415 b 213 393 180 415 198 408 b 236 340 228 378 236 361 "},"¸":{"ha":285,"x_min":0,"x_max":0,"o":"m 140 -265 b 0 -224 82 -265 35 -251 l 26 -171 b 138 -211 60 -198 97 -211 b 198 -196 162 -211 182 -206 b 222 -153 214 -186 222 -171 b 171 -104 222 -120 205 -104 b 118 -128 149 -104 131 -112 l 72 -101 l 115 15 l 178 15 l 142 -76 b 193 -61 155 -66 172 -61 b 259 -87 220 -61 242 -70 b 285 -154 276 -104 285 -126 b 244 -235 285 -187 271 -214 b 140 -265 216 -255 182 -265 "},"¹":{"ha":326,"x_min":0,"x_max":0,"o":"m 160 585 l 160 1032 l 68 936 l 19 988 l 169 1140 l 243 1140 l 243 585 "},"º":{"ha":563,"x_min":0,"x_max":0,"o":"m 281 442 b 118 508 214 442 160 464 b 56 671 76 553 56 607 b 117 834 56 736 76 790 b 281 900 159 878 213 900 b 445 834 349 900 404 878 b 507 671 486 790 507 736 b 445 508 507 606 486 552 b 281 442 404 464 349 442 m 281 508 b 386 555 325 508 360 524 b 425 671 412 586 425 625 b 386 786 425 717 412 756 b 281 832 360 817 325 832 b 177 786 237 832 203 817 b 139 671 152 756 139 717 b 177 554 139 624 152 585 b 281 508 203 524 237 508 "},"»":{"ha":610,"x_min":0,"x_max":0,"o":"m 146 88 l 42 88 l 264 338 l 42 583 l 146 583 l 368 338 m 346 88 l 242 88 l 464 338 l 242 583 l 346 583 l 568 338 "},"¼":{"ha":1069,"x_min":0,"x_max":0,"o":"m 226 0 l 151 0 l 743 926 l 819 926 m 939 139 l 939 0 l 856 0 l 856 139 l 583 139 l 583 201 l 824 556 l 939 556 l 939 207 l 1018 207 l 1018 139 m 856 482 l 667 207 l 856 207 m 160 371 l 160 818 l 68 722 l 19 774 l 169 926 l 243 926 l 243 371 "},"½":{"ha":1121,"x_min":0,"x_max":0,"o":"m 226 0 l 151 0 l 743 926 l 819 926 m 651 0 l 651 63 b 897 259 767 146 849 211 b 969 394 945 307 969 352 b 935 470 969 428 958 453 b 851 496 912 487 884 496 b 761 475 819 496 789 489 b 696 424 733 461 712 444 l 650 476 b 854 564 696 535 764 564 b 995 522 910 564 957 550 b 1053 400 1034 494 1053 454 b 983 247 1053 349 1030 298 b 774 68 937 195 867 136 l 1056 68 l 1056 0 m 160 371 l 160 818 l 68 722 l 19 774 l 169 926 l 243 926 l 243 371 "},"¾":{"ha":1219,"x_min":0,"x_max":0,"o":"m 376 0 l 301 0 l 893 926 l 969 926 m 1090 139 l 1090 0 l 1007 0 l 1007 139 l 735 139 l 735 201 l 975 556 l 1090 556 l 1090 207 l 1169 207 l 1169 139 m 1007 482 l 818 207 l 1007 207 m 476 522 b 420 406 476 474 458 435 b 267 361 383 376 331 361 b 58 451 171 361 102 391 l 104 504 b 265 429 144 454 198 429 b 359 456 305 429 336 438 b 393 526 382 473 393 497 b 249 622 393 590 345 622 b 193 621 217 622 199 622 l 193 690 b 249 689 200 689 218 689 b 385 778 339 689 385 719 b 349 843 385 806 373 827 b 260 867 326 859 296 867 b 108 800 200 867 150 844 l 65 849 b 268 935 116 906 184 935 b 412 894 327 935 375 921 b 467 786 448 868 467 831 b 429 698 467 749 454 720 b 343 658 404 676 375 663 b 434 617 375 655 406 641 b 476 522 462 594 476 562 "},"¿":{"ha":547,"x_min":0,"x_max":0,"o":"m 360 411 b 413 297 395 381 413 344 b 387 210 413 265 404 236 b 324 144 370 184 349 162 b 251 92 300 126 275 108 b 188 33 226 75 205 56 b 163 -40 171 11 163 -13 b 205 -133 163 -77 177 -108 b 325 -169 233 -157 273 -169 b 547 -57 417 -169 491 -132 l 617 -131 b 315 -272 544 -225 444 -272 b 117 -210 233 -272 167 -252 b 43 -57 68 -169 43 -118 b 71 48 43 -18 52 17 b 138 124 89 79 112 104 b 216 179 163 143 190 162 b 283 238 242 197 265 216 b 311 307 302 259 311 282 b 275 374 311 335 299 357 l 360 411 m 331 685 b 384 662 351 685 369 677 b 407 608 399 647 407 629 b 384 555 407 588 399 570 b 331 532 369 540 351 532 b 277 555 310 532 292 540 b 254 608 262 570 254 588 b 277 662 254 629 262 647 b 331 685 292 677 310 685 "},"À":{"ha":914,"x_min":0,"x_max":0,"o":"m 471 1011 l 236 1211 l 344 1211 l 550 1011 m 769 0 l 688 207 l 226 207 l 144 0 l 13 0 l 386 926 l 529 926 l 901 0 m 457 808 l 261 308 l 654 308 "},"Á":{"ha":914,"x_min":0,"x_max":0,"o":"m 446 1011 l 367 1011 l 572 1211 l 681 1211 m 769 0 l 688 207 l 226 207 l 144 0 l 13 0 l 386 926 l 529 926 l 901 0 m 457 808 l 261 308 l 654 308 "},"Â":{"ha":914,"x_min":0,"x_max":0,"o":"m 572 1011 l 457 1158 l 346 1011 l 275 1011 l 407 1211 l 507 1211 l 643 1011 m 769 0 l 688 207 l 226 207 l 144 0 l 13 0 l 386 926 l 529 926 l 901 0 m 457 808 l 261 308 l 654 308 "},"Ã":{"ha":914,"x_min":0,"x_max":0,"o":"m 540 1008 b 481 1028 518 1008 498 1015 b 442 1072 464 1042 451 1056 b 410 1116 434 1088 423 1103 b 369 1136 398 1129 384 1136 b 322 1106 350 1136 334 1126 b 303 1017 309 1086 303 1056 l 240 1017 b 276 1151 240 1072 252 1117 b 375 1203 299 1186 332 1203 b 434 1183 397 1203 417 1196 b 473 1139 451 1169 464 1155 b 505 1095 482 1123 492 1109 b 546 1075 517 1082 531 1075 b 594 1105 565 1075 581 1085 b 613 1194 606 1125 613 1155 l 675 1194 b 640 1060 675 1139 663 1094 b 540 1008 616 1025 583 1008 m 769 0 l 688 207 l 226 207 l 144 0 l 13 0 l 386 926 l 529 926 l 901 0 m 457 808 l 261 308 l 654 308 "},"Ä":{"ha":914,"x_min":0,"x_max":0,"o":"m 667 1074 b 647 1028 667 1056 660 1041 b 601 1010 634 1016 619 1010 b 556 1028 584 1010 569 1016 b 538 1074 544 1041 538 1056 b 556 1119 538 1091 544 1106 b 601 1138 569 1131 584 1138 b 648 1119 620 1138 635 1131 b 667 1074 660 1106 667 1091 m 379 1074 b 360 1028 379 1056 373 1041 b 315 1010 348 1016 333 1010 b 269 1028 298 1010 282 1016 b 250 1074 256 1041 250 1056 b 269 1119 250 1091 256 1106 b 315 1138 281 1131 297 1138 b 360 1119 333 1138 348 1131 b 379 1074 373 1106 379 1091 m 769 0 l 688 207 l 226 207 l 144 0 l 13 0 l 386 926 l 529 926 l 901 0 m 457 808 l 261 308 l 654 308 "},"Å":{"ha":914,"x_min":0,"x_max":0,"o":"m 458 961 b 362 1001 421 961 389 975 b 321 1099 334 1028 321 1061 b 362 1196 321 1137 334 1169 b 458 1236 389 1223 421 1236 b 553 1196 495 1236 527 1223 b 593 1099 580 1169 593 1137 b 553 1001 593 1061 580 1028 b 458 961 527 975 495 961 m 458 1017 b 515 1041 481 1017 500 1025 b 539 1099 531 1057 539 1076 b 515 1156 539 1121 531 1140 b 458 1181 500 1172 481 1181 b 400 1156 435 1181 416 1172 b 376 1099 384 1140 376 1121 b 400 1041 376 1076 384 1057 b 458 1017 416 1025 435 1017 m 769 0 l 688 207 l 226 207 l 144 0 l 13 0 l 386 926 l 529 926 l 901 0 m 457 808 l 261 308 l 654 308 "},"Æ":{"ha":1317,"x_min":0,"x_max":0,"o":"m 633 0 l 633 207 l 269 207 l 142 0 l 10 0 l 588 926 l 1240 926 l 1240 824 l 749 824 l 749 525 l 1231 525 l 1231 422 l 749 422 l 749 103 l 1240 103 l 1240 0 m 633 808 l 325 308 l 633 308 "},"Ç":{"ha":939,"x_min":0,"x_max":0,"o":"m 539 -260 b 399 -218 480 -260 433 -246 l 425 -165 b 536 -206 458 -192 495 -206 b 597 -190 560 -206 580 -200 b 621 -147 613 -180 621 -166 b 569 -99 621 -115 604 -99 b 517 -122 547 -99 530 -106 l 471 -96 l 500 -14 b 192 133 376 -4 273 45 b 71 463 111 220 71 330 b 208 808 71 603 116 718 b 547 942 299 897 412 942 b 899 758 696 942 813 881 l 803 704 b 694 802 776 745 740 778 b 547 839 648 827 599 839 b 292 733 444 839 359 804 b 190 463 224 663 190 573 b 292 192 190 353 224 263 b 547 86 360 122 445 86 b 694 124 599 86 648 99 b 803 221 740 149 776 181 l 900 168 b 561 -17 812 49 699 -13 l 540 -71 b 592 -56 553 -61 570 -56 b 658 -81 619 -56 641 -64 b 683 -149 675 -98 683 -121 b 642 -229 683 -182 670 -209 b 539 -260 615 -250 581 -260 "},"È":{"ha":790,"x_min":0,"x_max":0,"o":"m 425 1011 l 190 1211 l 299 1211 l 504 1011 m 108 0 l 108 926 l 715 926 l 715 824 l 224 824 l 224 525 l 706 525 l 706 422 l 224 422 l 224 103 l 715 103 l 715 0 "},"É":{"ha":790,"x_min":0,"x_max":0,"o":"m 399 1011 l 319 1011 l 525 1211 l 633 1211 m 108 0 l 108 926 l 715 926 l 715 824 l 224 824 l 224 525 l 706 525 l 706 422 l 224 422 l 224 103 l 715 103 l 715 0 "},"Ê":{"ha":790,"x_min":0,"x_max":0,"o":"m 524 1011 l 408 1158 l 297 1011 l 226 1011 l 358 1211 l 458 1211 l 594 1011 m 108 0 l 108 926 l 715 926 l 715 824 l 224 824 l 224 525 l 706 525 l 706 422 l 224 422 l 224 103 l 715 103 l 715 0 "},"Ë":{"ha":790,"x_min":0,"x_max":0,"o":"m 619 1074 b 600 1028 619 1056 613 1041 b 554 1010 587 1016 572 1010 b 509 1028 537 1010 522 1016 b 490 1074 497 1041 490 1056 b 509 1119 490 1091 497 1106 b 554 1138 522 1131 537 1138 b 601 1119 573 1138 588 1131 b 619 1074 613 1106 619 1091 m 332 1074 b 313 1028 332 1056 326 1041 b 268 1010 301 1016 286 1010 b 222 1028 250 1010 235 1016 b 203 1074 209 1041 203 1056 b 222 1119 203 1091 209 1106 b 268 1138 234 1131 250 1138 b 313 1119 286 1138 301 1131 b 332 1074 326 1106 332 1091 m 108 0 l 108 926 l 715 926 l 715 824 l 224 824 l 224 525 l 706 525 l 706 422 l 224 422 l 224 103 l 715 103 l 715 0 "},"Ì":{"ha":332,"x_min":0,"x_max":0,"o":"m 178 1011 l -57 1211 l 51 1211 l 257 1011 m 108 0 l 108 926 l 224 926 l 224 0 "},"Í":{"ha":332,"x_min":0,"x_max":0,"o":"m 156 1011 l 76 1011 l 282 1211 l 390 1211 m 108 0 l 108 926 l 224 926 l 224 0 "},"Î":{"ha":332,"x_min":0,"x_max":0,"o":"m 279 1011 l 164 1158 l 53 1011 l -18 1011 l 114 1211 l 214 1211 l 350 1011 m 108 0 l 108 926 l 224 926 l 224 0 "},"Ï":{"ha":332,"x_min":0,"x_max":0,"o":"m 374 1074 b 354 1028 374 1056 367 1041 b 308 1010 341 1016 326 1010 b 263 1028 291 1010 276 1016 b 244 1074 251 1041 244 1056 b 263 1119 244 1091 251 1106 b 308 1138 276 1131 291 1138 b 355 1119 327 1138 342 1131 b 374 1074 367 1106 374 1091 m 86 1074 b 67 1028 86 1056 80 1041 b 22 1010 55 1016 40 1010 b -24 1028 5 1010 -11 1016 b -43 1074 -37 1041 -43 1056 b -24 1119 -43 1091 -37 1106 b 22 1138 -12 1131 4 1138 b 67 1119 40 1138 55 1131 b 86 1074 80 1106 86 1091 m 108 0 l 108 926 l 224 926 l 224 0 "},"Ð":{"ha":1011,"x_min":0,"x_max":0,"o":"m 147 0 l 147 415 l 14 415 l 14 500 l 147 500 l 147 926 l 464 926 b 808 794 606 926 720 882 b 939 463 895 706 939 596 b 808 131 939 328 895 218 b 464 0 721 44 606 0 m 263 415 l 263 103 l 464 103 b 724 206 573 103 660 137 b 819 463 788 274 819 360 b 725 721 819 566 788 652 b 464 824 662 789 575 824 l 263 824 l 263 500 l 497 500 l 497 415 "},"Ñ":{"ha":983,"x_min":0,"x_max":0,"o":"m 572 1008 b 513 1028 550 1008 530 1015 b 474 1072 496 1042 483 1056 b 442 1116 466 1088 455 1103 b 401 1136 430 1129 416 1136 b 353 1106 382 1136 366 1126 b 335 1017 341 1086 335 1056 l 272 1017 b 308 1151 272 1072 284 1117 b 407 1203 331 1186 364 1203 b 466 1183 429 1203 449 1196 b 505 1139 483 1169 496 1155 b 537 1095 514 1123 524 1109 b 578 1075 549 1082 563 1075 b 626 1105 597 1075 613 1085 b 644 1194 638 1125 644 1155 l 707 1194 b 672 1060 707 1139 695 1094 b 572 1008 648 1025 615 1008 m 764 0 l 224 739 l 224 0 l 108 0 l 108 926 l 226 926 l 760 203 l 760 926 l 875 926 l 875 0 "},"Ò":{"ha":1063,"x_min":0,"x_max":0,"o":"m 549 1011 l 314 1211 l 422 1211 l 628 1011 m 531 -17 b 199 119 395 -17 285 29 b 71 463 114 210 71 325 b 199 806 71 600 114 715 b 531 942 285 896 395 942 b 863 806 666 942 776 896 b 992 463 949 715 992 600 b 863 119 992 325 949 210 b 531 -17 776 29 666 -17 m 531 86 b 778 192 632 86 715 122 b 872 463 841 263 872 353 b 778 733 872 572 841 662 b 531 839 715 803 632 839 b 283 733 428 839 345 804 b 190 463 221 663 190 573 b 283 192 190 353 221 263 b 531 86 345 122 428 86 "},"Ó":{"ha":1063,"x_min":0,"x_max":0,"o":"m 521 1011 l 442 1011 l 647 1211 l 756 1211 m 531 -17 b 199 119 395 -17 285 29 b 71 463 114 210 71 325 b 199 806 71 600 114 715 b 531 942 285 896 395 942 b 863 806 666 942 776 896 b 992 463 949 715 992 600 b 863 119 992 325 949 210 b 531 -17 776 29 666 -17 m 531 86 b 778 192 632 86 715 122 b 872 463 841 263 872 353 b 778 733 872 572 841 662 b 531 839 715 803 632 839 b 283 733 428 839 345 804 b 190 463 221 663 190 573 b 283 192 190 353 221 263 b 531 86 345 122 428 86 "},"Ô":{"ha":1063,"x_min":0,"x_max":0,"o":"m 647 1011 l 532 1158 l 421 1011 l 350 1011 l 482 1211 l 582 1211 l 718 1011 m 531 -17 b 199 119 395 -17 285 29 b 71 463 114 210 71 325 b 199 806 71 600 114 715 b 531 942 285 896 395 942 b 863 806 666 942 776 896 b 992 463 949 715 992 600 b 863 119 992 325 949 210 b 531 -17 776 29 666 -17 m 531 86 b 778 192 632 86 715 122 b 872 463 841 263 872 353 b 778 733 872 572 841 662 b 531 839 715 803 632 839 b 283 733 428 839 345 804 b 190 463 221 663 190 573 b 283 192 190 353 221 263 b 531 86 345 122 428 86 "},"Õ":{"ha":1063,"x_min":0,"x_max":0,"o":"m 614 1008 b 555 1028 592 1008 572 1015 b 516 1072 538 1042 525 1056 b 484 1116 507 1088 497 1103 b 443 1136 472 1129 458 1136 b 395 1106 424 1136 408 1126 b 376 1017 383 1086 376 1056 l 314 1017 b 349 1151 314 1072 326 1117 b 449 1203 373 1186 406 1203 b 508 1183 471 1203 491 1196 b 547 1139 525 1169 538 1155 b 578 1095 555 1123 566 1109 b 619 1075 591 1082 605 1075 b 667 1105 639 1075 655 1085 b 686 1194 680 1125 686 1155 l 749 1194 b 713 1060 749 1139 737 1094 b 614 1008 690 1025 656 1008 m 531 -17 b 199 119 395 -17 285 29 b 71 463 114 210 71 325 b 199 806 71 600 114 715 b 531 942 285 896 395 942 b 863 806 666 942 776 896 b 992 463 949 715 992 600 b 863 119 992 325 949 210 b 531 -17 776 29 666 -17 m 531 86 b 778 192 632 86 715 122 b 872 463 841 263 872 353 b 778 733 872 572 841 662 b 531 839 715 803 632 839 b 283 733 428 839 345 804 b 190 463 221 663 190 573 b 283 192 190 353 221 263 b 531 86 345 122 428 86 "},"Ö":{"ha":1063,"x_min":0,"x_max":0,"o":"m 739 1074 b 719 1028 739 1056 732 1041 b 674 1010 706 1016 691 1010 b 628 1028 656 1010 641 1016 b 610 1074 616 1041 610 1056 b 628 1119 610 1091 616 1106 b 674 1138 641 1131 656 1138 b 720 1119 692 1138 708 1131 b 739 1074 733 1106 739 1091 m 451 1074 b 433 1028 451 1056 445 1041 b 388 1010 420 1016 405 1010 b 342 1028 370 1010 355 1016 b 322 1074 329 1041 322 1056 b 341 1119 322 1091 328 1106 b 388 1138 353 1131 369 1138 b 433 1119 405 1138 420 1131 b 451 1074 445 1106 451 1091 m 531 -17 b 199 119 395 -17 285 29 b 71 463 114 210 71 325 b 199 806 71 600 114 715 b 531 942 285 896 395 942 b 863 806 666 942 776 896 b 992 463 949 715 992 600 b 863 119 992 325 949 210 b 531 -17 776 29 666 -17 m 531 86 b 778 192 632 86 715 122 b 872 463 841 263 872 353 b 778 733 872 572 841 662 b 531 839 715 803 632 839 b 283 733 428 839 345 804 b 190 463 221 663 190 573 b 283 192 190 353 221 263 b 531 86 345 122 428 86 "},"×":{"ha":693,"x_min":0,"x_max":0,"o":"m 346 413 l 140 206 l 89 257 l 296 464 l 89 671 l 140 722 l 346 515 l 553 722 l 604 671 l 399 464 l 604 257 l 553 206 "},"Ø":{"ha":1063,"x_min":0,"x_max":0,"o":"m 531 -17 b 292 46 442 -17 362 4 l 261 0 l 168 0 l 229 90 b 71 463 124 181 71 305 b 199 806 71 600 114 715 b 531 942 285 896 395 942 b 763 883 616 942 693 922 l 792 926 l 885 926 l 826 839 b 948 676 878 795 919 741 b 992 463 977 610 992 539 b 863 119 992 325 949 210 b 531 -17 776 29 666 -17 m 531 86 b 778 192 632 86 715 122 b 872 463 841 263 872 353 b 764 747 872 582 836 677 l 351 135 b 531 86 402 102 462 86 m 190 463 b 292 183 190 347 224 254 l 703 794 b 531 839 651 824 594 839 b 283 733 428 839 345 804 b 190 463 221 663 190 573 "},"Ù":{"ha":974,"x_min":0,"x_max":0,"o":"m 501 1011 l 267 1211 l 375 1211 l 581 1011 m 486 -17 b 206 84 364 -17 270 17 b 108 360 141 151 108 243 l 108 926 l 225 926 l 225 363 b 292 160 225 276 247 209 b 486 86 337 111 402 86 b 681 160 570 86 635 111 b 749 363 726 209 749 276 l 749 926 l 865 926 l 865 361 b 768 84 865 244 833 151 b 486 -17 703 17 609 -17 "},"Ú":{"ha":974,"x_min":0,"x_max":0,"o":"m 474 1011 l 394 1011 l 600 1211 l 708 1211 m 486 -17 b 206 84 364 -17 270 17 b 108 360 141 151 108 243 l 108 926 l 225 926 l 225 363 b 292 160 225 276 247 209 b 486 86 337 111 402 86 b 681 160 570 86 635 111 b 749 363 726 209 749 276 l 749 926 l 865 926 l 865 361 b 768 84 865 244 833 151 b 486 -17 703 17 609 -17 "},"Û":{"ha":974,"x_min":0,"x_max":0,"o":"m 607 1011 l 492 1158 l 381 1011 l 310 1011 l 442 1211 l 542 1211 l 678 1011 m 486 -17 b 206 84 364 -17 270 17 b 108 360 141 151 108 243 l 108 926 l 225 926 l 225 363 b 292 160 225 276 247 209 b 486 86 337 111 402 86 b 681 160 570 86 635 111 b 749 363 726 209 749 276 l 749 926 l 865 926 l 865 361 b 768 84 865 244 833 151 b 486 -17 703 17 609 -17 "},"Ü":{"ha":974,"x_min":0,"x_max":0,"o":"m 696 1074 b 676 1028 696 1056 689 1041 b 631 1010 663 1016 648 1010 b 585 1028 613 1010 598 1016 b 567 1074 573 1041 567 1056 b 585 1119 567 1091 573 1106 b 631 1138 598 1131 613 1138 b 677 1119 649 1138 665 1131 b 696 1074 690 1106 696 1091 m 408 1074 b 390 1028 408 1056 402 1041 b 344 1010 377 1016 362 1010 b 299 1028 327 1010 312 1016 b 279 1074 286 1041 279 1056 b 298 1119 279 1091 285 1106 b 344 1138 310 1131 326 1138 b 390 1119 362 1138 377 1131 b 408 1074 402 1106 408 1091 m 486 -17 b 206 84 364 -17 270 17 b 108 360 141 151 108 243 l 108 926 l 225 926 l 225 363 b 292 160 225 276 247 209 b 486 86 337 111 402 86 b 681 160 570 86 635 111 b 749 363 726 209 749 276 l 749 926 l 865 926 l 865 361 b 768 84 865 244 833 151 b 486 -17 703 17 609 -17 "},"Ý":{"ha":869,"x_min":0,"x_max":0,"o":"m 428 1011 l 349 1011 l 554 1211 l 663 1211 m 378 0 l 378 392 l 13 926 l 147 926 l 435 496 l 722 926 l 857 926 l 493 392 l 493 0 "},"Þ":{"ha":815,"x_min":0,"x_max":0,"o":"m 108 0 l 108 926 l 224 926 l 224 761 l 481 761 b 693 681 570 761 641 734 b 771 481 745 627 771 560 b 692 283 771 402 745 336 b 481 203 640 229 569 203 l 224 203 l 224 0 m 467 306 b 600 354 521 306 566 322 b 651 481 634 387 651 429 b 600 608 651 532 634 575 b 467 658 566 642 521 658 l 224 658 l 224 306 l 467 306 "},"ß":{"ha":829,"x_min":0,"x_max":0,"o":"m 803 188 b 735 42 803 130 780 82 b 544 -17 691 3 627 -17 b 396 11 483 -17 434 -7 b 286 92 358 30 321 56 l 339 164 b 424 96 359 136 388 113 b 544 69 460 78 500 69 b 661 103 595 69 634 81 b 701 185 688 125 701 152 b 660 255 701 214 688 238 b 561 294 633 272 600 285 b 444 326 522 304 483 314 b 344 386 404 338 371 358 b 303 496 316 414 303 450 b 335 586 303 529 313 559 b 404 647 356 613 379 633 b 474 697 429 661 452 678 b 506 754 495 716 506 735 b 464 822 506 783 492 806 b 368 847 436 839 404 847 b 255 805 323 847 285 833 b 210 693 225 777 210 739 l 210 0 l 106 0 l 106 693 b 178 869 106 763 130 822 b 369 940 226 917 290 940 b 541 892 436 940 493 924 b 613 765 589 860 613 818 b 591 691 613 738 605 713 b 539 638 577 669 559 651 b 478 597 519 624 498 610 b 426 552 457 584 440 569 b 404 496 411 535 404 516 b 445 435 404 470 418 450 b 544 399 472 420 506 408 b 662 368 583 391 622 380 b 762 305 701 356 734 335 b 803 188 789 275 803 236 "},"à":{"ha":733,"x_min":0,"x_max":0,"o":"m 524 0 l 524 76 b 301 -17 469 14 395 -17 b 139 43 240 -17 186 3 b 68 206 92 83 68 137 b 138 369 68 277 91 331 b 301 426 184 407 238 426 b 524 336 396 426 470 396 l 524 457 b 476 560 524 500 508 535 b 354 597 445 585 404 597 b 149 504 274 597 205 566 l 100 576 b 368 688 171 650 261 688 b 556 632 445 688 507 669 b 628 461 604 595 628 538 l 628 0 m 340 58 b 524 142 423 58 484 86 l 524 269 b 340 351 483 324 422 351 b 220 310 291 351 251 338 b 174 206 189 283 174 248 b 220 99 174 162 189 127 b 340 58 251 72 291 58 m 382 772 l 147 972 l 256 972 l 461 772 "},"á":{"ha":733,"x_min":0,"x_max":0,"o":"m 524 0 l 524 76 b 301 -17 469 14 395 -17 b 139 43 240 -17 186 3 b 68 206 92 83 68 137 b 138 369 68 277 91 331 b 301 426 184 407 238 426 b 524 336 396 426 470 396 l 524 457 b 476 560 524 500 508 535 b 354 597 445 585 404 597 b 149 504 274 597 205 566 l 100 576 b 368 688 171 650 261 688 b 556 632 445 688 507 669 b 628 461 604 595 628 538 l 628 0 m 340 58 b 524 142 423 58 484 86 l 524 269 b 340 351 483 324 422 351 b 220 310 291 351 251 338 b 174 206 189 283 174 248 b 220 99 174 162 189 127 b 340 58 251 72 291 58 m 358 772 l 279 772 l 485 972 l 593 972 "},"â":{"ha":733,"x_min":0,"x_max":0,"o":"m 524 0 l 524 76 b 301 -17 469 14 395 -17 b 139 43 240 -17 186 3 b 68 206 92 83 68 137 b 138 369 68 277 91 331 b 301 426 184 407 238 426 b 524 336 396 426 470 396 l 524 457 b 476 560 524 500 508 535 b 354 597 445 585 404 597 b 149 504 274 597 205 566 l 100 576 b 368 688 171 650 261 688 b 556 632 445 688 507 669 b 628 461 604 595 628 538 l 628 0 m 340 58 b 524 142 423 58 484 86 l 524 269 b 340 351 483 324 422 351 b 220 310 291 351 251 338 b 174 206 189 283 174 248 b 220 99 174 162 189 127 b 340 58 251 72 291 58 m 486 772 l 371 919 l 260 772 l 189 772 l 321 972 l 421 972 l 557 772 "},"ã":{"ha":733,"x_min":0,"x_max":0,"o":"m 524 0 l 524 76 b 301 -17 469 14 395 -17 b 139 43 240 -17 186 3 b 68 206 92 83 68 137 b 138 369 68 277 91 331 b 301 426 184 407 238 426 b 524 336 396 426 470 396 l 524 457 b 476 560 524 500 508 535 b 354 597 445 585 404 597 b 149 504 274 597 205 566 l 100 576 b 368 688 171 650 261 688 b 556 632 445 688 507 669 b 628 461 604 595 628 538 l 628 0 m 340 58 b 524 142 423 58 484 86 l 524 269 b 340 351 483 324 422 351 b 220 310 291 351 251 338 b 174 206 189 283 174 248 b 220 99 174 162 189 127 b 340 58 251 72 291 58 m 451 769 b 392 790 429 769 409 776 b 353 833 375 803 362 818 b 322 877 345 849 334 864 b 281 897 309 891 295 897 b 233 867 261 897 245 887 b 214 778 220 847 214 818 l 151 778 b 187 913 151 833 163 878 b 286 964 210 947 244 964 b 345 944 308 964 328 957 b 384 900 362 930 375 916 b 416 856 393 884 403 870 b 457 836 428 843 442 836 b 505 866 476 836 492 846 b 524 956 517 886 524 916 l 586 956 b 551 821 586 900 574 855 b 451 769 527 787 494 769 "},"ä":{"ha":733,"x_min":0,"x_max":0,"o":"m 524 0 l 524 76 b 301 -17 469 14 395 -17 b 139 43 240 -17 186 3 b 68 206 92 83 68 137 b 138 369 68 277 91 331 b 301 426 184 407 238 426 b 524 336 396 426 470 396 l 524 457 b 476 560 524 500 508 535 b 354 597 445 585 404 597 b 149 504 274 597 205 566 l 100 576 b 368 688 171 650 261 688 b 556 632 445 688 507 669 b 628 461 604 595 628 538 l 628 0 m 340 58 b 524 142 423 58 484 86 l 524 269 b 340 351 483 324 422 351 b 220 310 291 351 251 338 b 174 206 189 283 174 248 b 220 99 174 162 189 127 b 340 58 251 72 291 58 m 575 839 b 556 794 575 821 569 806 b 510 775 543 781 527 775 b 465 794 492 775 477 781 b 446 839 452 806 446 821 b 465 884 446 856 452 872 b 510 903 477 897 492 903 b 556 884 528 903 544 897 b 575 839 569 872 575 856 m 288 839 b 269 794 288 821 281 806 b 224 775 256 781 241 775 b 178 794 206 775 191 781 b 158 839 165 806 158 821 b 177 884 158 856 165 872 b 224 903 190 897 205 903 b 269 884 241 903 256 897 b 288 839 281 872 288 856 "},"å":{"ha":733,"x_min":0,"x_max":0,"o":"m 524 0 l 524 76 b 301 -17 469 14 395 -17 b 139 43 240 -17 186 3 b 68 206 92 83 68 137 b 138 369 68 277 91 331 b 301 426 184 407 238 426 b 524 336 396 426 470 396 l 524 457 b 476 560 524 500 508 535 b 354 597 445 585 404 597 b 149 504 274 597 205 566 l 100 576 b 368 688 171 650 261 688 b 556 632 445 688 507 669 b 628 461 604 595 628 538 l 628 0 m 340 58 b 524 142 423 58 484 86 l 524 269 b 340 351 483 324 422 351 b 220 310 291 351 251 338 b 174 206 189 283 174 248 b 220 99 174 162 189 127 b 340 58 251 72 291 58 m 369 760 b 273 801 332 760 300 773 b 232 897 246 828 232 860 b 273 994 232 934 246 966 b 369 1035 300 1021 332 1035 b 465 994 406 1035 438 1021 b 504 897 491 968 504 935 b 465 800 504 859 491 827 b 369 760 438 773 406 760 m 369 815 b 426 840 392 815 411 823 b 450 897 442 856 450 875 b 426 955 450 919 442 939 b 369 979 411 971 392 979 b 311 955 346 979 327 971 b 288 897 295 939 288 919 b 311 840 288 875 295 856 b 369 815 327 823 346 815 "},"æ":{"ha":1235,"x_min":0,"x_max":0,"o":"m 629 301 b 701 138 634 236 658 181 b 869 72 744 94 800 72 b 1078 157 954 72 1023 100 l 1128 88 b 861 -17 1056 18 968 -17 b 583 122 743 -17 650 30 b 307 -17 518 30 425 -17 b 140 43 243 -17 187 3 b 68 206 92 83 68 137 b 136 368 68 275 91 329 b 301 426 181 407 237 426 b 524 338 396 426 470 397 l 524 457 b 476 560 524 500 508 535 b 354 597 445 585 404 597 b 149 504 274 597 205 566 l 100 576 b 368 688 171 650 261 688 b 596 540 498 688 574 638 b 853 688 651 638 737 688 b 1085 585 950 688 1027 653 b 1171 328 1142 517 1171 431 l 1171 301 m 1068 379 b 1010 533 1067 436 1048 487 b 847 601 972 578 918 601 b 690 533 781 601 728 579 b 628 379 651 488 631 437 m 544 176 b 524 267 531 209 524 239 b 340 351 483 323 422 351 b 220 310 291 351 251 338 b 174 206 189 283 174 248 b 220 99 174 162 189 127 b 340 58 251 72 291 58 b 544 176 433 58 501 98 "},"ç":{"ha":689,"x_min":0,"x_max":0,"o":"m 403 -262 b 263 -221 344 -262 297 -249 l 289 -168 b 400 -208 322 -195 359 -208 b 460 -193 424 -208 444 -203 b 485 -150 477 -183 485 -169 b 433 -101 485 -118 468 -101 b 381 -125 411 -101 394 -109 l 335 -99 l 365 -14 b 148 96 275 -6 203 30 b 65 336 93 162 65 242 b 158 588 65 437 96 521 b 400 688 220 654 301 688 b 646 571 504 688 586 649 l 576 508 b 406 594 535 566 478 594 b 238 522 336 594 280 570 b 174 336 195 473 174 411 b 238 149 174 260 195 198 b 406 76 280 101 336 76 b 576 164 476 76 533 106 l 646 100 b 426 -15 592 30 519 -9 l 404 -74 b 456 -58 417 -63 434 -58 b 522 -84 482 -58 504 -67 b 547 -151 539 -101 547 -124 b 506 -232 547 -185 534 -212 b 403 -262 479 -252 444 -262 "},"è":{"ha":782,"x_min":0,"x_max":0,"o":"m 408 -17 b 161 81 307 -17 225 16 b 65 336 97 147 65 231 b 160 585 65 434 97 517 b 396 688 223 653 301 688 b 631 585 495 688 573 653 b 718 328 689 517 718 431 l 718 301 l 176 301 b 248 136 181 236 205 181 b 417 69 291 92 347 69 b 625 156 500 69 569 98 l 675 88 b 408 -17 604 18 515 -17 m 615 379 b 557 533 614 436 595 487 b 394 601 519 578 465 601 b 237 533 328 601 275 579 b 175 379 198 488 178 437 l 615 379 m 410 772 l 175 972 l 283 972 l 489 772 "},"é":{"ha":782,"x_min":0,"x_max":0,"o":"m 408 -17 b 161 81 307 -17 225 16 b 65 336 97 147 65 231 b 160 585 65 434 97 517 b 396 688 223 653 301 688 b 631 585 495 688 573 653 b 718 328 689 517 718 431 l 718 301 l 176 301 b 248 136 181 236 205 181 b 417 69 291 92 347 69 b 625 156 500 69 569 98 l 675 88 b 408 -17 604 18 515 -17 m 615 379 b 557 533 614 436 595 487 b 394 601 519 578 465 601 b 237 533 328 601 275 579 b 175 379 198 488 178 437 l 615 379 m 385 772 l 306 772 l 511 972 l 619 972 "},"ê":{"ha":782,"x_min":0,"x_max":0,"o":"m 408 -17 b 161 81 307 -17 225 16 b 65 336 97 147 65 231 b 160 585 65 434 97 517 b 396 688 223 653 301 688 b 631 585 495 688 573 653 b 718 328 689 517 718 431 l 718 301 l 176 301 b 248 136 181 236 205 181 b 417 69 291 92 347 69 b 625 156 500 69 569 98 l 675 88 b 408 -17 604 18 515 -17 m 615 379 b 557 533 614 436 595 487 b 394 601 519 578 465 601 b 237 533 328 601 275 579 b 175 379 198 488 178 437 l 615 379 m 511 772 l 396 919 l 285 772 l 214 772 l 346 972 l 446 972 l 582 772 "},"ë":{"ha":782,"x_min":0,"x_max":0,"o":"m 408 -17 b 161 81 307 -17 225 16 b 65 336 97 147 65 231 b 160 585 65 434 97 517 b 396 688 223 653 301 688 b 631 585 495 688 573 653 b 718 328 689 517 718 431 l 718 301 l 176 301 b 248 136 181 236 205 181 b 417 69 291 92 347 69 b 625 156 500 69 569 98 l 675 88 b 408 -17 604 18 515 -17 m 615 379 b 557 533 614 436 595 487 b 394 601 519 578 465 601 b 237 533 328 601 275 579 b 175 379 198 488 178 437 l 615 379 m 606 839 b 586 794 606 821 599 806 b 540 775 573 781 558 775 b 495 794 523 775 508 781 b 476 839 483 806 476 821 b 495 884 476 856 483 872 b 540 903 508 897 523 903 b 587 884 559 903 574 897 b 606 839 599 872 606 856 m 318 839 b 299 794 318 821 312 806 b 254 775 287 781 272 775 b 208 794 237 775 221 781 b 189 839 195 806 189 821 b 208 884 189 856 195 872 b 254 903 220 897 236 903 b 299 884 272 903 287 897 b 318 839 312 872 318 856 "},"ì":{"ha":313,"x_min":0,"x_max":0,"o":"m 168 772 l -67 972 l 42 972 l 247 772 m 104 0 l 104 671 l 208 671 l 208 0 "},"í":{"ha":313,"x_min":0,"x_max":0,"o":"m 144 772 l 65 772 l 271 972 l 379 972 m 104 0 l 104 671 l 208 671 l 208 0 "},"î":{"ha":313,"x_min":0,"x_max":0,"o":"m 271 772 l 156 919 l 44 772 l -26 772 l 106 972 l 206 972 l 342 772 m 104 0 l 104 671 l 208 671 l 208 0 "},"ï":{"ha":313,"x_min":0,"x_max":0,"o":"m 365 839 b 346 794 365 821 359 806 b 300 775 333 781 318 775 b 255 794 282 775 267 781 b 236 839 242 806 236 821 b 255 884 236 856 242 872 b 300 903 267 897 282 903 b 347 884 319 903 334 897 b 365 839 359 872 365 856 m 78 839 b 59 794 78 821 72 806 b 14 775 47 781 31 775 b -32 794 -4 775 -19 781 b -51 839 -45 806 -51 821 b -33 884 -51 856 -45 872 b 14 903 -20 897 -5 903 b 59 884 31 903 47 897 b 78 839 72 872 78 856 m 104 0 l 104 671 l 208 671 l 208 0 "},"ð":{"ha":794,"x_min":0,"x_max":0,"o":"m 144 749 l 308 821 b 276 842 298 827 287 834 b 237 867 264 849 251 857 b 204 888 222 876 212 883 l 261 974 b 417 868 323 936 375 900 l 567 935 l 590 878 l 471 825 b 729 343 643 679 729 518 b 639 84 729 238 699 151 b 397 -17 579 17 498 -17 b 157 81 298 -17 218 16 b 65 325 96 145 65 227 b 151 569 65 423 94 504 b 371 665 209 633 282 665 b 590 543 462 665 535 625 b 368 779 544 626 470 705 l 169 690 m 397 76 b 560 149 466 76 520 100 b 619 325 600 197 619 256 b 560 500 619 394 600 452 b 397 572 520 548 466 572 b 235 500 329 572 275 548 b 175 325 195 452 175 394 b 235 149 175 256 195 197 b 397 76 275 100 329 76 "},"ñ":{"ha":767,"x_min":0,"x_max":0,"o":"m 563 0 l 563 439 b 524 559 563 495 550 535 b 411 594 498 583 460 594 b 299 564 372 594 335 584 b 213 490 263 544 234 519 l 213 0 l 108 0 l 108 671 l 213 671 l 213 574 b 317 654 238 605 273 632 b 453 688 360 676 406 688 b 665 471 594 688 665 615 l 665 0 m 467 769 b 408 790 444 769 425 776 b 369 833 391 803 378 818 b 337 877 360 849 349 864 b 296 897 324 891 311 897 b 248 867 276 897 260 887 b 229 778 235 847 229 818 l 167 778 b 202 913 167 833 178 878 b 301 964 226 947 259 964 b 360 944 324 964 343 957 b 399 900 378 930 391 916 b 431 856 408 884 419 870 b 472 836 444 843 457 836 b 520 866 492 836 508 846 b 539 956 533 886 539 916 l 601 956 b 566 821 601 900 590 855 b 467 769 542 787 509 769 "},"ò":{"ha":794,"x_min":0,"x_max":0,"o":"m 397 -17 b 156 85 297 -17 217 17 b 65 336 96 152 65 236 b 156 587 65 436 96 520 b 397 688 217 654 297 688 b 638 587 497 688 578 654 b 729 336 699 520 729 436 b 638 85 729 236 699 152 b 397 -17 578 17 497 -17 m 397 76 b 560 152 466 76 520 102 b 619 336 600 203 619 264 b 560 519 619 408 600 469 b 397 594 520 569 466 594 b 235 519 329 594 275 569 b 175 336 195 469 175 408 b 235 152 175 264 195 203 b 397 76 275 102 329 76 m 410 772 l 175 972 l 283 972 l 489 772 "},"ó":{"ha":794,"x_min":0,"x_max":0,"o":"m 397 -17 b 156 85 297 -17 217 17 b 65 336 96 152 65 236 b 156 587 65 436 96 520 b 397 688 217 654 297 688 b 638 587 497 688 578 654 b 729 336 699 520 729 436 b 638 85 729 236 699 152 b 397 -17 578 17 497 -17 m 397 76 b 560 152 466 76 520 102 b 619 336 600 203 619 264 b 560 519 619 408 600 469 b 397 594 520 569 466 594 b 235 519 329 594 275 569 b 175 336 195 469 175 408 b 235 152 175 264 195 203 b 397 76 275 102 329 76 m 385 772 l 306 772 l 511 972 l 619 972 "},"ô":{"ha":794,"x_min":0,"x_max":0,"o":"m 397 -17 b 156 85 297 -17 217 17 b 65 336 96 152 65 236 b 156 587 65 436 96 520 b 397 688 217 654 297 688 b 638 587 497 688 578 654 b 729 336 699 520 729 436 b 638 85 729 236 699 152 b 397 -17 578 17 497 -17 m 397 76 b 560 152 466 76 520 102 b 619 336 600 203 619 264 b 560 519 619 408 600 469 b 397 594 520 569 466 594 b 235 519 329 594 275 569 b 175 336 195 469 175 408 b 235 152 175 264 195 203 b 397 76 275 102 329 76 m 513 772 l 397 919 l 286 772 l 215 772 l 347 972 l 447 972 l 583 772 "},"õ":{"ha":794,"x_min":0,"x_max":0,"o":"m 397 -17 b 156 85 297 -17 217 17 b 65 336 96 152 65 236 b 156 587 65 436 96 520 b 397 688 217 654 297 688 b 638 587 497 688 578 654 b 729 336 699 520 729 436 b 638 85 729 236 699 152 b 397 -17 578 17 497 -17 m 397 76 b 560 152 466 76 520 102 b 619 336 600 203 619 264 b 560 519 619 408 600 469 b 397 594 520 569 466 594 b 235 519 329 594 275 569 b 175 336 195 469 175 408 b 235 152 175 264 195 203 b 397 76 275 102 329 76 m 481 769 b 422 790 458 769 439 776 b 383 833 404 803 391 818 b 351 877 374 849 363 864 b 310 897 338 891 325 897 b 262 867 290 897 274 887 b 243 778 249 847 243 818 l 181 778 b 216 913 181 833 192 878 b 315 964 240 947 273 964 b 374 944 338 964 357 957 b 413 900 391 930 404 916 b 445 856 422 884 433 870 b 486 836 458 843 471 836 b 534 866 506 836 522 846 b 553 956 547 886 553 916 l 615 956 b 580 821 615 900 603 855 b 481 769 556 787 523 769 "},"ö":{"ha":794,"x_min":0,"x_max":0,"o":"m 397 -17 b 156 85 297 -17 217 17 b 65 336 96 152 65 236 b 156 587 65 436 96 520 b 397 688 217 654 297 688 b 638 587 497 688 578 654 b 729 336 699 520 729 436 b 638 85 729 236 699 152 b 397 -17 578 17 497 -17 m 397 76 b 560 152 466 76 520 102 b 619 336 600 203 619 264 b 560 519 619 408 600 469 b 397 594 520 569 466 594 b 235 519 329 594 275 569 b 175 336 195 469 175 408 b 235 152 175 264 195 203 b 397 76 275 102 329 76 m 606 839 b 586 794 606 821 599 806 b 540 775 573 781 558 775 b 495 794 523 775 508 781 b 476 839 483 806 476 821 b 495 884 476 856 483 872 b 540 903 508 897 523 903 b 587 884 559 903 574 897 b 606 839 599 872 606 856 m 318 839 b 299 794 318 821 312 806 b 254 775 287 781 272 775 b 208 794 237 775 221 781 b 189 839 195 806 189 821 b 208 884 189 856 195 872 b 254 903 220 897 236 903 b 299 884 272 903 287 897 b 318 839 312 872 318 856 "},"÷":{"ha":710,"x_min":0,"x_max":0,"o":"m 419 732 b 401 686 419 714 413 699 b 356 667 388 673 373 667 b 310 686 338 667 323 673 b 292 732 298 699 292 714 b 310 776 292 750 298 764 b 356 794 323 788 338 794 b 401 776 373 794 388 788 b 419 732 413 764 419 750 m 40 432 l 40 504 l 669 504 l 669 432 m 419 200 b 401 155 419 182 413 167 b 356 136 388 142 373 136 b 310 155 338 136 323 142 b 292 200 298 167 292 182 b 310 245 292 218 298 233 b 356 264 323 258 338 264 b 401 245 373 264 388 258 b 419 200 413 233 419 218 "},"ø":{"ha":794,"x_min":0,"x_max":0,"o":"m 89 0 l 156 85 b 65 336 95 150 65 234 b 156 587 65 436 96 520 b 397 688 217 654 297 688 b 588 631 470 688 534 669 l 619 671 l 696 671 l 633 592 b 729 336 697 525 729 440 b 638 85 729 236 699 152 b 397 -17 578 17 497 -17 b 200 46 320 -17 255 4 l 164 0 m 397 76 b 560 152 466 76 520 102 b 619 336 600 203 619 264 b 567 508 619 405 602 462 l 261 124 b 397 76 298 92 344 76 m 175 336 b 222 168 175 269 191 213 l 525 553 b 397 594 490 581 447 594 b 235 519 329 594 275 569 b 175 336 195 469 175 408 "},"ù":{"ha":765,"x_min":0,"x_max":0,"o":"m 557 0 l 557 94 b 452 15 529 63 494 37 b 318 -17 410 -6 365 -17 b 104 197 175 -17 104 55 l 104 671 l 208 671 l 208 229 b 247 111 208 174 221 134 b 360 76 273 88 311 76 b 472 106 399 76 436 86 b 557 178 508 125 537 149 l 557 671 l 661 671 l 661 0 m 399 772 l 164 972 l 272 972 l 478 772 "},"ú":{"ha":765,"x_min":0,"x_max":0,"o":"m 557 0 l 557 94 b 452 15 529 63 494 37 b 318 -17 410 -6 365 -17 b 104 197 175 -17 104 55 l 104 671 l 208 671 l 208 229 b 247 111 208 174 221 134 b 360 76 273 88 311 76 b 472 106 399 76 436 86 b 557 178 508 125 537 149 l 557 671 l 661 671 l 661 0 m 372 772 l 293 772 l 499 972 l 607 972 "},"û":{"ha":765,"x_min":0,"x_max":0,"o":"m 557 0 l 557 94 b 452 15 529 63 494 37 b 318 -17 410 -6 365 -17 b 104 197 175 -17 104 55 l 104 671 l 208 671 l 208 229 b 247 111 208 174 221 134 b 360 76 273 88 311 76 b 472 106 399 76 436 86 b 557 178 508 125 537 149 l 557 671 l 661 671 l 661 0 m 497 772 l 382 919 l 271 772 l 200 772 l 332 972 l 432 972 l 568 772 "},"ü":{"ha":765,"x_min":0,"x_max":0,"o":"m 557 0 l 557 94 b 452 15 529 63 494 37 b 318 -17 410 -6 365 -17 b 104 197 175 -17 104 55 l 104 671 l 208 671 l 208 229 b 247 111 208 174 221 134 b 360 76 273 88 311 76 b 472 106 399 76 436 86 b 557 178 508 125 537 149 l 557 671 l 661 671 l 661 0 m 596 839 b 576 794 596 821 589 806 b 531 775 563 781 548 775 b 485 794 513 775 498 781 b 467 839 473 806 467 821 b 485 884 467 856 473 872 b 531 903 498 897 513 903 b 577 884 549 903 565 897 b 596 839 590 872 596 856 m 308 839 b 290 794 308 821 302 806 b 244 775 277 781 262 775 b 199 794 227 775 212 781 b 179 839 186 806 179 821 b 198 884 179 856 185 872 b 244 903 210 897 226 903 b 290 884 262 903 277 897 b 308 839 302 872 308 856 "},"ý":{"ha":681,"x_min":0,"x_max":0,"o":"m 83 -168 b 140 -179 100 -175 119 -179 b 200 -164 164 -179 184 -174 b 240 -108 216 -154 229 -135 l 285 -7 l 4 671 l 118 671 l 340 121 l 564 671 l 676 671 l 340 -136 b 143 -272 303 -225 238 -270 b 68 -262 114 -272 89 -269 m 329 772 l 250 772 l 456 972 l 564 972 "},"þ":{"ha":794,"x_min":0,"x_max":0,"o":"m 435 -17 b 208 101 343 -17 268 23 l 208 -256 l 104 -256 l 104 926 l 208 926 l 208 571 b 306 656 233 606 266 634 b 435 688 345 677 388 688 b 651 592 524 688 596 656 b 733 336 706 529 733 444 b 651 79 733 229 706 143 b 435 -17 596 15 524 -17 m 408 76 b 565 149 474 76 526 101 b 624 336 604 198 624 260 b 565 522 624 412 604 474 b 408 594 526 570 474 594 b 292 563 369 594 330 584 b 208 488 255 542 227 517 l 208 185 b 292 108 227 154 255 128 b 408 76 330 87 369 76 "},"ÿ":{"ha":681,"x_min":0,"x_max":0,"o":"m 83 -168 b 140 -179 100 -175 119 -179 b 200 -164 164 -179 184 -174 b 240 -108 216 -154 229 -135 l 285 -7 l 4 671 l 118 671 l 340 121 l 564 671 l 676 671 l 340 -136 b 143 -272 303 -225 238 -270 b 68 -262 114 -272 89 -269 m 549 839 b 529 794 549 821 542 806 b 483 775 516 781 501 775 b 438 794 466 775 451 781 b 419 839 426 806 419 821 b 438 884 419 856 426 872 b 483 903 451 897 466 903 b 530 884 502 903 517 897 b 549 839 542 872 549 856 m 261 839 b 242 794 261 821 255 806 b 197 775 230 781 215 775 b 151 794 180 775 164 781 b 132 839 138 806 132 821 b 151 884 132 856 138 872 b 197 903 163 897 179 903 b 242 884 215 903 230 897 b 261 839 255 872 261 856 "},"Ā":{"ha":914,"x_min":0,"x_max":0,"o":"m 769 0 l 688 207 l 226 207 l 144 0 l 13 0 l 386 926 l 529 926 l 901 0 m 457 808 l 261 308 l 654 308 m 204 1040 l 204 1107 l 708 1107 l 708 1040 "},"ā":{"ha":733,"x_min":0,"x_max":0,"o":"m 524 0 l 524 76 b 301 -17 469 14 395 -17 b 139 43 240 -17 186 3 b 68 206 92 83 68 137 b 138 369 68 277 91 331 b 301 426 184 407 238 426 b 524 336 396 426 470 396 l 524 457 b 476 560 524 500 508 535 b 354 597 445 585 404 597 b 149 504 274 597 205 566 l 100 576 b 368 688 171 650 261 688 b 556 632 445 688 507 669 b 628 461 604 595 628 538 l 628 0 m 340 58 b 524 142 423 58 484 86 l 524 269 b 340 351 483 324 422 351 b 220 310 291 351 251 338 b 174 206 189 283 174 248 b 220 99 174 162 189 127 b 340 58 251 72 291 58 m 113 803 l 113 869 l 617 869 l 617 803 "},"Ă":{"ha":914,"x_min":0,"x_max":0,"o":"m 769 0 l 688 207 l 226 207 l 144 0 l 13 0 l 386 926 l 529 926 l 901 0 m 457 808 l 261 308 l 654 308 m 700 1125 b 457 1003 640 1044 559 1003 b 213 1125 356 1003 275 1044 l 265 1169 b 457 1069 313 1103 376 1069 b 650 1169 538 1069 603 1103 l 700 1125 "},"ă":{"ha":733,"x_min":0,"x_max":0,"o":"m 524 0 l 524 76 b 301 -17 469 14 395 -17 b 139 43 240 -17 186 3 b 68 206 92 83 68 137 b 138 369 68 277 91 331 b 301 426 184 407 238 426 b 524 336 396 426 470 396 l 524 457 b 476 560 524 500 508 535 b 354 597 445 585 404 597 b 149 504 274 597 205 566 l 100 576 b 368 688 171 650 261 688 b 556 632 445 688 507 669 b 628 461 604 595 628 538 l 628 0 m 340 58 b 524 142 423 58 484 86 l 524 269 b 340 351 483 324 422 351 b 220 310 291 351 251 338 b 174 206 189 283 174 248 b 220 99 174 162 189 127 b 340 58 251 72 291 58 m 608 904 b 365 782 548 823 467 782 b 121 904 264 782 183 823 l 174 949 b 365 849 221 882 285 849 b 558 949 447 849 511 882 l 608 904 "},"Ą":{"ha":914,"x_min":0,"x_max":0,"o":"m 979 -175 b 857 -258 955 -231 914 -258 b 768 -228 822 -258 792 -248 b 732 -137 744 -207 732 -177 b 806 0 732 -85 756 -39 l 769 0 l 688 207 l 226 207 l 144 0 l 13 0 l 386 926 l 529 926 l 901 0 l 900 0 b 794 -135 830 -35 794 -80 b 857 -204 794 -181 815 -204 b 928 -146 891 -204 915 -185 m 457 808 l 261 308 l 654 308 "},"ą":{"ha":733,"x_min":0,"x_max":0,"o":"m 707 -175 b 585 -258 683 -231 642 -258 b 496 -228 550 -258 520 -248 b 460 -137 472 -207 460 -177 b 533 0 460 -85 484 -39 l 524 0 l 524 76 b 301 -17 469 14 395 -17 b 139 43 240 -17 186 3 b 68 206 92 83 68 137 b 138 369 68 277 91 331 b 301 426 184 407 238 426 b 524 336 396 426 470 396 l 524 457 b 476 560 524 500 508 535 b 354 597 445 585 404 597 b 149 504 274 597 205 566 l 100 576 b 368 688 171 650 261 688 b 556 632 445 688 507 669 b 628 461 604 595 628 538 l 628 0 b 522 -135 557 -35 522 -80 b 585 -204 522 -181 543 -204 b 656 -146 619 -204 643 -185 m 340 58 b 524 142 423 58 484 86 l 524 269 b 340 351 483 324 422 351 b 220 310 291 351 251 338 b 174 206 189 283 174 248 b 220 99 174 162 189 127 b 340 58 251 72 291 58 "},"Ć":{"ha":939,"x_min":0,"x_max":0,"o":"m 547 -17 b 208 117 412 -17 299 28 b 71 463 116 207 71 322 b 208 808 71 603 116 718 b 547 942 299 897 412 942 b 899 758 696 942 813 881 l 803 704 b 694 802 776 745 740 778 b 547 839 648 827 599 839 b 292 733 444 839 359 804 b 190 463 224 663 190 573 b 292 192 190 353 224 263 b 547 86 360 122 445 86 b 694 124 599 86 648 99 b 803 221 740 149 776 181 l 900 168 b 547 -17 810 45 693 -17 m 535 1011 l 456 1011 l 661 1211 l 769 1211 "},"ć":{"ha":689,"x_min":0,"x_max":0,"o":"m 400 -17 b 158 84 301 -17 220 17 b 65 336 96 151 65 235 b 158 588 65 437 96 521 b 400 688 220 654 301 688 b 646 571 504 688 586 649 l 576 508 b 406 594 535 566 478 594 b 238 522 336 594 280 570 b 174 336 195 473 174 411 b 238 149 174 260 195 198 b 406 76 280 101 336 76 b 576 164 476 76 533 106 l 646 100 b 400 -17 586 22 504 -17 m 394 772 l 315 772 l 521 972 l 629 972 "},"Ĉ":{"ha":939,"x_min":0,"x_max":0,"o":"m 547 -17 b 208 117 412 -17 299 28 b 71 463 116 207 71 322 b 208 808 71 603 116 718 b 547 942 299 897 412 942 b 899 758 696 942 813 881 l 803 704 b 694 802 776 745 740 778 b 547 839 648 827 599 839 b 292 733 444 839 359 804 b 190 463 224 663 190 573 b 292 192 190 353 224 263 b 547 86 360 122 445 86 b 694 124 599 86 648 99 b 803 221 740 149 776 181 l 900 168 b 547 -17 810 45 693 -17 m 661 1011 l 546 1158 l 435 1011 l 364 1011 l 496 1211 l 596 1211 l 732 1011 "},"ĉ":{"ha":689,"x_min":0,"x_max":0,"o":"m 400 -17 b 158 84 301 -17 220 17 b 65 336 96 151 65 235 b 158 588 65 437 96 521 b 400 688 220 654 301 688 b 646 571 504 688 586 649 l 576 508 b 406 594 535 566 478 594 b 238 522 336 594 280 570 b 174 336 195 473 174 411 b 238 149 174 260 195 198 b 406 76 280 101 336 76 b 576 164 476 76 533 106 l 646 100 b 400 -17 586 22 504 -17 m 519 772 l 404 919 l 293 772 l 222 772 l 354 972 l 454 972 l 590 772 "},"Ċ":{"ha":939,"x_min":0,"x_max":0,"o":"m 547 -17 b 208 117 412 -17 299 28 b 71 463 116 207 71 322 b 208 808 71 603 116 718 b 547 942 299 897 412 942 b 899 758 696 942 813 881 l 803 704 b 694 802 776 745 740 778 b 547 839 648 827 599 839 b 292 733 444 839 359 804 b 190 463 224 663 190 573 b 292 192 190 353 224 263 b 547 86 360 122 445 86 b 694 124 599 86 648 99 b 803 221 740 149 776 181 l 900 168 b 547 -17 810 45 693 -17 m 550 1010 b 504 1029 532 1010 517 1016 b 485 1075 491 1042 485 1057 b 504 1121 485 1093 491 1108 b 550 1140 517 1134 532 1140 b 597 1122 569 1140 584 1134 b 615 1075 609 1109 615 1094 b 597 1028 615 1056 609 1041 b 550 1010 584 1016 569 1010 "},"ċ":{"ha":689,"x_min":0,"x_max":0,"o":"m 400 -17 b 158 84 301 -17 220 17 b 65 336 96 151 65 235 b 158 588 65 437 96 521 b 400 688 220 654 301 688 b 646 571 504 688 586 649 l 576 508 b 406 594 535 566 478 594 b 238 522 336 594 280 570 b 174 336 195 473 174 411 b 238 149 174 260 195 198 b 406 76 280 101 336 76 b 576 164 476 76 533 106 l 646 100 b 400 -17 586 22 504 -17 m 403 796 b 357 815 385 796 370 802 b 338 861 344 828 338 844 b 357 907 338 879 344 894 b 403 926 370 920 385 926 b 449 908 421 926 437 920 b 468 861 462 895 468 880 b 449 815 468 843 462 827 b 403 796 437 802 421 796 "},"Č":{"ha":939,"x_min":0,"x_max":0,"o":"m 547 -17 b 208 117 412 -17 299 28 b 71 463 116 207 71 322 b 208 808 71 603 116 718 b 547 942 299 897 412 942 b 899 758 696 942 813 881 l 803 704 b 694 802 776 745 740 778 b 547 839 648 827 599 839 b 292 733 444 839 359 804 b 190 463 224 663 190 573 b 292 192 190 353 224 263 b 547 86 360 122 445 86 b 694 124 599 86 648 99 b 803 221 740 149 776 181 l 900 168 b 547 -17 810 45 693 -17 m 500 1011 l 364 1211 l 435 1211 l 550 1064 l 661 1211 l 732 1211 l 600 1011 "},"č":{"ha":689,"x_min":0,"x_max":0,"o":"m 400 -17 b 158 84 301 -17 220 17 b 65 336 96 151 65 235 b 158 588 65 437 96 521 b 400 688 220 654 301 688 b 646 571 504 688 586 649 l 576 508 b 406 594 535 566 478 594 b 238 522 336 594 280 570 b 174 336 195 473 174 411 b 238 149 174 260 195 198 b 406 76 280 101 336 76 b 576 164 476 76 533 106 l 646 100 b 400 -17 586 22 504 -17 m 358 772 l 222 972 l 293 972 l 408 825 l 519 972 l 590 972 l 458 772 "},"Ď":{"ha":972,"x_min":0,"x_max":0,"o":"m 108 0 l 108 926 l 425 926 b 769 794 567 926 681 882 b 900 463 856 706 900 596 b 769 131 900 328 856 218 b 425 0 682 44 568 0 m 425 103 b 685 206 534 103 621 137 b 781 463 749 274 781 360 b 686 721 781 566 749 652 b 425 824 623 789 536 824 l 224 824 l 224 103 l 425 103 m 440 1011 l 304 1211 l 375 1211 l 490 1064 l 601 1211 l 672 1211 l 540 1011 "},"ď":{"ha":894,"x_min":0,"x_max":0,"o":"m 590 0 l 590 100 b 364 -17 533 22 457 -17 b 148 78 275 -17 203 15 b 65 335 93 142 65 227 b 149 591 65 441 93 527 b 364 688 204 655 276 688 b 590 569 456 688 532 648 l 590 926 l 694 926 l 694 0 m 390 76 b 506 108 430 76 469 87 b 590 183 544 128 572 154 l 590 486 b 506 563 572 517 544 542 b 390 594 469 584 430 594 b 232 522 324 594 271 570 b 174 335 193 473 174 411 b 232 149 174 259 193 197 b 390 76 271 100 324 76 m 900 851 b 872 747 900 815 891 781 b 801 665 854 714 830 687 l 757 701 b 810 756 777 715 795 734 b 836 821 826 779 834 800 l 831 819 l 821 819 b 779 837 804 819 790 825 b 763 881 768 848 763 863 b 781 926 763 898 769 913 b 826 944 794 938 809 944 b 878 919 847 944 864 936 b 900 851 893 903 900 880 "},"Đ":{"ha":1011,"x_min":0,"x_max":0,"o":"m 147 0 l 147 415 l 14 415 l 14 500 l 147 500 l 147 926 l 464 926 b 808 794 606 926 720 882 b 939 463 895 706 939 596 b 808 131 939 328 895 218 b 464 0 721 44 606 0 m 263 415 l 263 103 l 464 103 b 724 206 573 103 660 137 b 819 463 788 274 819 360 b 725 721 819 566 788 652 b 464 824 662 789 575 824 l 263 824 l 263 500 l 497 500 l 497 415 "},"đ":{"ha":804,"x_min":0,"x_max":0,"o":"m 590 0 l 590 100 b 364 -17 533 22 457 -17 b 148 78 275 -17 203 15 b 65 335 93 142 65 227 b 149 591 65 441 93 527 b 364 688 204 655 276 688 b 590 569 456 688 532 648 l 590 743 l 372 743 l 372 810 l 590 810 l 590 926 l 694 926 l 694 810 l 789 810 l 789 743 l 694 743 l 694 0 m 390 76 b 506 108 430 76 469 87 b 590 183 544 128 572 154 l 590 486 b 506 563 572 517 544 542 b 390 594 469 584 430 594 b 232 522 324 594 271 570 b 174 335 193 473 174 411 b 232 149 174 259 193 197 b 390 76 271 100 324 76 "},"Ē":{"ha":790,"x_min":0,"x_max":0,"o":"m 108 0 l 108 926 l 715 926 l 715 824 l 224 824 l 224 525 l 706 525 l 706 422 l 224 422 l 224 103 l 715 103 l 715 0 m 156 1040 l 156 1107 l 660 1107 l 660 1040 "},"ē":{"ha":782,"x_min":0,"x_max":0,"o":"m 408 -17 b 161 81 307 -17 225 16 b 65 336 97 147 65 231 b 160 585 65 434 97 517 b 396 688 223 653 301 688 b 631 585 495 688 573 653 b 718 328 689 517 718 431 l 718 301 l 176 301 b 248 136 181 236 205 181 b 417 69 291 92 347 69 b 625 156 500 69 569 98 l 675 88 b 408 -17 604 18 515 -17 m 615 379 b 557 533 614 436 595 487 b 394 601 519 578 465 601 b 237 533 328 601 275 579 b 175 379 198 488 178 437 l 615 379 m 139 803 l 139 869 l 643 869 l 643 803 "},"Ĕ":{"ha":790,"x_min":0,"x_max":0,"o":"m 108 0 l 108 926 l 715 926 l 715 824 l 224 824 l 224 525 l 706 525 l 706 422 l 224 422 l 224 103 l 715 103 l 715 0 m 651 1125 b 408 1003 591 1044 510 1003 b 164 1125 307 1003 226 1044 l 217 1169 b 408 1069 264 1103 328 1069 b 601 1169 490 1069 554 1103 l 651 1125 "},"ĕ":{"ha":782,"x_min":0,"x_max":0,"o":"m 408 -17 b 161 81 307 -17 225 16 b 65 336 97 147 65 231 b 160 585 65 434 97 517 b 396 688 223 653 301 688 b 631 585 495 688 573 653 b 718 328 689 517 718 431 l 718 301 l 176 301 b 248 136 181 236 205 181 b 417 69 291 92 347 69 b 625 156 500 69 569 98 l 675 88 b 408 -17 604 18 515 -17 m 615 379 b 557 533 614 436 595 487 b 394 601 519 578 465 601 b 237 533 328 601 275 579 b 175 379 198 488 178 437 l 615 379 m 643 904 b 400 782 583 823 502 782 b 156 904 299 782 218 823 l 208 949 b 400 849 256 882 319 849 b 593 949 481 849 546 882 l 643 904 "},"Ė":{"ha":790,"x_min":0,"x_max":0,"o":"m 108 0 l 108 926 l 715 926 l 715 824 l 224 824 l 224 525 l 706 525 l 706 422 l 224 422 l 224 103 l 715 103 l 715 0 m 418 1010 b 372 1029 400 1010 385 1016 b 353 1075 359 1042 353 1057 b 372 1121 353 1093 359 1108 b 418 1140 385 1134 400 1140 b 464 1122 436 1140 451 1134 b 483 1075 477 1109 483 1094 b 464 1028 483 1056 477 1041 b 418 1010 451 1016 436 1010 "},"ė":{"ha":782,"x_min":0,"x_max":0,"o":"m 408 -17 b 161 81 307 -17 225 16 b 65 336 97 147 65 231 b 160 585 65 434 97 517 b 396 688 223 653 301 688 b 631 585 495 688 573 653 b 718 328 689 517 718 431 l 718 301 l 176 301 b 248 136 181 236 205 181 b 417 69 291 92 347 69 b 625 156 500 69 569 98 l 675 88 b 408 -17 604 18 515 -17 m 615 379 b 557 533 614 436 595 487 b 394 601 519 578 465 601 b 237 533 328 601 275 579 b 175 379 198 488 178 437 l 615 379 m 397 796 b 351 815 380 796 364 802 b 332 861 338 828 332 844 b 351 907 332 879 338 894 b 397 926 364 920 380 926 b 444 908 416 926 431 920 b 463 861 456 895 463 880 b 444 815 463 843 456 827 b 397 796 431 802 416 796 "},"Ę":{"ha":790,"x_min":0,"x_max":0,"o":"m 794 -175 b 672 -258 770 -231 730 -258 b 583 -228 637 -258 607 -248 b 547 -137 559 -207 547 -177 b 621 0 547 -85 572 -39 l 108 0 l 108 926 l 715 926 l 715 824 l 224 824 l 224 525 l 706 525 l 706 422 l 224 422 l 224 103 l 715 103 l 715 0 b 610 -135 645 -35 610 -80 b 672 -204 610 -181 631 -204 b 743 -146 706 -204 730 -185 "},"ę":{"ha":782,"x_min":0,"x_max":0,"o":"m 408 -17 b 161 81 307 -17 225 16 b 65 336 97 147 65 231 b 160 585 65 434 97 517 b 396 688 223 653 301 688 b 631 585 495 688 573 653 b 718 328 689 517 718 431 l 718 301 l 176 301 b 248 136 181 236 205 181 b 417 69 291 92 347 69 b 625 156 500 69 569 98 l 675 88 b 526 0 633 46 584 17 b 421 -135 456 -35 421 -80 b 483 -204 421 -181 442 -204 b 554 -146 518 -204 541 -185 l 606 -175 b 483 -258 581 -231 541 -258 b 394 -228 448 -258 419 -248 b 358 -137 370 -207 358 -177 b 413 -17 358 -93 376 -53 l 408 -17 m 615 379 b 557 533 614 436 595 487 b 394 601 519 578 465 601 b 237 533 328 601 275 579 b 175 379 198 488 178 437 l 615 379 "},"Ě":{"ha":790,"x_min":0,"x_max":0,"o":"m 108 0 l 108 926 l 715 926 l 715 824 l 224 824 l 224 525 l 706 525 l 706 422 l 224 422 l 224 103 l 715 103 l 715 0 m 365 1011 l 229 1211 l 300 1211 l 415 1064 l 526 1211 l 597 1211 l 465 1011 "},"ě":{"ha":782,"x_min":0,"x_max":0,"o":"m 408 -17 b 161 81 307 -17 225 16 b 65 336 97 147 65 231 b 160 585 65 434 97 517 b 396 688 223 653 301 688 b 631 585 495 688 573 653 b 718 328 689 517 718 431 l 718 301 l 176 301 b 248 136 181 236 205 181 b 417 69 291 92 347 69 b 625 156 500 69 569 98 l 675 88 b 408 -17 604 18 515 -17 m 615 379 b 557 533 614 436 595 487 b 394 601 519 578 465 601 b 237 533 328 601 275 579 b 175 379 198 488 178 437 l 615 379 m 349 772 l 213 972 l 283 972 l 399 825 l 510 972 l 581 972 l 449 772 "},"Ĝ":{"ha":990,"x_min":0,"x_max":0,"o":"m 547 -18 b 208 116 413 -18 300 27 b 71 463 117 205 71 321 b 208 808 71 604 116 719 b 547 942 299 897 412 942 b 907 769 694 942 814 884 l 815 711 b 699 804 786 750 747 781 b 547 839 652 827 601 839 b 292 733 444 839 359 804 b 190 463 224 663 190 573 b 292 192 190 353 224 263 b 547 86 360 122 445 86 b 690 116 598 86 646 96 b 797 186 735 136 770 159 l 797 374 l 478 374 l 478 476 l 911 476 l 911 143 b 547 -18 816 36 694 -18 m 667 1011 l 551 1158 l 440 1011 l 369 1011 l 501 1211 l 601 1211 l 738 1011 "},"ĝ":{"ha":799,"x_min":0,"x_max":0,"o":"m 374 -272 b 224 -250 315 -272 265 -265 b 103 -171 182 -235 142 -209 l 156 -96 b 374 -186 206 -156 279 -186 b 528 -138 435 -186 486 -170 b 590 10 569 -106 590 -57 l 590 111 b 492 24 564 75 531 46 b 364 -8 452 3 409 -8 b 148 85 275 -8 203 23 b 65 339 93 148 65 232 b 148 593 65 445 93 530 b 364 688 203 656 275 688 b 590 569 456 688 532 648 l 590 671 l 694 671 l 694 10 b 603 -205 694 -88 664 -160 b 374 -272 543 -250 466 -272 m 390 85 b 506 116 430 85 469 95 b 590 193 543 137 571 163 l 590 488 b 506 563 571 517 543 542 b 390 594 469 584 430 594 b 232 524 324 594 271 571 b 174 339 193 476 174 415 b 232 156 174 264 193 203 b 390 85 271 108 324 85 m 517 763 l 401 910 l 290 763 l 219 763 l 351 963 l 451 963 l 588 763 "},"Ğ":{"ha":990,"x_min":0,"x_max":0,"o":"m 547 -18 b 208 116 413 -18 300 27 b 71 463 117 205 71 321 b 208 808 71 604 116 719 b 547 942 299 897 412 942 b 907 769 694 942 814 884 l 815 711 b 699 804 786 750 747 781 b 547 839 652 827 601 839 b 292 733 444 839 359 804 b 190 463 224 663 190 573 b 292 192 190 353 224 263 b 547 86 360 122 445 86 b 690 116 598 86 646 96 b 797 186 735 136 770 159 l 797 374 l 478 374 l 478 476 l 911 476 l 911 143 b 547 -18 816 36 694 -18 m 794 1125 b 551 1003 734 1044 653 1003 b 307 1125 450 1003 369 1044 l 360 1169 b 551 1069 407 1103 471 1069 b 744 1169 633 1069 697 1103 l 794 1125 "},"ğ":{"ha":799,"x_min":0,"x_max":0,"o":"m 374 -272 b 224 -250 315 -272 265 -265 b 103 -171 182 -235 142 -209 l 156 -96 b 374 -186 206 -156 279 -186 b 528 -138 435 -186 486 -170 b 590 10 569 -106 590 -57 l 590 111 b 492 24 564 75 531 46 b 364 -8 452 3 409 -8 b 148 85 275 -8 203 23 b 65 339 93 148 65 232 b 148 593 65 445 93 530 b 364 688 203 656 275 688 b 590 569 456 688 532 648 l 590 671 l 694 671 l 694 10 b 603 -205 694 -88 664 -160 b 374 -272 543 -250 466 -272 m 390 85 b 506 116 430 85 469 95 b 590 193 543 137 571 163 l 590 488 b 506 563 571 517 543 542 b 390 594 469 584 430 594 b 232 524 324 594 271 571 b 174 339 193 476 174 415 b 232 156 174 264 193 203 b 390 85 271 108 324 85 m 640 904 b 397 782 580 823 499 782 b 153 904 296 782 215 823 l 206 949 b 397 849 253 882 317 849 b 590 949 479 849 543 882 l 640 904 "},"Ġ":{"ha":990,"x_min":0,"x_max":0,"o":"m 547 -18 b 208 116 413 -18 300 27 b 71 463 117 205 71 321 b 208 808 71 604 116 719 b 547 942 299 897 412 942 b 907 769 694 942 814 884 l 815 711 b 699 804 786 750 747 781 b 547 839 652 827 601 839 b 292 733 444 839 359 804 b 190 463 224 663 190 573 b 292 192 190 353 224 263 b 547 86 360 122 445 86 b 690 116 598 86 646 96 b 797 186 735 136 770 159 l 797 374 l 478 374 l 478 476 l 911 476 l 911 143 b 547 -18 816 36 694 -18 m 550 1010 b 504 1029 532 1010 517 1016 b 485 1075 491 1042 485 1057 b 504 1121 485 1093 491 1108 b 550 1140 517 1134 532 1140 b 597 1122 569 1140 584 1134 b 615 1075 609 1109 615 1094 b 597 1028 615 1056 609 1041 b 550 1010 584 1016 569 1010 "},"ġ":{"ha":799,"x_min":0,"x_max":0,"o":"m 374 -272 b 224 -250 315 -272 265 -265 b 103 -171 182 -235 142 -209 l 156 -96 b 374 -186 206 -156 279 -186 b 528 -138 435 -186 486 -170 b 590 10 569 -106 590 -57 l 590 111 b 492 24 564 75 531 46 b 364 -8 452 3 409 -8 b 148 85 275 -8 203 23 b 65 339 93 148 65 232 b 148 593 65 445 93 530 b 364 688 203 656 275 688 b 590 569 456 688 532 648 l 590 671 l 694 671 l 694 10 b 603 -205 694 -88 664 -160 b 374 -272 543 -250 466 -272 m 390 85 b 506 116 430 85 469 95 b 590 193 543 137 571 163 l 590 488 b 506 563 571 517 543 542 b 390 594 469 584 430 594 b 232 524 324 594 271 571 b 174 339 193 476 174 415 b 232 156 174 264 193 203 b 390 85 271 108 324 85 m 401 796 b 356 815 384 796 369 802 b 336 861 343 828 336 844 b 356 907 336 879 343 894 b 401 926 369 920 384 926 b 447 908 419 926 434 920 b 467 861 460 895 467 880 b 447 815 467 843 460 827 b 401 796 434 802 419 796 "},"Ģ":{"ha":990,"x_min":0,"x_max":0,"o":"m 547 -18 b 208 116 413 -18 300 27 b 71 463 117 205 71 321 b 208 808 71 604 116 719 b 547 942 299 897 412 942 b 907 769 694 942 814 884 l 815 711 b 699 804 786 750 747 781 b 547 839 652 827 601 839 b 292 733 444 839 359 804 b 190 463 224 663 190 573 b 292 192 190 353 224 263 b 547 86 360 122 445 86 b 690 116 598 86 646 96 b 797 186 735 136 770 159 l 797 374 l 478 374 l 478 476 l 911 476 l 911 143 b 547 -18 816 36 694 -18 m 624 -192 b 596 -296 624 -228 614 -262 b 525 -378 577 -329 554 -356 l 481 -342 b 534 -287 501 -328 519 -309 b 560 -222 549 -264 558 -243 l 553 -222 b 544 -224 549 -223 546 -224 b 503 -206 528 -224 514 -218 b 486 -162 492 -195 486 -180 b 505 -117 486 -145 492 -130 b 550 -99 517 -105 532 -99 b 602 -124 570 -99 588 -107 b 624 -192 616 -140 624 -163 "},"ģ":{"ha":799,"x_min":0,"x_max":0,"o":"m 324 861 b 351 974 324 901 333 939 b 419 1057 369 1010 392 1038 l 465 1019 b 411 967 445 1006 427 989 b 386 904 395 944 387 924 b 393 906 388 905 390 906 b 436 887 409 906 423 899 b 456 842 449 874 456 859 b 437 797 456 825 449 810 b 390 778 424 784 409 778 b 344 799 373 778 357 785 b 324 861 330 814 324 834 m 374 -272 b 224 -250 315 -272 265 -265 b 103 -171 182 -235 142 -209 l 156 -96 b 374 -186 206 -156 279 -186 b 528 -138 435 -186 486 -170 b 590 10 569 -106 590 -57 l 590 111 b 492 24 564 75 531 46 b 364 -8 452 3 409 -8 b 148 85 275 -8 203 23 b 65 339 93 148 65 232 b 148 593 65 445 93 530 b 364 688 203 656 275 688 b 590 569 456 688 532 648 l 590 671 l 694 671 l 694 10 b 603 -205 694 -88 664 -160 b 374 -272 543 -250 466 -272 m 390 85 b 506 116 430 85 469 95 b 590 193 543 137 571 163 l 590 488 b 506 563 571 517 543 542 b 390 594 469 584 430 594 b 232 524 324 594 271 571 b 174 339 193 476 174 415 b 232 156 174 264 193 203 b 390 85 271 108 324 85 "},"Ĥ":{"ha":989,"x_min":0,"x_max":0,"o":"m 765 0 l 765 425 l 224 425 l 224 0 l 108 0 l 108 926 l 224 926 l 224 528 l 765 528 l 765 926 l 881 926 l 881 0 m 604 1011 l 489 1158 l 378 1011 l 307 1011 l 439 1211 l 539 1211 l 675 1011 "},"ĥ":{"ha":767,"x_min":0,"x_max":0,"o":"m 558 0 l 558 442 b 519 560 558 498 545 538 b 407 594 494 583 456 594 b 295 564 369 594 332 584 b 210 490 259 544 230 519 l 210 0 l 106 0 l 106 926 l 210 926 l 210 574 b 313 654 235 605 269 632 b 449 688 356 676 401 688 b 663 474 591 688 663 616 l 663 0 m 272 1011 l 157 1158 l 46 1011 l -25 1011 l 107 1211 l 207 1211 l 343 1011 "},"Ħ":{"ha":1015,"x_min":0,"x_max":0,"o":"m 779 0 l 779 425 l 238 425 l 238 0 l 122 0 l 122 696 l 14 696 l 14 763 l 122 763 l 122 926 l 238 926 l 238 763 l 779 763 l 779 926 l 894 926 l 894 763 l 1001 763 l 1001 696 l 894 696 l 894 0 m 779 528 l 779 696 l 238 696 l 238 528 "},"ħ":{"ha":771,"x_min":0,"x_max":0,"o":"m 214 743 l 214 574 b 317 654 239 605 273 632 b 453 688 360 676 406 688 b 667 474 595 688 667 616 l 667 0 l 563 0 l 563 442 b 524 560 563 498 550 538 b 411 594 498 583 460 594 b 299 564 373 594 336 584 b 214 490 263 544 234 519 l 214 0 l 110 0 l 110 743 l 14 743 l 14 810 l 110 810 l 110 926 l 214 926 l 214 810 l 429 810 l 429 743 "},"Ĩ":{"ha":332,"x_min":0,"x_max":0,"o":"m 108 0 l 108 926 l 224 926 l 224 0 m 249 1008 b 190 1028 226 1008 207 1015 b 151 1072 172 1042 159 1056 b 119 1116 142 1088 131 1103 b 78 1136 106 1129 93 1136 b 30 1106 58 1136 42 1126 b 11 1017 17 1086 11 1056 l -51 1017 b -16 1151 -51 1072 -40 1117 b 83 1203 8 1186 41 1203 b 142 1183 106 1203 125 1196 b 181 1139 159 1169 172 1155 b 213 1095 190 1123 201 1109 b 254 1075 226 1082 239 1075 b 302 1105 274 1075 290 1085 b 321 1194 315 1125 321 1155 l 383 1194 b 348 1060 383 1139 372 1094 b 249 1008 324 1025 291 1008 "},"ĩ":{"ha":313,"x_min":0,"x_max":0,"o":"m 104 0 l 104 671 l 208 671 l 208 0 m 239 751 b 180 772 217 751 197 758 b 141 815 163 785 150 800 b 109 859 132 831 122 846 b 68 879 97 872 83 879 b 20 849 49 879 33 869 b 1 760 8 829 1 800 l -61 760 b -26 894 -61 815 -49 860 b 74 946 -2 929 31 946 b 133 926 96 946 116 939 b 172 882 150 912 163 898 b 203 838 180 866 191 852 b 244 818 216 825 230 818 b 292 848 264 818 280 828 b 311 938 305 868 311 898 l 374 938 b 338 803 374 882 362 837 b 239 751 315 769 281 751 "},"Ī":{"ha":332,"x_min":0,"x_max":0,"o":"m 108 0 l 108 926 l 224 926 l 224 0 m -86 1040 l -86 1107 l 418 1107 l 418 1040 "},"ī":{"ha":313,"x_min":0,"x_max":0,"o":"m 104 0 l 104 671 l 208 671 l 208 0 m -94 803 l -94 869 l 410 869 l 410 803 "},"Ĭ":{"ha":332,"x_min":0,"x_max":0,"o":"m 108 0 l 108 926 l 224 926 l 224 0 m 413 1125 b 169 1003 352 1044 271 1003 b -75 1125 69 1003 -13 1044 l -22 1169 b 169 1069 25 1103 89 1069 b 363 1169 251 1069 315 1103 l 413 1125 "},"ĭ":{"ha":313,"x_min":0,"x_max":0,"o":"m 104 0 l 104 671 l 208 671 l 208 0 m 401 904 b 158 782 341 823 260 782 b -86 904 57 782 -24 823 l -33 949 b 158 849 14 882 78 849 b 351 949 240 849 304 882 l 401 904 "},"Į":{"ha":332,"x_min":0,"x_max":0,"o":"m 303 -175 b 181 -258 279 -231 238 -258 b 92 -228 145 -258 116 -248 b 56 -137 68 -207 56 -177 b 129 0 56 -85 80 -39 l 108 0 l 108 926 l 224 926 l 224 0 b 118 -135 153 -35 118 -80 b 181 -204 118 -181 139 -204 b 251 -146 215 -204 238 -185 "},"į":{"ha":313,"x_min":0,"x_max":0,"o":"m 288 -175 b 165 -258 263 -231 223 -258 b 76 -228 130 -258 100 -248 b 40 -137 52 -207 40 -177 b 114 0 40 -85 65 -39 l 104 0 l 104 671 l 208 671 l 208 0 b 103 -135 138 -35 103 -80 b 165 -204 103 -181 124 -204 b 236 -146 200 -204 223 -185 m 157 767 b 107 787 138 767 121 773 b 86 836 93 800 86 817 b 107 886 86 856 93 872 b 157 907 121 900 138 907 b 206 886 176 907 193 900 b 226 836 220 872 226 856 b 206 787 226 817 220 800 b 157 767 193 773 176 767 "},"İ":{"ha":332,"x_min":0,"x_max":0,"o":"m 108 0 l 108 926 l 224 926 l 224 0 m 167 1010 b 121 1029 149 1010 134 1016 b 101 1075 108 1042 101 1057 b 121 1121 101 1093 108 1108 b 167 1140 134 1134 149 1140 b 213 1122 185 1140 201 1134 b 232 1075 226 1109 232 1094 b 213 1028 232 1056 226 1041 b 167 1010 201 1016 185 1010 "},"ı":{"ha":313,"x_min":0,"x_max":0,"o":"m 104 0 l 104 671 l 208 671 l 208 0 "},"Ĳ":{"ha":992,"x_min":0,"x_max":0,"o":"m 108 0 l 108 926 l 224 926 l 224 0 m 589 -17 b 347 90 489 -17 408 19 l 408 178 b 582 86 457 117 515 86 b 717 140 638 86 684 104 b 768 281 751 175 768 222 l 768 926 l 883 926 l 883 279 b 801 59 883 183 856 109 b 589 -17 747 9 676 -17 "},"ĳ":{"ha":626,"x_min":0,"x_max":0,"o":"m 157 767 b 107 787 138 767 121 773 b 86 836 93 800 86 817 b 107 886 86 856 93 872 b 157 907 121 900 138 907 b 206 886 176 907 193 900 b 226 836 220 872 226 856 b 206 787 226 817 220 800 b 157 767 193 773 176 767 m 104 0 l 104 671 l 208 671 l 208 0 m 469 767 b 419 787 450 767 433 773 b 399 836 406 800 399 817 b 419 886 399 856 406 872 b 469 907 433 900 450 907 b 519 886 489 907 505 900 b 539 836 532 872 539 856 b 519 787 539 817 532 800 b 469 767 505 773 489 767 m 322 -272 b 176 -222 267 -272 218 -256 l 213 -144 b 308 -186 240 -172 272 -186 b 388 -156 342 -186 368 -176 b 417 -65 407 -136 417 -106 l 417 671 l 521 671 l 521 -65 b 469 -219 521 -132 504 -183 b 322 -272 435 -254 386 -272 "},"Ĵ":{"ha":660,"x_min":0,"x_max":0,"o":"m 257 -17 b 15 90 157 -17 76 19 l 76 178 b 250 86 125 117 183 86 b 385 140 306 86 352 104 b 436 281 419 175 436 222 l 436 926 l 551 926 l 551 279 b 469 59 551 183 524 109 b 257 -17 415 9 344 -17 m 607 1011 l 492 1158 l 381 1011 l 310 1011 l 442 1211 l 542 1211 l 678 1011 "},"ĵ":{"ha":313,"x_min":0,"x_max":0,"o":"m 10 -272 b -136 -222 -46 -272 -94 -256 l -100 -137 b -4 -179 -72 -165 -40 -179 b 74 -150 28 -179 54 -169 b 104 -65 94 -131 104 -102 l 104 671 l 208 671 l 208 -65 b 157 -219 208 -132 191 -183 b 10 -272 123 -254 74 -272 m 272 772 l 157 919 l 46 772 l -25 772 l 107 972 l 207 972 l 343 772 "},"Ķ":{"ha":842,"x_min":0,"x_max":0,"o":"m 668 0 l 317 417 l 224 311 l 224 0 l 108 0 l 108 926 l 224 926 l 224 449 l 633 926 l 778 926 l 392 488 l 813 0 m 500 -192 b 472 -296 500 -228 491 -262 b 401 -378 454 -329 430 -356 l 357 -342 b 410 -287 377 -328 395 -309 b 436 -222 426 -264 434 -243 l 431 -222 b 421 -224 426 -223 423 -224 b 379 -206 404 -224 390 -218 b 363 -162 368 -195 363 -180 b 381 -117 363 -145 369 -130 b 426 -99 394 -105 409 -99 b 478 -124 447 -99 464 -107 b 500 -192 493 -140 500 -163 "},"ķ":{"ha":714,"x_min":0,"x_max":0,"o":"m 561 0 l 321 301 l 208 192 l 208 0 l 104 0 l 104 926 l 208 926 l 208 314 l 561 671 l 693 671 l 396 367 l 694 0 m 436 -192 b 408 -296 436 -228 427 -262 b 338 -378 390 -329 366 -356 l 293 -342 b 347 -287 313 -328 331 -309 b 372 -222 362 -264 370 -243 l 367 -222 b 357 -224 362 -223 359 -224 b 315 -206 340 -224 326 -218 b 299 -162 304 -195 299 -180 b 317 -117 299 -145 305 -130 b 363 -99 330 -105 345 -99 b 415 -124 383 -99 400 -107 b 436 -192 429 -140 436 -163 "},"ĸ":{"ha":714,"x_min":0,"x_max":0,"o":"m 561 0 l 321 301 l 208 192 l 208 0 l 104 0 l 104 671 l 208 671 l 208 314 l 561 671 l 693 671 l 396 367 l 694 0 "},"Ĺ":{"ha":685,"x_min":0,"x_max":0,"o":"m 93 0 l 93 926 l 208 926 l 208 103 l 639 103 l 639 0 m 353 1011 l 274 1011 l 479 1211 l 588 1211 "},"ĺ":{"ha":313,"x_min":0,"x_max":0,"o":"m 104 0 l 104 926 l 208 926 l 208 0 m 144 1011 l 65 1011 l 271 1211 l 379 1211 "},"Ļ":{"ha":685,"x_min":0,"x_max":0,"o":"m 93 0 l 93 926 l 208 926 l 208 103 l 639 103 l 639 0 m 419 -192 b 392 -296 419 -228 410 -262 b 321 -378 373 -329 350 -356 l 276 -342 b 330 -287 297 -328 315 -309 b 356 -222 345 -264 354 -243 l 350 -222 b 340 -224 345 -223 342 -224 b 299 -206 324 -224 310 -218 b 282 -162 288 -195 282 -180 b 301 -117 282 -145 288 -130 b 346 -99 313 -105 328 -99 b 398 -124 366 -99 384 -107 b 419 -192 412 -140 419 -163 "},"ļ":{"ha":313,"x_min":0,"x_max":0,"o":"m 104 0 l 104 926 l 208 926 l 208 0 m 236 -192 b 208 -296 236 -228 227 -262 b 138 -378 190 -329 166 -356 l 93 -342 b 147 -287 113 -328 131 -309 b 172 -222 162 -264 170 -243 l 167 -222 b 157 -224 162 -223 159 -224 b 115 -206 140 -224 126 -218 b 99 -162 104 -195 99 -180 b 117 -117 99 -145 105 -130 b 163 -99 130 -105 145 -99 b 215 -124 183 -99 200 -107 b 236 -192 229 -140 236 -163 "},"Ľ":{"ha":685,"x_min":0,"x_max":0,"o":"m 93 0 l 93 926 l 208 926 l 208 103 l 639 103 l 639 0 m 476 851 b 449 747 476 815 467 781 b 378 665 430 714 406 687 l 333 701 b 387 756 354 715 372 734 b 413 821 402 779 411 800 l 406 819 l 397 819 b 356 837 381 819 367 825 b 339 881 344 848 339 863 b 358 926 339 898 345 913 b 403 944 370 938 385 944 b 455 919 423 944 441 936 b 476 851 469 903 476 880 "},"ľ":{"ha":404,"x_min":0,"x_max":0,"o":"m 104 0 l 104 926 l 208 926 l 208 0 m 432 851 b 404 747 432 815 423 781 b 333 665 386 714 362 687 l 289 701 b 342 756 309 715 327 734 b 368 821 358 779 366 800 l 361 819 l 353 819 b 311 837 336 819 322 825 b 294 881 300 848 294 863 b 313 926 294 898 301 913 b 358 944 326 938 341 944 b 410 919 379 944 396 936 b 432 851 425 903 432 880 "},"Ŀ":{"ha":711,"x_min":0,"x_max":0,"o":"m 93 0 l 93 926 l 208 926 l 208 103 l 639 103 l 639 0 m 586 475 b 564 422 586 455 579 437 b 510 399 549 406 531 399 b 456 422 488 399 470 406 b 433 475 441 437 433 455 b 456 528 433 495 441 513 b 510 550 472 543 489 550 b 563 528 530 550 548 543 b 586 475 578 513 586 495 "},"ŀ":{"ha":426,"x_min":0,"x_max":0,"o":"m 104 0 l 104 926 l 208 926 l 208 0 m 446 340 b 423 286 446 319 438 301 b 369 264 408 271 390 264 b 316 286 349 264 331 271 b 293 340 301 301 293 319 b 316 393 293 361 301 378 b 369 415 331 408 349 415 b 423 393 390 415 408 408 b 446 340 438 378 446 361 "},"Ł":{"ha":728,"x_min":0,"x_max":0,"o":"m 14 407 l 136 478 l 136 926 l 251 926 l 251 544 l 385 621 l 385 521 l 251 444 l 251 103 l 682 103 l 682 0 l 136 0 l 136 378 l 14 307 "},"ł":{"ha":399,"x_min":0,"x_max":0,"o":"m 14 400 l 147 476 l 147 926 l 251 926 l 251 536 l 383 611 l 383 528 l 251 453 l 251 0 l 147 0 l 147 393 l 14 317 "},"Ń":{"ha":983,"x_min":0,"x_max":0,"o":"m 764 0 l 224 739 l 224 0 l 108 0 l 108 926 l 226 926 l 760 203 l 760 926 l 875 926 l 875 0 m 479 1011 l 400 1011 l 606 1211 l 714 1211 "},"ń":{"ha":767,"x_min":0,"x_max":0,"o":"m 563 0 l 563 439 b 524 559 563 495 550 535 b 411 594 498 583 460 594 b 299 564 372 594 335 584 b 213 490 263 544 234 519 l 213 0 l 108 0 l 108 671 l 213 671 l 213 574 b 317 654 238 605 273 632 b 453 688 360 676 406 688 b 665 471 594 688 665 615 l 665 0 m 371 772 l 292 772 l 497 972 l 606 972 "},"Ņ":{"ha":983,"x_min":0,"x_max":0,"o":"m 764 0 l 224 739 l 224 0 l 108 0 l 108 926 l 226 926 l 760 203 l 760 926 l 875 926 l 875 0 m 571 -192 b 543 -296 571 -228 562 -262 b 472 -378 525 -329 501 -356 l 428 -342 b 481 -287 448 -328 466 -309 b 507 -222 497 -264 505 -243 l 500 -222 b 492 -224 496 -223 494 -224 b 450 -206 475 -224 461 -218 b 433 -162 439 -195 433 -180 b 452 -117 433 -145 440 -130 b 497 -99 465 -105 480 -99 b 549 -124 518 -99 535 -107 b 571 -192 564 -140 571 -163 "},"ņ":{"ha":767,"x_min":0,"x_max":0,"o":"m 563 0 l 563 439 b 524 559 563 495 550 535 b 411 594 498 583 460 594 b 299 564 372 594 335 584 b 213 490 263 544 234 519 l 213 0 l 108 0 l 108 671 l 213 671 l 213 574 b 317 654 238 605 273 632 b 453 688 360 676 406 688 b 665 471 594 688 665 615 l 665 0 m 463 -192 b 435 -296 463 -228 453 -262 b 364 -378 416 -329 393 -356 l 319 -342 b 373 -287 340 -328 358 -309 b 399 -222 388 -264 397 -243 l 392 -222 b 383 -224 388 -223 385 -224 b 342 -206 367 -224 353 -218 b 325 -162 331 -195 325 -180 b 344 -117 325 -145 331 -130 b 389 -99 356 -105 371 -99 b 441 -124 409 -99 427 -107 b 463 -192 455 -140 463 -163 "},"Ň":{"ha":983,"x_min":0,"x_max":0,"o":"m 764 0 l 224 739 l 224 0 l 108 0 l 108 926 l 226 926 l 760 203 l 760 926 l 875 926 l 875 0 m 443 1011 l 307 1211 l 378 1211 l 493 1064 l 604 1211 l 675 1211 l 543 1011 "},"ň":{"ha":767,"x_min":0,"x_max":0,"o":"m 563 0 l 563 439 b 524 559 563 495 550 535 b 411 594 498 583 460 594 b 299 564 372 594 335 584 b 213 490 263 544 234 519 l 213 0 l 108 0 l 108 671 l 213 671 l 213 574 b 317 654 238 605 273 632 b 453 688 360 676 406 688 b 665 471 594 688 665 615 l 665 0 m 335 772 l 199 972 l 269 972 l 385 825 l 496 972 l 567 972 l 435 772 "},"ŉ":{"ha":767,"x_min":0,"x_max":0,"o":"m 563 0 l 563 439 b 524 559 563 495 550 535 b 411 594 498 583 460 594 b 299 564 372 594 335 584 b 213 490 263 544 234 519 l 213 0 l 108 0 l 108 671 l 213 671 l 213 574 b 317 654 238 605 273 632 b 453 688 360 676 406 688 b 665 471 594 688 665 615 l 665 0 m 224 939 b 196 835 224 903 214 868 b 125 753 177 801 154 774 l 81 789 b 134 844 101 803 119 821 b 160 908 149 866 158 888 l 153 908 b 144 907 149 907 146 907 b 103 924 128 907 114 913 b 86 968 92 936 86 950 b 105 1013 86 986 92 1001 b 150 1032 117 1026 132 1032 b 202 1007 170 1032 188 1024 b 224 939 216 990 224 968 "},"Ŋ":{"ha":983,"x_min":0,"x_max":0,"o":"m 581 -272 b 339 -165 481 -272 400 -237 l 400 -78 b 574 -169 449 -139 507 -169 b 704 -122 627 -169 671 -153 b 758 6 738 -90 756 -47 l 224 739 l 224 0 l 108 0 l 108 926 l 226 926 l 760 203 l 760 926 l 875 926 l 875 21 b 793 -198 875 -75 848 -148 b 581 -272 738 -247 668 -272 "},"ŋ":{"ha":767,"x_min":0,"x_max":0,"o":"m 463 -272 b 317 -222 408 -272 359 -256 l 353 -137 b 449 -179 381 -165 413 -179 b 528 -150 481 -179 507 -169 b 558 -65 548 -131 558 -102 l 558 439 b 519 559 558 495 545 535 b 407 594 494 583 456 594 b 294 564 368 594 331 584 b 208 490 258 544 230 519 l 208 0 l 104 0 l 104 671 l 208 671 l 208 574 b 313 654 234 605 269 632 b 449 688 356 676 401 688 b 661 471 590 688 661 615 l 661 -65 b 610 -219 661 -132 644 -183 b 463 -272 575 -254 526 -272 "},"Ō":{"ha":1063,"x_min":0,"x_max":0,"o":"m 531 -17 b 199 119 395 -17 285 29 b 71 463 114 210 71 325 b 199 806 71 600 114 715 b 531 942 285 896 395 942 b 863 806 666 942 776 896 b 992 463 949 715 992 600 b 863 119 992 325 949 210 b 531 -17 776 29 666 -17 m 531 86 b 778 192 632 86 715 122 b 872 463 841 263 872 353 b 778 733 872 572 841 662 b 531 839 715 803 632 839 b 283 733 428 839 345 804 b 190 463 221 663 190 573 b 283 192 190 353 221 263 b 531 86 345 122 428 86 m 278 1040 l 278 1107 l 782 1107 l 782 1040 "},"ō":{"ha":794,"x_min":0,"x_max":0,"o":"m 397 -17 b 156 85 297 -17 217 17 b 65 336 96 152 65 236 b 156 587 65 436 96 520 b 397 688 217 654 297 688 b 638 587 497 688 578 654 b 729 336 699 520 729 436 b 638 85 729 236 699 152 b 397 -17 578 17 497 -17 m 397 76 b 560 152 466 76 520 102 b 619 336 600 203 619 264 b 560 519 619 408 600 469 b 397 594 520 569 466 594 b 235 519 329 594 275 569 b 175 336 195 469 175 408 b 235 152 175 264 195 203 b 397 76 275 102 329 76 m 144 803 l 144 869 l 649 869 l 649 803 "},"Ŏ":{"ha":1063,"x_min":0,"x_max":0,"o":"m 531 -17 b 199 119 395 -17 285 29 b 71 463 114 210 71 325 b 199 806 71 600 114 715 b 531 942 285 896 395 942 b 863 806 666 942 776 896 b 992 463 949 715 992 600 b 863 119 992 325 949 210 b 531 -17 776 29 666 -17 m 531 86 b 778 192 632 86 715 122 b 872 463 841 263 872 353 b 778 733 872 572 841 662 b 531 839 715 803 632 839 b 283 733 428 839 345 804 b 190 463 221 663 190 573 b 283 192 190 353 221 263 b 531 86 345 122 428 86 m 774 1125 b 531 1003 713 1044 632 1003 b 286 1125 430 1003 348 1044 l 339 1169 b 531 1069 386 1103 450 1069 b 724 1169 612 1069 676 1103 l 774 1125 "},"ŏ":{"ha":794,"x_min":0,"x_max":0,"o":"m 397 -17 b 156 85 297 -17 217 17 b 65 336 96 152 65 236 b 156 587 65 436 96 520 b 397 688 217 654 297 688 b 638 587 497 688 578 654 b 729 336 699 520 729 436 b 638 85 729 236 699 152 b 397 -17 578 17 497 -17 m 397 76 b 560 152 466 76 520 102 b 619 336 600 203 619 264 b 560 519 619 408 600 469 b 397 594 520 569 466 594 b 235 519 329 594 275 569 b 175 336 195 469 175 408 b 235 152 175 264 195 203 b 397 76 275 102 329 76 m 642 904 b 399 782 581 823 500 782 b 154 904 298 782 216 823 l 207 949 b 399 849 254 882 318 849 b 592 949 480 849 544 882 l 642 904 "},"Ő":{"ha":1063,"x_min":0,"x_max":0,"o":"m 531 -17 b 199 119 395 -17 285 29 b 71 463 114 210 71 325 b 199 806 71 600 114 715 b 531 942 285 896 395 942 b 863 806 666 942 776 896 b 992 463 949 715 992 600 b 863 119 992 325 949 210 b 531 -17 776 29 666 -17 m 531 86 b 778 192 632 86 715 122 b 872 463 841 263 872 353 b 778 733 872 572 841 662 b 531 839 715 803 632 839 b 283 733 428 839 345 804 b 190 463 221 663 190 573 b 283 192 190 353 221 263 b 531 86 345 122 428 86 m 444 1011 l 378 1011 l 508 1211 l 604 1211 m 642 1011 l 575 1011 l 706 1211 l 801 1211 "},"ő":{"ha":794,"x_min":0,"x_max":0,"o":"m 397 -17 b 156 85 297 -17 217 17 b 65 336 96 152 65 236 b 156 587 65 436 96 520 b 397 688 217 654 297 688 b 638 587 497 688 578 654 b 729 336 699 520 729 436 b 638 85 729 236 699 152 b 397 -17 578 17 497 -17 m 397 76 b 560 152 466 76 520 102 b 619 336 600 203 619 264 b 560 519 619 408 600 469 b 397 594 520 569 466 594 b 235 519 329 594 275 569 b 175 336 195 469 175 408 b 235 152 175 264 195 203 b 397 76 275 102 329 76 m 311 772 l 244 772 l 375 972 l 471 972 m 508 772 l 442 772 l 572 972 l 668 972 "},"Œ":{"ha":1535,"x_min":0,"x_max":0,"o":"m 853 0 l 853 168 b 713 31 819 109 773 63 b 521 -17 652 -1 588 -17 b 196 119 388 -17 279 29 b 71 463 113 210 71 325 b 196 805 71 600 113 715 b 521 940 279 895 388 940 b 713 893 588 940 652 925 b 853 758 773 862 819 817 l 853 926 l 1460 926 l 1460 824 l 968 824 l 968 525 l 1450 525 l 1450 422 l 968 422 l 968 103 l 1460 103 l 1460 0 m 853 615 b 728 781 826 688 784 743 b 535 838 672 819 608 838 b 284 733 430 838 347 803 b 190 463 222 663 190 573 b 284 192 190 353 222 263 b 535 86 347 122 430 86 b 728 144 607 86 671 105 b 853 311 784 182 826 238 "},"œ":{"ha":1336,"x_min":0,"x_max":0,"o":"m 731 301 b 802 136 735 236 759 181 b 971 69 845 92 901 69 b 1179 156 1054 69 1124 98 l 1229 88 b 963 -17 1158 18 1069 -17 b 778 41 886 -17 824 3 b 674 175 731 79 697 124 b 397 -17 616 47 524 -17 b 156 85 297 -17 217 17 b 65 336 96 152 65 236 b 156 587 65 436 96 520 b 397 688 217 654 297 688 b 506 668 436 688 472 681 b 588 617 539 655 566 638 b 641 557 610 597 628 576 b 675 496 654 538 666 517 b 774 628 695 544 728 588 b 950 688 820 668 879 688 b 1185 585 1049 688 1128 653 b 1272 328 1243 517 1272 431 l 1272 301 m 1171 379 b 1111 533 1169 436 1149 487 b 950 601 1073 578 1019 601 b 792 533 883 601 831 579 b 729 379 753 488 732 437 m 619 336 b 559 520 619 409 599 471 b 397 594 519 570 465 594 b 235 520 330 594 276 570 b 175 336 195 471 175 409 b 235 150 175 262 195 200 b 397 75 276 100 330 75 b 559 150 465 75 519 100 b 619 336 599 200 619 262 "},"Ŕ":{"ha":846,"x_min":0,"x_max":0,"o":"m 644 0 l 410 368 l 224 368 l 224 0 l 108 0 l 108 926 l 481 926 b 691 850 567 926 637 901 b 772 647 745 799 772 731 b 702 457 772 568 749 504 b 531 378 655 410 598 383 l 781 0 m 467 469 b 601 519 521 469 566 486 b 653 647 635 553 653 595 b 601 775 653 700 635 743 b 467 824 566 807 521 824 l 224 824 l 224 469 l 467 469 m 411 1011 l 332 1011 l 538 1211 l 646 1211 "},"ŕ":{"ha":458,"x_min":0,"x_max":0,"o":"m 104 0 l 104 671 l 208 671 l 208 564 b 432 686 272 645 347 686 l 432 579 b 392 582 415 581 402 582 b 288 549 359 582 325 571 b 208 475 250 528 224 503 l 208 0 m 254 772 l 175 772 l 381 972 l 489 972 "},"Ŗ":{"ha":846,"x_min":0,"x_max":0,"o":"m 644 0 l 410 368 l 224 368 l 224 0 l 108 0 l 108 926 l 481 926 b 691 850 567 926 637 901 b 772 647 745 799 772 731 b 702 457 772 568 749 504 b 531 378 655 410 598 383 l 781 0 m 467 469 b 601 519 521 469 566 486 b 653 647 635 553 653 595 b 601 775 653 700 635 743 b 467 824 566 807 521 824 l 224 824 l 224 469 l 467 469 m 503 -192 b 475 -296 503 -228 494 -262 b 404 -378 456 -329 433 -356 l 360 -342 b 413 -287 380 -328 398 -309 b 439 -222 428 -264 437 -243 l 433 -222 b 424 -224 429 -223 425 -224 b 382 -206 407 -224 393 -218 b 365 -162 371 -195 365 -180 b 384 -117 365 -145 372 -130 b 429 -99 397 -105 412 -99 b 481 -124 450 -99 467 -107 b 503 -192 496 -140 503 -163 "},"ŗ":{"ha":458,"x_min":0,"x_max":0,"o":"m 104 0 l 104 671 l 208 671 l 208 564 b 432 686 272 645 347 686 l 432 579 b 392 582 415 581 402 582 b 288 549 359 582 325 571 b 208 475 250 528 224 503 l 208 0 m 308 -192 b 281 -296 308 -228 299 -262 b 210 -378 262 -329 238 -356 l 165 -342 b 219 -287 186 -328 203 -309 b 244 -222 234 -264 243 -243 l 239 -222 b 229 -224 234 -223 231 -224 b 188 -206 213 -224 199 -218 b 171 -162 176 -195 171 -180 b 190 -117 171 -145 177 -130 b 235 -99 202 -105 217 -99 b 287 -124 255 -99 272 -107 b 308 -192 301 -140 308 -163 "},"Ř":{"ha":846,"x_min":0,"x_max":0,"o":"m 644 0 l 410 368 l 224 368 l 224 0 l 108 0 l 108 926 l 481 926 b 691 850 567 926 637 901 b 772 647 745 799 772 731 b 702 457 772 568 749 504 b 531 378 655 410 598 383 l 781 0 m 467 469 b 601 519 521 469 566 486 b 653 647 635 553 653 595 b 601 775 653 700 635 743 b 467 824 566 807 521 824 l 224 824 l 224 469 l 467 469 m 376 1011 l 240 1211 l 311 1211 l 426 1064 l 538 1211 l 608 1211 l 476 1011 "},"ř":{"ha":458,"x_min":0,"x_max":0,"o":"m 104 0 l 104 671 l 208 671 l 208 564 b 432 686 272 645 347 686 l 432 579 b 392 582 415 581 402 582 b 288 549 359 582 325 571 b 208 475 250 528 224 503 l 208 0 m 218 772 l 82 972 l 153 972 l 268 825 l 379 972 l 450 972 l 318 772 "},"Ś":{"ha":814,"x_min":0,"x_max":0,"o":"m 408 -17 b 53 131 258 -17 140 32 l 122 219 b 413 86 199 131 296 86 b 578 135 488 86 543 102 b 631 247 613 167 631 205 b 590 340 631 284 617 315 b 488 393 562 364 528 382 b 356 431 448 404 404 417 b 224 476 309 446 265 461 b 123 553 184 492 150 518 b 82 683 96 588 82 631 b 172 869 82 759 112 821 b 401 942 232 918 309 942 b 729 811 538 942 647 898 l 660 726 b 392 838 594 800 505 838 b 255 797 336 838 291 824 b 201 690 219 769 201 734 b 242 610 201 658 215 631 b 344 563 270 588 303 573 b 476 524 384 552 428 540 b 608 476 523 509 567 493 b 709 393 648 459 682 431 b 750 256 736 355 750 309 b 666 63 750 181 722 116 b 408 -17 610 10 524 -17 m 393 1011 l 314 1011 l 519 1211 l 628 1211 "},"ś":{"ha":646,"x_min":0,"x_max":0,"o":"m 318 -17 b 47 89 205 -17 115 19 l 100 164 b 195 96 123 137 155 114 b 321 68 235 77 277 68 b 438 100 371 68 410 79 b 481 183 466 121 481 149 b 438 253 481 213 466 236 b 333 292 409 271 374 284 b 212 323 293 301 252 311 b 108 383 172 334 137 354 b 65 494 80 411 65 448 b 132 632 65 549 88 595 b 314 688 176 669 237 688 b 563 590 417 688 500 655 l 514 518 b 314 603 467 575 400 603 b 206 573 269 603 232 593 b 165 497 179 553 165 528 b 196 442 165 475 175 456 b 273 410 216 427 242 416 b 373 385 304 403 337 395 b 473 351 409 375 442 363 b 550 290 504 338 530 318 b 581 186 570 261 581 227 b 512 40 581 127 558 78 b 318 -17 466 2 401 -17 m 311 772 l 232 772 l 438 972 l 546 972 "},"Ŝ":{"ha":814,"x_min":0,"x_max":0,"o":"m 510 1011 l 394 1158 l 283 1011 l 213 1011 l 344 1211 l 444 1211 l 581 1011 m 408 -17 b 53 131 258 -17 140 32 l 122 219 b 413 86 199 131 296 86 b 578 135 488 86 543 102 b 631 247 613 167 631 205 b 590 340 631 284 617 315 b 488 393 562 364 528 382 b 356 431 448 404 404 417 b 224 476 309 446 265 461 b 123 553 184 492 150 518 b 82 683 96 588 82 631 b 172 869 82 759 112 821 b 401 942 232 918 309 942 b 729 811 538 942 647 898 l 660 726 b 392 838 594 800 505 838 b 255 797 336 838 291 824 b 201 690 219 769 201 734 b 242 610 201 658 215 631 b 344 563 270 588 303 573 b 476 524 384 552 428 540 b 608 476 523 509 567 493 b 709 393 648 459 682 431 b 750 256 736 355 750 309 b 666 63 750 181 722 116 b 408 -17 610 10 524 -17 "},"ŝ":{"ha":646,"x_min":0,"x_max":0,"o":"m 318 -17 b 47 89 205 -17 115 19 l 100 164 b 195 96 123 137 155 114 b 321 68 235 77 277 68 b 438 100 371 68 410 79 b 481 183 466 121 481 149 b 438 253 481 213 466 236 b 333 292 409 271 374 284 b 212 323 293 301 252 311 b 108 383 172 334 137 354 b 65 494 80 411 65 448 b 132 632 65 549 88 595 b 314 688 176 669 237 688 b 563 590 417 688 500 655 l 514 518 b 314 603 467 575 400 603 b 206 573 269 603 232 593 b 165 497 179 553 165 528 b 196 442 165 475 175 456 b 273 410 216 427 242 416 b 373 385 304 403 337 395 b 473 351 409 375 442 363 b 550 290 504 338 530 318 b 581 186 570 261 581 227 b 512 40 581 127 558 78 b 318 -17 466 2 401 -17 m 431 772 l 315 919 l 204 772 l 133 772 l 265 972 l 365 972 l 501 772 "},"Ş":{"ha":814,"x_min":0,"x_max":0,"o":"m 400 -265 b 260 -224 341 -265 294 -251 l 286 -171 b 397 -211 319 -198 356 -211 b 458 -196 421 -211 441 -206 b 482 -153 474 -186 482 -171 b 431 -104 482 -120 465 -104 b 378 -128 408 -104 391 -112 l 332 -101 l 364 -15 b 53 131 234 -5 131 44 l 122 219 b 413 86 199 131 296 86 b 578 135 488 86 543 102 b 631 247 613 167 631 205 b 590 340 631 284 617 315 b 488 393 562 364 528 382 b 356 431 448 404 404 417 b 224 476 309 446 265 461 b 123 553 184 492 150 518 b 82 683 96 588 82 631 b 172 869 82 759 112 821 b 401 942 232 918 309 942 b 729 811 538 942 647 898 l 660 726 b 392 838 594 800 505 838 b 255 797 336 838 291 824 b 201 690 219 769 201 734 b 242 610 201 658 215 631 b 344 563 270 588 303 573 b 476 524 384 552 428 540 b 608 476 523 509 567 493 b 709 393 648 459 682 431 b 750 256 736 355 750 309 b 670 67 750 182 723 119 b 425 -17 617 14 535 -14 l 401 -76 b 453 -61 414 -66 431 -61 b 519 -87 480 -61 502 -70 b 544 -154 536 -104 544 -126 b 503 -235 544 -187 531 -214 b 400 -265 476 -255 442 -265 "},"ş":{"ha":646,"x_min":0,"x_max":0,"o":"m 317 -265 b 176 -224 258 -265 212 -251 l 203 -171 b 314 -211 236 -198 273 -211 b 374 -196 338 -211 358 -206 b 399 -153 391 -186 399 -171 b 347 -104 399 -120 381 -104 b 294 -128 325 -104 307 -112 l 249 -101 l 281 -15 b 47 89 184 -8 106 27 l 100 164 b 195 96 123 137 155 114 b 321 68 235 77 277 68 b 438 100 371 68 410 79 b 481 183 466 121 481 149 b 438 253 481 213 466 236 b 333 292 409 271 374 284 b 212 323 293 301 252 311 b 108 383 172 334 137 354 b 65 494 80 411 65 448 b 132 632 65 549 88 595 b 314 688 176 669 237 688 b 563 590 417 688 500 655 l 514 518 b 314 603 467 575 400 603 b 206 573 269 603 232 593 b 165 497 179 553 165 528 b 196 442 165 475 175 456 b 273 410 216 427 242 416 b 373 385 304 403 337 395 b 473 351 409 375 442 363 b 550 290 504 338 530 318 b 581 186 570 261 581 227 b 518 47 581 131 560 84 b 342 -15 476 9 418 -12 l 318 -76 b 369 -61 331 -66 348 -61 b 435 -87 396 -61 418 -70 b 461 -154 453 -104 461 -126 b 420 -235 461 -187 447 -214 b 317 -265 393 -255 358 -265 "},"Š":{"ha":814,"x_min":0,"x_max":0,"o":"m 349 1011 l 213 1211 l 283 1211 l 399 1064 l 510 1211 l 581 1211 l 449 1011 m 408 -17 b 53 131 258 -17 140 32 l 122 219 b 413 86 199 131 296 86 b 578 135 488 86 543 102 b 631 247 613 167 631 205 b 590 340 631 284 617 315 b 488 393 562 364 528 382 b 356 431 448 404 404 417 b 224 476 309 446 265 461 b 123 553 184 492 150 518 b 82 683 96 588 82 631 b 172 869 82 759 112 821 b 401 942 232 918 309 942 b 729 811 538 942 647 898 l 660 726 b 392 838 594 800 505 838 b 255 797 336 838 291 824 b 201 690 219 769 201 734 b 242 610 201 658 215 631 b 344 563 270 588 303 573 b 476 524 384 552 428 540 b 608 476 523 509 567 493 b 709 393 648 459 682 431 b 750 256 736 355 750 309 b 666 63 750 181 722 116 b 408 -17 610 10 524 -17 "},"š":{"ha":646,"x_min":0,"x_max":0,"o":"m 318 -17 b 47 89 205 -17 115 19 l 100 164 b 195 96 123 137 155 114 b 321 68 235 77 277 68 b 438 100 371 68 410 79 b 481 183 466 121 481 149 b 438 253 481 213 466 236 b 333 292 409 271 374 284 b 212 323 293 301 252 311 b 108 383 172 334 137 354 b 65 494 80 411 65 448 b 132 632 65 549 88 595 b 314 688 176 669 237 688 b 563 590 417 688 500 655 l 514 518 b 314 603 467 575 400 603 b 206 573 269 603 232 593 b 165 497 179 553 165 528 b 196 442 165 475 175 456 b 273 410 216 427 242 416 b 373 385 304 403 337 395 b 473 351 409 375 442 363 b 550 290 504 338 530 318 b 581 186 570 261 581 227 b 512 40 581 127 558 78 b 318 -17 466 2 401 -17 m 269 772 l 133 972 l 204 972 l 319 825 l 431 972 l 501 972 l 369 772 "},"Ţ":{"ha":792,"x_min":0,"x_max":0,"o":"m 338 0 l 338 824 l 44 824 l 44 926 l 747 926 l 747 824 l 453 824 l 453 0 m 475 -192 b 447 -296 475 -228 466 -262 b 376 -378 429 -329 405 -356 l 332 -342 b 385 -287 352 -328 370 -309 b 411 -222 401 -264 409 -243 l 406 -222 b 396 -224 401 -223 398 -224 b 354 -206 379 -224 365 -218 b 338 -162 343 -195 338 -180 b 356 -117 338 -145 344 -130 b 401 -99 369 -105 384 -99 b 453 -124 422 -99 439 -107 b 475 -192 468 -140 475 -163 "},"ţ":{"ha":408,"x_min":0,"x_max":0,"o":"m 275 -17 b 125 140 175 -17 125 36 l 125 579 l 14 579 l 14 671 l 125 671 l 125 854 l 231 854 l 231 671 l 367 671 l 367 579 l 231 579 l 231 163 b 248 100 231 137 236 116 b 297 76 259 84 276 76 b 368 106 327 76 350 86 l 399 26 b 275 -17 368 -2 327 -17 m 283 -192 b 256 -296 283 -228 274 -262 b 185 -378 237 -329 213 -356 l 140 -342 b 194 -287 161 -328 178 -309 b 219 -222 209 -264 218 -243 l 214 -222 b 204 -224 209 -223 206 -224 b 163 -206 188 -224 174 -218 b 146 -162 151 -195 146 -180 b 165 -117 146 -145 152 -130 b 210 -99 177 -105 192 -99 b 262 -124 230 -99 247 -107 b 283 -192 276 -140 283 -163 "},"Ť":{"ha":792,"x_min":0,"x_max":0,"o":"m 338 0 l 338 824 l 44 824 l 44 926 l 747 926 l 747 824 l 453 824 l 453 0 m 347 1011 l 211 1211 l 282 1211 l 397 1064 l 508 1211 l 579 1211 l 447 1011 "},"ť":{"ha":435,"x_min":0,"x_max":0,"o":"m 275 -17 b 125 140 175 -17 125 36 l 125 579 l 14 579 l 14 671 l 125 671 l 125 854 l 231 854 l 231 671 l 367 671 l 367 579 l 231 579 l 231 163 b 248 100 231 137 236 116 b 297 76 259 84 276 76 b 368 106 327 76 350 86 l 399 26 b 275 -17 368 -2 327 -17 m 451 939 b 424 835 451 903 442 868 b 353 753 405 801 381 774 l 308 789 b 362 844 329 803 347 821 b 388 908 377 866 386 888 l 381 908 b 372 907 377 907 374 907 b 331 924 356 907 342 913 b 314 968 319 936 314 950 b 333 1013 314 986 320 1001 b 378 1032 345 1026 360 1032 b 430 1007 398 1032 416 1024 b 451 939 444 990 451 968 "},"Ŧ":{"ha":792,"x_min":0,"x_max":0,"o":"m 338 0 l 338 408 l 129 408 l 129 475 l 338 475 l 338 824 l 44 824 l 44 926 l 747 926 l 747 824 l 453 824 l 453 475 l 664 475 l 664 408 l 453 408 l 453 0 "},"ŧ":{"ha":408,"x_min":0,"x_max":0,"o":"m 231 315 l 231 163 b 248 100 231 137 236 116 b 297 76 259 84 276 76 b 368 106 327 76 350 86 l 399 26 b 275 -17 368 -2 327 -17 b 125 140 175 -17 125 36 l 125 315 l 14 315 l 14 382 l 125 382 l 125 579 l 14 579 l 14 671 l 125 671 l 125 854 l 231 854 l 231 671 l 367 671 l 367 579 l 231 579 l 231 382 l 326 382 l 326 315 "},"Ũ":{"ha":974,"x_min":0,"x_max":0,"o":"m 486 -17 b 206 84 364 -17 270 17 b 108 360 141 151 108 243 l 108 926 l 225 926 l 225 363 b 292 160 225 276 247 209 b 486 86 337 111 402 86 b 681 160 570 86 635 111 b 749 363 726 209 749 276 l 749 926 l 865 926 l 865 361 b 768 84 865 244 833 151 b 486 -17 703 17 609 -17 m 572 1008 b 513 1028 550 1008 530 1015 b 474 1072 496 1042 483 1056 b 442 1116 466 1088 455 1103 b 401 1136 430 1129 416 1136 b 353 1106 382 1136 366 1126 b 335 1017 341 1086 335 1056 l 272 1017 b 308 1151 272 1072 284 1117 b 407 1203 331 1186 364 1203 b 466 1183 429 1203 449 1196 b 505 1139 483 1169 496 1155 b 537 1095 514 1123 524 1109 b 578 1075 549 1082 563 1075 b 626 1105 597 1075 613 1085 b 644 1194 638 1125 644 1155 l 707 1194 b 672 1060 707 1139 695 1094 b 572 1008 648 1025 615 1008 "},"ũ":{"ha":765,"x_min":0,"x_max":0,"o":"m 557 0 l 557 94 b 452 15 529 63 494 37 b 318 -17 410 -6 365 -17 b 104 197 175 -17 104 55 l 104 671 l 208 671 l 208 229 b 247 111 208 174 221 134 b 360 76 273 88 311 76 b 472 106 399 76 436 86 b 557 178 508 125 537 149 l 557 671 l 661 671 l 661 0 m 465 769 b 406 790 443 769 423 776 b 367 833 389 803 376 818 b 335 877 359 849 348 864 b 294 897 323 891 309 897 b 247 867 275 897 259 887 b 228 778 234 847 228 818 l 165 778 b 201 913 165 833 177 878 b 300 964 224 947 257 964 b 359 944 322 964 342 957 b 398 900 376 930 389 916 b 430 856 407 884 417 870 b 471 836 442 843 456 836 b 519 866 490 836 506 846 b 538 956 531 886 538 916 l 600 956 b 565 821 600 900 588 855 b 465 769 541 787 508 769 "},"Ū":{"ha":974,"x_min":0,"x_max":0,"o":"m 486 -17 b 206 84 364 -17 270 17 b 108 360 141 151 108 243 l 108 926 l 225 926 l 225 363 b 292 160 225 276 247 209 b 486 86 337 111 402 86 b 681 160 570 86 635 111 b 749 363 726 209 749 276 l 749 926 l 865 926 l 865 361 b 768 84 865 244 833 151 b 486 -17 703 17 609 -17 m 235 1040 l 235 1107 l 739 1107 l 739 1040 "},"ū":{"ha":765,"x_min":0,"x_max":0,"o":"m 557 0 l 557 94 b 452 15 529 63 494 37 b 318 -17 410 -6 365 -17 b 104 197 175 -17 104 55 l 104 671 l 208 671 l 208 229 b 247 111 208 174 221 134 b 360 76 273 88 311 76 b 472 106 399 76 436 86 b 557 178 508 125 537 149 l 557 671 l 661 671 l 661 0 m 131 803 l 131 869 l 635 869 l 635 803 "},"Ŭ":{"ha":974,"x_min":0,"x_max":0,"o":"m 486 -17 b 206 84 364 -17 270 17 b 108 360 141 151 108 243 l 108 926 l 225 926 l 225 363 b 292 160 225 276 247 209 b 486 86 337 111 402 86 b 681 160 570 86 635 111 b 749 363 726 209 749 276 l 749 926 l 865 926 l 865 361 b 768 84 865 244 833 151 b 486 -17 703 17 609 -17 m 735 1125 b 492 1003 675 1044 594 1003 b 247 1125 391 1003 309 1044 l 300 1169 b 492 1069 347 1103 411 1069 b 685 1169 573 1069 638 1103 l 735 1125 "},"ŭ":{"ha":765,"x_min":0,"x_max":0,"o":"m 557 0 l 557 94 b 452 15 529 63 494 37 b 318 -17 410 -6 365 -17 b 104 197 175 -17 104 55 l 104 671 l 208 671 l 208 229 b 247 111 208 174 221 134 b 360 76 273 88 311 76 b 472 106 399 76 436 86 b 557 178 508 125 537 149 l 557 671 l 661 671 l 661 0 m 629 904 b 386 782 569 823 488 782 b 142 904 285 782 204 823 l 194 949 b 386 849 242 882 306 849 b 579 949 468 849 532 882 l 629 904 "},"Ů":{"ha":974,"x_min":0,"x_max":0,"o":"m 486 -17 b 206 84 364 -17 270 17 b 108 360 141 151 108 243 l 108 926 l 225 926 l 225 363 b 292 160 225 276 247 209 b 486 86 337 111 402 86 b 681 160 570 86 635 111 b 749 363 726 209 749 276 l 749 926 l 865 926 l 865 361 b 768 84 865 244 833 151 b 486 -17 703 17 609 -17 m 489 961 b 392 1001 452 961 420 975 b 351 1099 365 1028 351 1061 b 392 1196 351 1137 365 1169 b 489 1236 420 1223 452 1236 b 584 1196 526 1236 558 1223 b 624 1099 610 1169 624 1137 b 584 1001 624 1061 610 1028 b 489 961 558 975 526 961 m 489 1017 b 546 1041 511 1017 530 1025 b 569 1099 562 1057 569 1076 b 546 1156 569 1121 562 1140 b 489 1181 530 1172 511 1181 b 431 1156 466 1181 446 1172 b 407 1099 415 1140 407 1121 b 431 1041 407 1076 415 1057 b 489 1017 446 1025 466 1017 "},"ů":{"ha":765,"x_min":0,"x_max":0,"o":"m 557 0 l 557 94 b 452 15 529 63 494 37 b 318 -17 410 -6 365 -17 b 104 197 175 -17 104 55 l 104 671 l 208 671 l 208 229 b 247 111 208 174 221 134 b 360 76 273 88 311 76 b 472 106 399 76 436 86 b 557 178 508 125 537 149 l 557 671 l 661 671 l 661 0 m 383 767 b 287 807 346 767 314 780 b 246 904 259 834 246 866 b 287 1001 246 942 259 975 b 383 1042 314 1028 346 1042 b 478 1001 420 1042 452 1028 b 518 904 505 975 518 942 b 478 807 518 866 505 834 b 383 767 452 780 420 767 m 383 822 b 440 847 406 822 425 830 b 464 904 456 863 464 882 b 440 962 464 926 456 946 b 383 986 425 978 406 986 b 325 962 360 986 341 978 b 301 904 309 946 301 926 b 325 847 301 882 309 863 b 383 822 341 830 360 822 "},"Ű":{"ha":974,"x_min":0,"x_max":0,"o":"m 486 -17 b 206 84 364 -17 270 17 b 108 360 141 151 108 243 l 108 926 l 225 926 l 225 363 b 292 160 225 276 247 209 b 486 86 337 111 402 86 b 681 160 570 86 635 111 b 749 363 726 209 749 276 l 749 926 l 865 926 l 865 361 b 768 84 865 244 833 151 b 486 -17 703 17 609 -17 m 401 1011 l 335 1011 l 465 1211 l 561 1211 m 599 1011 l 532 1011 l 663 1211 l 758 1211 "},"ű":{"ha":765,"x_min":0,"x_max":0,"o":"m 557 0 l 557 94 b 452 15 529 63 494 37 b 318 -17 410 -6 365 -17 b 104 197 175 -17 104 55 l 104 671 l 208 671 l 208 229 b 247 111 208 174 221 134 b 360 76 273 88 311 76 b 472 106 399 76 436 86 b 557 178 508 125 537 149 l 557 671 l 661 671 l 661 0 m 297 772 l 231 772 l 361 972 l 457 972 m 494 772 l 428 772 l 558 972 l 654 972 "},"Ų":{"ha":974,"x_min":0,"x_max":0,"o":"m 699 -175 b 576 -258 675 -231 634 -258 b 488 -228 541 -258 512 -248 b 451 -137 463 -207 451 -177 b 506 -17 451 -93 469 -53 l 486 -17 b 206 84 364 -17 270 17 b 108 360 141 151 108 243 l 108 926 l 225 926 l 225 363 b 292 160 225 276 247 209 b 486 86 337 111 402 86 b 681 160 570 86 635 111 b 749 363 726 209 749 276 l 749 926 l 865 926 l 865 361 b 803 126 865 267 844 188 b 619 0 761 64 700 22 b 514 -135 549 -35 514 -80 b 576 -204 514 -181 535 -204 b 647 -146 611 -204 634 -185 "},"ų":{"ha":765,"x_min":0,"x_max":0,"o":"m 740 -175 b 618 -258 716 -231 675 -258 b 529 -228 583 -258 553 -248 b 493 -137 505 -207 493 -177 b 567 0 493 -85 518 -39 l 557 0 l 557 94 b 452 15 529 63 494 37 b 318 -17 410 -6 365 -17 b 104 197 175 -17 104 55 l 104 671 l 208 671 l 208 229 b 247 111 208 174 221 134 b 360 76 273 88 311 76 b 472 106 399 76 436 86 b 557 178 508 125 537 149 l 557 671 l 661 671 l 661 0 b 556 -135 591 -35 556 -80 b 618 -204 556 -181 576 -204 b 689 -146 652 -204 676 -185 "},"Ŵ":{"ha":1226,"x_min":0,"x_max":0,"o":"m 817 0 l 613 747 l 408 0 l 283 0 l 19 926 l 147 926 l 353 154 l 565 926 l 661 926 l 874 154 l 1078 926 l 1207 926 l 942 0 m 726 1011 l 611 1158 l 500 1011 l 429 1011 l 561 1211 l 661 1211 l 797 1011 "},"ŵ":{"ha":1019,"x_min":0,"x_max":0,"o":"m 685 0 l 510 539 l 335 0 l 231 0 l 17 671 l 125 671 l 289 136 l 465 671 l 556 671 l 731 136 l 894 671 l 1004 671 l 790 0 m 624 772 l 508 919 l 397 772 l 326 772 l 458 972 l 558 972 l 694 772 "},"Ŷ":{"ha":869,"x_min":0,"x_max":0,"o":"m 550 1011 l 435 1158 l 324 1011 l 253 1011 l 385 1211 l 485 1211 l 621 1011 m 378 0 l 378 392 l 13 926 l 147 926 l 435 496 l 722 926 l 857 926 l 493 392 l 493 0 "},"ŷ":{"ha":681,"x_min":0,"x_max":0,"o":"m 83 -168 b 140 -179 100 -175 119 -179 b 200 -164 164 -179 184 -174 b 240 -108 216 -154 229 -135 l 285 -7 l 4 671 l 118 671 l 340 121 l 564 671 l 676 671 l 340 -136 b 143 -272 303 -225 238 -270 b 68 -262 114 -272 89 -269 m 454 772 l 339 919 l 228 772 l 157 772 l 289 972 l 389 972 l 525 772 "},"Ÿ":{"ha":869,"x_min":0,"x_max":0,"o":"m 647 1074 b 628 1028 647 1056 641 1041 b 582 1010 615 1016 600 1010 b 537 1028 564 1010 549 1016 b 518 1074 524 1041 518 1056 b 537 1119 518 1091 524 1106 b 582 1138 549 1131 564 1138 b 628 1119 600 1138 616 1131 b 647 1074 641 1106 647 1091 m 360 1074 b 341 1028 360 1056 353 1041 b 296 1010 328 1016 313 1010 b 250 1028 278 1010 263 1016 b 231 1074 237 1041 231 1056 b 249 1119 231 1091 237 1106 b 296 1138 262 1131 277 1138 b 341 1119 313 1138 328 1131 b 360 1074 353 1106 360 1091 m 378 0 l 378 392 l 13 926 l 147 926 l 435 496 l 722 926 l 857 926 l 493 392 l 493 0 "},"Ź":{"ha":813,"x_min":0,"x_max":0,"o":"m 67 0 l 67 96 l 588 824 l 67 824 l 67 926 l 736 926 l 736 831 l 214 103 l 746 103 l 746 0 m 393 1011 l 314 1011 l 519 1211 l 628 1211 "},"ź":{"ha":656,"x_min":0,"x_max":0,"o":"m 72 0 l 72 82 l 442 579 l 72 579 l 72 671 l 578 671 l 578 592 l 206 92 l 583 92 l 583 0 m 314 772 l 235 772 l 440 972 l 549 972 "},"Ż":{"ha":813,"x_min":0,"x_max":0,"o":"m 67 0 l 67 96 l 588 824 l 67 824 l 67 926 l 736 926 l 736 831 l 214 103 l 746 103 l 746 0 m 403 1010 b 357 1029 385 1010 370 1016 b 338 1075 344 1042 338 1057 b 357 1121 338 1093 344 1108 b 403 1140 370 1134 385 1140 b 449 1122 421 1140 437 1134 b 468 1075 462 1109 468 1094 b 449 1028 468 1056 462 1041 b 403 1010 437 1016 421 1010 "},"ż":{"ha":656,"x_min":0,"x_max":0,"o":"m 72 0 l 72 82 l 442 579 l 72 579 l 72 671 l 578 671 l 578 592 l 206 92 l 583 92 l 583 0 m 326 796 b 281 815 309 796 294 802 b 261 861 268 828 261 844 b 281 907 261 879 268 894 b 326 926 294 920 309 926 b 372 908 344 926 359 920 b 392 861 385 895 392 880 b 372 815 392 843 385 827 b 326 796 359 802 344 796 "},"Ž":{"ha":813,"x_min":0,"x_max":0,"o":"m 358 1011 l 222 1211 l 293 1211 l 408 1064 l 519 1211 l 590 1211 l 458 1011 m 67 0 l 67 96 l 588 824 l 67 824 l 67 926 l 736 926 l 736 831 l 214 103 l 746 103 l 746 0 "},"ž":{"ha":656,"x_min":0,"x_max":0,"o":"m 72 0 l 72 82 l 442 579 l 72 579 l 72 671 l 578 671 l 578 592 l 206 92 l 583 92 l 583 0 m 271 772 l 135 972 l 206 972 l 321 825 l 432 972 l 503 972 l 371 772 "},"ſ":{"ha":394,"x_min":0,"x_max":0,"o":"m 133 0 l 133 579 l 22 579 l 22 671 l 133 671 l 133 722 b 186 883 133 791 151 844 b 328 940 221 921 269 940 b 469 889 385 940 432 923 l 426 822 b 344 854 402 844 375 854 b 238 722 273 854 238 810 l 238 0 "},"ƒ":{"ha":600,"x_min":0,"x_max":0,"o":"m 35 -224 l 163 353 l 68 353 l 68 447 l 182 447 l 246 731 b 332 884 260 795 288 847 b 488 940 375 922 427 940 b 618 890 544 940 588 924 l 567 806 b 499 838 551 827 528 838 b 410 803 464 838 435 826 b 358 710 385 781 368 750 l 300 447 l 493 447 l 493 353 l 281 353 l 151 -224 "},"Ǽ":{"ha":1317,"x_min":0,"x_max":0,"o":"m 633 0 l 633 207 l 269 207 l 142 0 l 10 0 l 588 926 l 1240 926 l 1240 824 l 749 824 l 749 525 l 1231 525 l 1231 422 l 749 422 l 749 103 l 1240 103 l 1240 0 m 633 808 l 325 308 l 633 308 m 675 1011 l 596 1011 l 801 1211 l 910 1211 "},"ǽ":{"ha":1235,"x_min":0,"x_max":0,"o":"m 629 301 b 701 138 634 236 658 181 b 869 72 744 94 800 72 b 1078 157 954 72 1023 100 l 1128 88 b 861 -17 1056 18 968 -17 b 583 122 743 -17 650 30 b 307 -17 518 30 425 -17 b 140 43 243 -17 187 3 b 68 206 92 83 68 137 b 136 368 68 275 91 329 b 301 426 181 407 237 426 b 524 338 396 426 470 397 l 524 457 b 476 560 524 500 508 535 b 354 597 445 585 404 597 b 149 504 274 597 205 566 l 100 576 b 368 688 171 650 261 688 b 596 540 498 688 574 638 b 853 688 651 638 737 688 b 1085 585 950 688 1027 653 b 1171 328 1142 517 1171 431 l 1171 301 m 1068 379 b 1010 533 1067 436 1048 487 b 847 601 972 578 918 601 b 690 533 781 601 728 579 b 628 379 651 488 631 437 m 544 176 b 524 267 531 209 524 239 b 340 351 483 323 422 351 b 220 310 291 351 251 338 b 174 206 189 283 174 248 b 220 99 174 162 189 127 b 340 58 251 72 291 58 b 544 176 433 58 501 98 m 582 772 l 503 772 l 708 972 l 817 972 "},"Ǿ":{"ha":1063,"x_min":0,"x_max":0,"o":"m 521 1011 l 442 1011 l 647 1211 l 756 1211 m 531 -17 b 292 46 442 -17 362 4 l 261 0 l 168 0 l 229 90 b 71 463 124 181 71 305 b 199 806 71 600 114 715 b 531 942 285 896 395 942 b 763 883 616 942 693 922 l 792 926 l 885 926 l 826 839 b 948 676 878 795 919 741 b 992 463 977 610 992 539 b 863 119 992 325 949 210 b 531 -17 776 29 666 -17 m 531 86 b 778 192 632 86 715 122 b 872 463 841 263 872 353 b 764 747 872 582 836 677 l 351 135 b 531 86 402 102 462 86 m 190 463 b 292 183 190 347 224 254 l 703 794 b 531 839 651 824 594 839 b 283 733 428 839 345 804 b 190 463 221 663 190 573 "},"ǿ":{"ha":794,"x_min":0,"x_max":0,"o":"m 385 772 l 306 772 l 511 972 l 619 972 m 89 0 l 156 85 b 65 336 95 150 65 234 b 156 587 65 436 96 520 b 397 688 217 654 297 688 b 588 631 470 688 534 669 l 619 671 l 696 671 l 633 592 b 729 336 697 525 729 440 b 638 85 729 236 699 152 b 397 -17 578 17 497 -17 b 200 46 320 -17 255 4 l 164 0 m 397 76 b 560 152 466 76 520 102 b 619 336 600 203 619 264 b 567 508 619 405 602 462 l 261 124 b 397 76 298 92 344 76 m 175 336 b 222 168 175 269 191 213 l 525 553 b 397 594 490 581 447 594 b 235 519 329 594 275 569 b 175 336 195 469 175 408 "},"Ș":{"ha":824,"x_min":0,"x_max":0,"o":"m 415 -17 b 60 131 265 -17 147 32 l 129 219 b 419 86 206 131 303 86 b 585 135 494 86 550 102 b 638 247 620 167 638 205 b 597 340 638 284 624 315 b 495 393 569 364 535 382 b 363 431 455 404 411 417 b 231 476 316 446 272 461 b 130 553 191 492 157 518 b 89 683 103 588 89 631 b 179 869 89 759 119 821 b 408 942 239 918 316 942 b 736 811 544 942 654 898 l 667 726 b 399 838 601 800 512 838 b 262 797 343 838 297 824 b 208 690 226 769 208 734 b 249 610 208 658 222 631 b 351 563 277 588 310 573 b 483 524 391 552 435 540 b 615 476 530 509 574 493 b 716 393 655 459 689 431 b 757 256 743 355 757 309 b 673 63 757 181 729 116 b 415 -17 617 10 531 -17 m 486 -192 b 458 -296 486 -228 477 -262 b 388 -378 440 -329 416 -356 l 343 -342 b 397 -287 363 -328 381 -309 b 422 -222 412 -264 420 -243 l 417 -222 b 407 -224 412 -223 409 -224 b 365 -206 390 -224 376 -218 b 349 -162 354 -195 349 -180 b 367 -117 349 -145 355 -130 b 413 -99 380 -105 395 -99 b 465 -124 433 -99 450 -107 b 486 -192 479 -140 486 -163 "},"ș":{"ha":650,"x_min":0,"x_max":0,"o":"m 318 -17 b 47 89 205 -17 115 19 l 100 164 b 195 96 123 137 155 114 b 321 68 235 77 277 68 b 438 100 371 68 410 79 b 481 183 466 121 481 149 b 438 253 481 213 466 236 b 333 292 409 271 374 284 b 212 323 293 301 252 311 b 108 383 172 334 137 354 b 65 494 80 411 65 448 b 132 632 65 549 88 595 b 314 688 176 669 237 688 b 563 590 417 688 500 655 l 514 518 b 314 603 467 575 400 603 b 206 573 269 603 232 593 b 165 497 179 553 165 528 b 196 442 165 475 175 456 b 273 410 216 427 242 416 b 373 385 304 403 337 395 b 473 351 409 375 442 363 b 550 290 504 338 530 318 b 581 186 570 261 581 227 b 512 40 581 127 558 78 b 318 -17 466 2 401 -17 m 404 -192 b 376 -296 404 -228 395 -262 b 306 -378 358 -329 334 -356 l 261 -342 b 315 -287 281 -328 299 -309 b 340 -222 330 -264 338 -243 l 333 -222 b 325 -224 330 -223 327 -224 b 283 -206 308 -224 294 -218 b 267 -162 272 -195 267 -180 b 285 -117 267 -145 273 -130 b 331 -99 298 -105 313 -99 b 383 -124 351 -99 368 -107 b 404 -192 397 -140 404 -163 "},"ʰ":{"ha":553,"x_min":0,"x_max":0,"o":"m 389 453 l 389 733 b 364 811 389 770 381 796 b 290 833 347 826 323 833 b 164 769 239 833 197 812 l 164 453 l 83 453 l 83 1056 l 164 1056 l 164 828 b 324 900 206 876 260 900 b 469 753 421 900 469 851 l 469 453 "},"ˆ":{"ha":368,"x_min":0,"x_max":0,"o":"m 297 772 l 182 919 l 71 772 l 0 772 l 132 972 l 232 972 l 368 772 "},"ˇ":{"ha":368,"x_min":0,"x_max":0,"o":"m 136 772 l 0 972 l 71 972 l 186 825 l 297 972 l 368 972 l 236 772 "},"˘":{"ha":488,"x_min":0,"x_max":0,"o":"m 488 904 b 244 782 427 823 346 782 b 0 904 144 782 62 823 l 53 949 b 244 849 100 882 164 849 b 438 949 326 849 390 882 l 488 904 "},"˙":{"ha":156,"x_min":0,"x_max":0,"o":"m 78 796 b 32 815 60 796 45 802 b 13 861 19 828 13 844 b 32 907 13 879 19 894 b 78 926 45 920 60 926 b 124 908 96 926 112 920 b 143 861 137 895 143 880 b 124 815 143 843 137 827 b 78 796 112 802 96 796 "},"˚":{"ha":272,"x_min":0,"x_max":0,"o":"m 138 769 b 40 810 100 769 67 783 b 0 907 13 837 0 869 b 40 1004 0 945 13 977 b 138 1044 67 1031 100 1044 b 233 1004 175 1044 206 1031 b 272 907 259 977 272 945 b 233 810 272 869 259 837 b 138 769 206 783 175 769 m 138 825 b 194 849 160 825 179 833 b 218 907 210 866 218 885 b 194 965 218 929 210 948 b 138 989 179 981 160 989 b 79 965 114 989 95 981 b 56 907 63 948 56 929 b 79 849 56 885 63 866 b 138 825 95 833 114 825 "},"˛":{"ha":247,"x_min":0,"x_max":0,"o":"m 247 -175 b 125 -258 223 -231 182 -258 b 36 -228 90 -258 60 -248 b 0 -137 12 -207 0 -177 b 33 -42 0 -103 11 -71 b 122 32 56 -12 85 13 l 168 0 b 63 -135 98 -35 63 -80 b 125 -204 63 -181 83 -204 b 196 -146 159 -204 183 -185 "},"˜":{"ha":435,"x_min":0,"x_max":0,"o":"m 300 769 b 241 790 278 769 258 776 b 202 833 224 803 211 818 b 170 877 193 849 183 864 b 129 897 158 891 144 897 b 81 867 110 897 94 887 b 63 778 69 847 63 818 l 0 778 b 35 913 0 833 12 878 b 135 964 59 947 92 964 b 194 944 157 964 177 957 b 233 900 211 930 224 916 b 265 856 241 884 252 870 b 306 836 277 843 291 836 b 353 866 325 836 341 846 b 372 956 366 886 372 916 l 435 956 b 399 821 435 900 423 855 b 300 769 376 787 343 769 "},"˝":{"ha":424,"x_min":0,"x_max":0,"o":"m 67 772 l 0 772 l 131 972 l 226 972 m 264 772 l 197 772 l 328 972 l 424 972 "},"Δ":{"ha":914,"x_min":0,"x_max":0,"o":"m 13 0 l 386 926 l 529 926 l 901 0 m 457 808 l 178 103 l 736 103 "},"Ω":{"ha":1063,"x_min":0,"x_max":0,"o":"m 96 103 l 283 103 b 71 483 142 195 71 322 b 199 813 71 618 113 728 b 531 942 284 899 394 942 b 864 813 668 942 779 899 b 992 483 949 728 992 618 b 933 260 992 398 972 324 b 779 103 893 196 842 144 l 967 103 l 967 0 l 633 0 l 633 103 b 802 224 699 119 755 160 b 872 464 849 289 872 369 b 781 731 872 570 842 659 b 531 838 721 802 637 838 b 281 731 425 838 342 802 b 190 464 221 659 190 570 b 260 224 190 369 214 289 b 429 103 307 160 363 119 l 429 0 l 96 0 "},"μ":{"ha":765,"x_min":0,"x_max":0,"o":"m 104 -256 l 104 671 l 208 671 l 208 229 b 247 109 208 173 221 133 b 360 74 273 85 311 74 b 472 104 398 74 435 84 b 557 178 508 125 537 149 l 557 671 l 661 671 l 661 0 l 557 0 l 557 94 b 452 15 529 63 494 37 b 318 -17 410 -6 365 -17 b 208 3 275 -17 239 -10 l 208 -256 "},"π":{"ha":779,"x_min":0,"x_max":0,"o":"m 522 0 l 522 601 l 257 601 l 257 0 l 151 0 l 151 601 l 44 601 l 44 694 l 735 694 l 735 601 l 628 601 l 628 0 "},"–":{"ha":824,"x_min":0,"x_max":0,"o":"m 42 290 l 42 382 l 782 382 l 782 290 "},"—":{"ha":1157,"x_min":0,"x_max":0,"o":"m 42 290 l 42 382 l 1115 382 l 1115 290 "},"‘":{"ha":319,"x_min":0,"x_max":0,"o":"m 67 732 b 98 849 67 773 77 812 b 178 940 119 887 145 917 l 231 899 b 171 840 208 884 188 864 b 140 769 153 815 143 792 b 149 771 141 769 144 770 b 160 772 153 772 157 772 b 207 752 178 772 194 766 b 226 701 220 739 226 722 b 205 648 226 680 219 662 b 153 626 191 634 173 626 b 92 655 129 626 108 636 b 67 732 75 674 67 700 "},"’":{"ha":319,"x_min":0,"x_max":0,"o":"m 244 835 b 213 717 244 794 234 755 b 132 625 192 680 165 649 l 79 668 b 139 727 101 683 121 703 b 169 797 156 752 167 775 b 150 794 166 795 159 794 b 103 815 131 794 116 801 b 83 865 90 828 83 845 b 105 918 83 886 91 903 b 157 940 119 933 137 940 b 219 912 182 940 203 931 b 244 835 236 893 244 867 "},"‚":{"ha":319,"x_min":0,"x_max":0,"o":"m 244 33 b 213 -84 244 -7 234 -47 b 132 -176 192 -122 165 -152 l 79 -133 b 140 -74 102 -119 122 -99 b 169 -4 157 -50 167 -26 b 150 -7 166 -6 159 -7 b 103 13 131 -7 116 0 b 83 64 90 27 83 44 b 105 117 83 84 91 102 b 157 139 119 131 137 139 b 219 110 182 139 203 129 b 244 33 236 91 244 66 "},"“":{"ha":542,"x_min":0,"x_max":0,"o":"m 75 732 b 106 849 75 773 85 812 b 188 940 127 887 154 917 l 239 899 b 180 840 217 884 197 864 b 150 769 163 815 153 792 l 157 771 b 168 772 162 772 165 772 b 217 752 188 772 204 766 b 236 701 230 739 236 722 b 214 648 236 680 229 662 b 161 626 199 634 181 626 b 100 655 137 626 117 636 b 75 732 83 674 75 700 m 297 732 b 328 849 297 773 308 812 b 410 940 349 887 376 917 l 461 899 b 402 840 439 884 419 864 b 372 769 385 815 375 792 b 381 771 373 769 376 770 b 390 772 385 772 388 772 b 439 752 410 772 426 766 b 458 701 452 739 458 722 b 436 648 458 680 451 662 b 383 626 421 634 404 626 b 322 655 359 626 339 636 b 297 732 306 674 297 700 "},"”":{"ha":542,"x_min":0,"x_max":0,"o":"m 467 835 b 435 717 467 794 456 755 b 354 625 415 680 388 649 l 303 668 b 362 727 325 683 345 703 b 392 797 379 752 389 775 b 374 794 390 795 384 794 b 325 815 354 794 338 801 b 306 865 312 828 306 845 b 328 918 306 886 313 903 b 381 940 343 933 360 940 b 442 912 405 940 425 931 b 467 835 458 893 467 867 m 244 835 b 213 717 244 794 234 755 b 132 625 192 680 165 649 l 79 668 b 139 727 101 683 121 703 b 169 797 156 752 167 775 b 150 794 166 795 159 794 b 103 815 131 794 116 801 b 83 865 90 828 83 845 b 105 918 83 886 91 903 b 157 940 119 933 137 940 b 219 912 182 940 203 931 b 244 835 236 893 244 867 "},"„":{"ha":542,"x_min":0,"x_max":0,"o":"m 244 33 b 213 -84 244 -7 234 -47 b 132 -176 192 -122 165 -152 l 79 -133 b 140 -74 102 -119 122 -99 b 169 -4 157 -50 167 -26 b 150 -7 166 -6 159 -7 b 103 13 131 -7 116 0 b 83 64 90 27 83 44 b 105 117 83 84 91 102 b 157 139 119 131 137 139 b 219 110 182 139 203 129 b 244 33 236 91 244 66 m 467 33 b 435 -84 467 -7 456 -47 b 354 -176 415 -122 388 -152 l 303 -133 b 362 -74 325 -119 345 -99 b 392 -4 379 -50 389 -26 b 374 -7 390 -6 384 -7 b 325 13 354 -7 338 0 b 306 64 312 27 306 44 b 328 117 306 84 313 102 b 381 139 343 131 360 139 b 442 110 405 139 425 129 b 467 33 458 91 467 66 "},"†":{"ha":365,"x_min":0,"x_max":0,"o":"m 210 743 l 215 454 l 149 454 l 156 743 l 32 738 l 32 797 l 156 793 l 149 940 l 215 940 l 210 793 l 333 797 l 333 738 "},"‡":{"ha":365,"x_min":0,"x_max":0,"o":"m 333 738 l 210 743 l 210 447 l 333 453 l 333 393 l 210 397 l 215 250 l 149 250 l 154 397 l 32 393 l 32 453 l 154 447 l 154 743 l 32 738 l 32 797 l 154 793 l 149 940 l 215 940 l 210 793 l 333 797 "},"•":{"ha":497,"x_min":0,"x_max":0,"o":"m 400 336 b 356 231 400 295 385 260 b 250 188 326 202 291 188 b 144 231 209 188 174 202 b 100 336 115 260 100 295 b 144 442 100 377 115 412 b 250 486 174 471 209 486 b 356 442 291 486 326 471 b 400 336 385 412 400 377 "},"…":{"ha":960,"x_min":0,"x_max":0,"o":"m 236 63 b 213 9 236 42 228 24 b 160 -14 198 -6 180 -14 b 106 9 139 -14 122 -6 b 83 63 91 24 83 42 b 106 117 83 84 91 102 b 160 139 120 131 138 139 b 214 117 181 139 199 131 b 236 63 229 102 236 84 m 556 63 b 533 9 556 42 548 24 b 479 -14 517 -6 500 -14 b 426 9 459 -14 441 -6 b 403 63 410 24 403 42 b 425 117 403 84 410 102 b 479 139 440 131 458 139 b 533 117 500 139 519 131 b 556 63 548 102 556 84 m 875 63 b 853 9 875 42 868 24 b 800 -14 838 -6 820 -14 b 747 9 780 -14 762 -6 b 724 63 731 24 724 42 b 747 117 724 84 731 102 b 800 139 762 131 780 139 b 853 117 820 139 838 131 b 875 63 868 102 875 84 "},"‰":{"ha":1506,"x_min":0,"x_max":0,"o":"m 490 710 b 428 548 490 645 469 591 b 267 483 386 505 332 483 b 106 548 201 483 147 505 b 43 710 64 591 43 645 b 106 875 43 776 64 831 b 267 940 147 919 201 940 b 428 875 332 940 386 919 b 490 710 469 831 490 776 m 254 0 l 178 0 l 769 926 l 847 926 m 972 211 b 910 48 972 145 952 91 b 750 -17 869 5 816 -17 b 589 49 684 -17 631 5 b 526 211 547 92 526 146 b 589 375 526 277 547 331 b 750 440 631 419 684 440 b 910 375 815 440 868 419 b 972 211 951 331 972 277 m 407 710 b 368 828 407 758 394 797 b 267 875 342 859 308 875 b 166 828 226 875 192 859 b 126 710 140 797 126 758 b 166 595 126 664 140 626 b 267 549 192 564 226 549 b 367 595 307 549 341 564 b 407 710 394 626 407 664 m 890 211 b 851 328 890 258 877 297 b 750 375 825 359 792 375 b 648 328 708 375 674 359 b 608 211 622 297 608 258 b 648 95 608 165 622 126 b 750 49 674 64 708 49 b 851 95 791 49 824 64 b 890 211 877 126 890 165 m 1463 211 b 1400 49 1463 146 1442 92 b 1239 -17 1358 5 1305 -17 b 1078 49 1173 -17 1119 5 b 1015 211 1036 92 1015 146 b 1078 375 1015 277 1036 331 b 1239 440 1119 419 1173 440 b 1400 375 1305 440 1358 419 b 1463 211 1442 331 1463 277 m 1379 211 b 1340 328 1379 258 1366 297 b 1239 375 1314 359 1281 375 b 1138 328 1197 375 1163 359 b 1099 211 1112 297 1099 258 b 1138 95 1099 165 1112 126 b 1239 49 1165 64 1198 49 b 1340 95 1280 49 1313 64 b 1379 211 1366 126 1379 165 "},"‹":{"ha":410,"x_min":0,"x_max":0,"o":"m 264 88 l 42 338 l 264 583 l 368 583 l 146 338 l 368 88 "},"›":{"ha":410,"x_min":0,"x_max":0,"o":"m 146 88 l 42 88 l 264 338 l 42 583 l 146 583 l 368 338 "},"⁄":{"ha":193,"x_min":0,"x_max":0,"o":"m -162 0 l -237 0 l 354 926 l 431 926 "},"⁰":{"ha":539,"x_min":0,"x_max":0,"o":"m 494 863 b 438 661 494 786 475 719 b 269 575 400 604 344 575 b 102 660 195 575 140 603 b 46 863 65 717 46 785 b 102 1064 46 940 65 1007 b 269 1149 140 1120 195 1149 b 438 1063 344 1149 400 1120 b 494 863 475 1006 494 939 m 408 863 b 374 1019 408 925 397 978 b 269 1081 352 1060 317 1081 b 164 1019 221 1081 186 1060 b 131 863 142 978 131 925 b 165 706 131 800 142 747 b 269 643 187 664 222 643 b 374 706 317 643 352 664 b 408 863 397 747 408 800 "},"⁴":{"ha":539,"x_min":0,"x_max":0,"o":"m 410 724 l 410 585 l 326 585 l 326 724 l 54 724 l 54 786 l 294 1140 l 410 1140 l 410 792 l 489 792 l 489 724 m 326 1067 l 138 792 l 326 792 "},"⁵":{"ha":539,"x_min":0,"x_max":0,"o":"m 478 760 b 418 626 478 704 458 659 b 267 575 378 592 328 575 b 61 665 175 575 106 605 l 110 719 b 267 643 149 669 201 643 b 360 676 305 643 336 654 b 396 757 384 697 396 725 b 361 840 396 791 384 819 b 269 872 338 862 307 872 b 138 818 219 872 175 854 l 78 840 l 78 1140 l 440 1140 l 440 1072 l 163 1072 l 163 886 b 294 936 196 919 240 936 b 424 890 345 936 389 921 b 478 760 460 859 478 815 "},"⁶":{"ha":539,"x_min":0,"x_max":0,"o":"m 488 758 b 431 628 488 707 469 664 b 282 575 393 593 343 575 b 110 656 205 575 148 602 b 53 863 72 710 53 779 b 115 1067 53 945 74 1013 b 294 1149 157 1122 217 1149 b 457 1085 360 1149 414 1127 l 417 1026 b 294 1081 383 1063 343 1081 b 178 1022 244 1081 205 1061 b 136 878 151 982 137 934 b 138 854 136 868 137 860 b 203 913 152 876 174 896 b 296 939 233 930 263 939 b 433 892 350 939 396 923 b 488 758 469 860 488 816 m 403 756 b 367 842 403 794 391 822 b 275 872 343 862 312 872 b 199 851 249 872 224 865 b 139 796 175 838 155 819 b 178 688 142 754 155 718 b 279 643 201 658 235 643 b 369 678 317 643 347 655 b 403 756 392 701 403 727 "},"⁷":{"ha":503,"x_min":0,"x_max":0,"o":"m 218 585 l 125 585 l 356 1072 l 46 1072 l 46 1140 l 449 1140 l 449 1083 "},"⁸":{"ha":539,"x_min":0,"x_max":0,"o":"m 482 726 b 421 615 482 678 462 641 b 269 575 380 588 330 575 b 118 615 209 575 159 588 b 57 726 77 641 57 678 b 97 818 57 762 70 792 b 197 871 124 844 157 862 b 103 919 159 880 128 896 b 67 1003 79 941 67 969 b 127 1112 67 1051 87 1087 b 269 1149 167 1136 215 1149 b 412 1112 324 1149 372 1136 b 472 1003 452 1087 472 1051 b 435 919 472 969 460 941 b 342 871 411 896 380 880 b 442 818 381 862 415 844 b 482 726 469 792 482 762 m 389 993 b 356 1059 389 1022 378 1044 b 269 1082 333 1074 305 1082 b 183 1058 234 1082 205 1074 b 149 993 160 1043 149 1021 b 269 899 149 950 189 919 b 389 993 349 917 389 949 m 399 733 b 354 808 399 766 384 791 b 269 840 325 826 296 837 b 184 808 243 837 214 826 b 139 733 154 791 139 766 b 177 666 139 706 152 683 b 269 640 203 649 233 640 b 361 666 306 640 336 649 b 399 733 386 683 399 706 "},"⁹":{"ha":539,"x_min":0,"x_max":0,"o":"m 53 965 b 110 1096 53 1017 72 1061 b 258 1149 148 1131 197 1149 b 431 1067 335 1149 393 1122 b 488 861 469 1013 488 944 b 424 656 488 779 466 710 b 244 575 382 602 322 575 b 83 639 178 575 124 596 l 124 697 b 244 643 155 661 195 643 b 361 702 295 643 334 663 b 403 847 388 741 402 790 l 403 869 b 336 810 387 847 365 828 b 244 785 307 793 277 785 b 108 832 190 785 144 800 b 53 965 71 863 53 908 m 136 968 b 172 881 136 930 148 901 b 264 851 196 861 227 851 b 401 929 320 851 366 877 b 362 1036 398 971 384 1006 b 263 1081 339 1066 306 1081 b 170 1046 224 1081 193 1069 b 136 968 147 1023 136 997 "},"⁽":{"ha":224,"x_min":0,"x_max":0,"o":"m 161 494 b 36 863 78 597 36 720 b 161 1231 36 1004 78 1127 l 210 1208 b 122 863 151 1094 122 979 b 210 517 122 746 151 631 "},"⁾":{"ha":224,"x_min":0,"x_max":0,"o":"m 206 863 b 79 494 206 722 163 599 l 32 517 b 119 863 90 631 119 746 b 32 1208 119 979 90 1094 l 79 1231 b 172 1060 119 1181 150 1125 b 206 863 194 995 206 929 "},"ⁿ":{"ha":553,"x_min":0,"x_max":0,"o":"m 389 453 l 389 732 b 292 833 389 800 356 833 b 219 815 267 833 243 827 b 164 769 196 802 178 787 l 164 453 l 83 453 l 83 889 l 164 889 l 164 828 b 324 900 208 876 262 900 b 437 862 377 900 415 887 b 469 751 459 836 469 800 l 469 453 "},"₀":{"ha":539,"x_min":0,"x_max":0,"o":"m 494 75 b 438 -126 494 -2 475 -69 b 269 -212 400 -184 344 -212 b 102 -127 195 -212 140 -184 b 46 75 65 -70 46 -3 b 102 276 46 153 65 220 b 269 361 140 333 195 361 b 438 276 344 361 400 333 b 494 75 475 219 494 152 m 408 75 b 374 231 408 138 397 190 b 269 293 352 272 317 293 b 164 231 221 293 186 272 b 131 75 142 190 131 138 b 165 -82 131 12 142 -40 b 269 -144 187 -124 222 -144 b 374 -82 317 -144 352 -124 b 408 75 397 -40 408 12 "},"₁":{"ha":326,"x_min":0,"x_max":0,"o":"m 160 -203 l 160 244 l 68 149 l 19 200 l 169 353 l 243 353 l 243 -203 "},"₂":{"ha":539,"x_min":0,"x_max":0,"o":"m 69 -203 l 69 -140 b 315 56 185 -57 267 9 b 388 192 363 104 388 149 b 353 267 388 225 376 250 b 269 293 330 284 302 293 b 179 272 237 293 207 286 b 114 221 151 258 130 241 l 68 274 b 272 361 114 332 182 361 b 413 319 328 361 375 347 b 471 197 452 292 471 251 b 401 44 471 146 448 95 b 192 -135 355 -8 285 -67 l 474 -135 l 474 -203 "},"₃":{"ha":539,"x_min":0,"x_max":0,"o":"m 476 -51 b 420 -168 476 -100 458 -138 b 267 -212 383 -198 331 -212 b 58 -122 171 -212 102 -182 l 104 -69 b 265 -144 144 -119 198 -144 b 359 -118 305 -144 336 -136 b 393 -47 382 -100 393 -77 b 249 49 393 17 345 49 b 193 47 217 49 199 48 l 193 117 b 249 115 200 116 218 115 b 385 204 339 115 385 145 b 349 269 385 232 373 254 b 260 293 326 285 296 293 b 108 226 200 293 150 271 l 65 275 b 268 361 116 332 184 361 b 412 321 327 361 375 348 b 467 213 448 294 467 258 b 429 124 467 175 454 146 b 343 85 404 103 375 89 b 434 44 375 81 406 67 b 476 -51 462 20 476 -12 "},"₄":{"ha":539,"x_min":0,"x_max":0,"o":"m 410 -64 l 410 -203 l 326 -203 l 326 -64 l 54 -64 l 54 -1 l 294 353 l 410 353 l 410 4 l 489 4 l 489 -64 m 326 279 l 138 4 l 326 4 "},"₅":{"ha":539,"x_min":0,"x_max":0,"o":"m 478 -28 b 418 -162 478 -83 458 -128 b 267 -212 378 -196 328 -212 b 61 -122 175 -212 106 -182 l 110 -68 b 267 -144 149 -119 201 -144 b 360 -112 305 -144 336 -134 b 396 -31 384 -90 396 -63 b 361 53 396 4 384 31 b 269 85 338 74 307 85 b 138 31 219 85 175 67 l 78 53 l 78 353 l 440 353 l 440 285 l 163 285 l 163 99 b 294 149 196 132 240 149 b 424 102 345 149 389 133 b 478 -28 460 71 478 28 "},"₆":{"ha":539,"x_min":0,"x_max":0,"o":"m 488 -29 b 431 -159 488 -80 469 -123 b 282 -212 393 -195 343 -212 b 110 -131 205 -212 148 -185 b 53 75 72 -77 53 -8 b 115 280 53 157 74 226 b 294 361 157 334 217 361 b 457 297 360 361 414 340 l 417 239 b 294 293 383 275 343 293 b 178 234 244 293 205 273 b 136 90 151 195 137 147 b 138 67 136 80 137 72 b 203 126 152 89 174 109 b 296 151 233 143 263 151 b 433 104 350 151 396 136 b 488 -29 469 73 488 28 m 403 -32 b 367 55 403 6 391 35 b 275 85 343 75 312 85 b 199 64 249 85 224 78 b 139 8 175 50 155 31 b 178 -99 142 -33 155 -69 b 279 -144 201 -129 235 -144 b 369 -110 317 -144 347 -133 b 403 -32 392 -87 403 -61 "},"₇":{"ha":503,"x_min":0,"x_max":0,"o":"m 218 -203 l 125 -203 l 356 285 l 46 285 l 46 353 l 449 353 l 449 296 "},"₈":{"ha":539,"x_min":0,"x_max":0,"o":"m 482 -61 b 421 -173 482 -109 462 -147 b 269 -212 380 -199 330 -212 b 118 -173 209 -212 159 -199 b 57 -61 77 -147 57 -109 b 97 31 57 -26 70 5 b 197 83 124 56 157 74 b 103 131 159 93 128 109 b 67 215 79 154 67 182 b 127 324 67 263 87 300 b 269 361 167 349 215 361 b 412 324 324 361 372 349 b 472 215 452 300 472 263 b 435 131 472 182 460 154 b 342 83 411 109 380 93 b 442 31 381 74 415 56 b 482 -61 469 5 482 -26 m 389 206 b 356 272 389 234 378 256 b 269 294 333 287 305 294 b 183 271 234 294 205 287 b 149 206 160 255 149 233 b 269 111 149 163 189 131 b 389 206 349 130 389 161 m 399 -54 b 354 21 399 -22 384 3 b 269 53 325 38 296 49 b 184 21 243 49 214 38 b 139 -54 154 3 139 -22 b 177 -122 139 -82 152 -104 b 269 -147 203 -139 233 -147 b 361 -122 306 -147 336 -139 b 399 -54 386 -104 399 -82 "},"₉":{"ha":539,"x_min":0,"x_max":0,"o":"m 53 178 b 110 308 53 230 72 273 b 258 361 148 344 197 361 b 431 280 335 361 393 334 b 488 74 469 226 488 157 b 424 -131 488 -9 466 -77 b 244 -212 382 -185 322 -212 b 83 -149 178 -212 124 -191 l 124 -90 b 244 -144 155 -126 195 -144 b 361 -85 295 -144 334 -125 b 403 60 388 -46 402 2 l 403 82 b 336 23 387 60 365 40 b 244 -3 307 6 277 -3 b 108 44 190 -3 144 13 b 53 178 71 76 53 120 m 136 181 b 172 94 136 143 148 114 b 264 64 196 74 227 64 b 401 142 320 64 366 90 b 362 249 398 183 384 219 b 263 293 339 278 306 293 b 170 258 224 293 193 281 b 136 181 147 235 136 209 "},"₍":{"ha":224,"x_min":0,"x_max":0,"o":"m 161 -293 b 36 75 78 -190 36 -68 b 161 443 36 217 78 339 l 210 421 b 122 75 151 307 122 192 b 210 -271 122 -42 151 -157 "},"₎":{"ha":224,"x_min":0,"x_max":0,"o":"m 206 75 b 79 -293 206 -66 163 -188 l 32 -271 b 119 75 90 -157 119 -42 b 32 421 119 192 90 307 l 79 443 b 172 272 119 394 150 337 b 206 75 194 207 206 142 "},"₡":{"ha":946,"x_min":0,"x_max":0,"o":"m 553 -17 b 522 -15 539 -17 529 -16 l 482 -139 l 411 -139 l 454 -7 b 346 25 413 0 377 11 l 292 -139 l 222 -139 l 288 57 b 133 225 222 99 170 155 b 76 463 95 295 76 375 b 213 808 76 603 122 718 b 553 942 304 897 418 942 b 568 941 556 942 562 941 b 583 940 575 941 580 940 l 625 1067 l 694 1067 l 649 932 b 756 893 686 925 721 912 l 814 1067 l 883 1067 l 813 856 b 904 758 844 831 875 799 l 808 704 b 775 744 797 720 786 733 l 557 86 b 701 124 608 87 656 100 b 808 221 746 149 781 181 l 906 168 b 553 -17 816 45 698 -17 m 196 463 b 325 167 196 338 239 240 l 549 839 b 296 731 447 837 363 801 b 196 463 229 661 196 572 m 381 128 b 488 92 411 111 447 99 l 721 789 b 615 832 687 810 651 825 l 381 128 "},"₣":{"ha":779,"x_min":0,"x_max":0,"o":"m 122 0 l 122 190 l 14 190 l 14 257 l 122 257 l 122 926 l 729 926 l 729 824 l 238 824 l 238 525 l 719 525 l 719 422 l 238 422 l 238 257 l 518 257 l 518 190 l 238 190 l 238 0 "},"₤":{"ha":719,"x_min":0,"x_max":0,"o":"m 28 519 l 115 519 b 67 667 83 565 67 614 b 158 860 67 743 97 807 b 378 940 219 914 293 940 b 546 899 441 940 497 927 b 658 785 595 872 632 834 l 565 729 b 499 810 553 761 531 788 b 389 843 466 832 430 843 b 249 794 334 843 288 827 b 192 665 211 762 192 719 b 246 519 192 614 210 566 l 511 519 l 511 456 l 297 456 b 346 358 323 419 339 386 l 511 358 l 511 294 l 350 294 b 246 129 345 231 311 175 b 318 142 271 138 295 142 b 425 113 349 142 384 132 b 524 85 466 94 499 85 b 603 102 552 85 579 91 b 656 140 628 114 645 126 l 706 47 b 518 -18 660 4 598 -18 b 386 14 475 -18 431 -7 b 269 46 342 35 303 46 b 106 -10 231 46 176 27 l 65 78 b 201 172 125 104 170 135 b 249 289 233 208 249 247 l 249 294 l 28 294 l 28 358 l 235 358 b 167 456 226 379 204 411 l 28 456 "},"₦":{"ha":1013,"x_min":0,"x_max":0,"o":"m 778 0 l 532 336 l 238 336 l 238 0 l 122 0 l 122 336 l 14 336 l 14 403 l 122 403 l 122 533 l 14 533 l 14 600 l 122 600 l 122 926 l 240 926 l 481 600 l 774 600 l 774 926 l 889 926 l 889 600 l 997 600 l 997 533 l 889 533 l 889 403 l 997 403 l 997 336 l 889 336 l 889 0 m 238 403 l 483 403 l 388 533 l 238 533 m 626 403 l 774 403 l 774 533 l 529 533 m 238 600 l 339 600 l 238 739 m 774 203 l 774 336 l 675 336 "},"₧":{"ha":889,"x_min":0,"x_max":0,"o":"m 782 613 b 693 437 774 541 744 483 b 494 368 642 391 576 368 l 238 368 l 238 0 l 122 0 l 122 613 l 14 613 l 14 685 l 122 685 l 122 926 l 494 926 b 693 858 576 926 642 903 b 782 685 744 812 774 754 l 882 685 l 882 613 m 481 471 b 602 509 529 471 569 484 b 663 613 635 534 655 569 l 238 613 l 238 471 l 481 471 m 238 685 l 661 685 b 601 785 654 726 634 760 b 481 824 568 811 528 824 l 238 824 "},"₨":{"ha":1415,"x_min":0,"x_max":0,"o":"m 644 0 l 410 368 l 224 368 l 224 0 l 108 0 l 108 926 l 481 926 b 691 850 567 926 637 901 b 772 647 745 799 772 731 b 702 457 772 568 749 504 b 531 378 655 410 598 383 l 781 0 m 467 469 b 601 519 521 469 566 486 b 653 647 635 553 653 595 b 601 775 653 700 635 743 b 467 824 566 807 521 824 l 224 824 l 224 469 l 467 469 m 1088 -17 b 817 89 975 -17 884 19 l 869 164 b 965 96 893 137 924 114 b 1090 68 1005 77 1047 68 b 1208 100 1140 68 1179 79 b 1250 183 1236 121 1250 149 b 1207 253 1250 213 1236 236 b 1103 292 1178 271 1144 284 b 981 323 1062 301 1022 311 b 878 383 941 334 906 354 b 835 494 849 411 835 448 b 901 632 835 549 857 595 b 1083 688 946 669 1006 688 b 1332 590 1186 688 1269 655 l 1283 518 b 1083 603 1236 575 1169 603 b 975 573 1038 603 1002 593 b 935 497 948 553 935 528 b 965 442 935 475 945 456 b 1042 410 986 427 1011 416 b 1142 385 1073 403 1107 395 b 1242 351 1178 375 1211 363 b 1319 290 1273 338 1299 318 b 1350 186 1340 261 1350 227 b 1281 40 1350 127 1327 78 b 1088 -17 1235 2 1171 -17 "},"₩":{"ha":1226,"x_min":0,"x_max":0,"o":"m 817 0 l 724 336 l 500 336 l 408 0 l 283 0 l 188 336 l 28 336 l 28 403 l 168 403 l 131 533 l 28 533 l 28 600 l 113 600 l 19 926 l 147 926 l 233 600 l 475 600 l 565 926 l 661 926 l 750 600 l 990 600 l 1078 926 l 1207 926 l 1113 600 l 1197 600 l 1197 533 l 1094 533 l 1057 403 l 1197 403 l 1197 336 l 1038 336 l 942 0 m 286 403 l 421 403 l 457 533 l 251 533 m 804 403 l 939 403 l 974 533 l 768 533 m 518 403 l 706 403 l 671 533 l 554 533 m 353 154 l 403 336 l 304 336 m 874 154 l 921 336 l 824 336 m 572 600 l 653 600 l 613 747 "},"₪":{"ha":1140,"x_min":0,"x_max":0,"o":"m 449 764 b 761 469 657 764 761 666 l 761 225 l 660 225 l 660 463 b 449 672 660 602 589 672 l 206 672 l 206 0 l 104 0 l 104 764 l 449 764 m 379 0 l 379 538 l 481 538 l 481 92 l 724 92 b 935 301 864 92 935 162 l 935 764 l 1036 764 l 1036 294 b 724 0 1036 98 932 0 "},"€":{"ha":965,"x_min":0,"x_max":0,"o":"m 578 -17 b 284 77 466 -17 368 15 b 118 329 200 140 145 224 l 43 329 l 43 401 l 104 401 b 101 463 102 427 101 448 b 104 526 101 477 102 499 l 43 526 l 43 600 l 119 600 b 286 849 147 704 203 787 b 578 942 369 911 467 942 b 929 758 727 942 844 881 l 833 704 b 724 802 806 745 770 778 b 578 839 678 827 630 839 b 369 774 499 839 430 817 b 242 600 309 731 267 673 l 661 600 l 661 526 l 225 526 b 221 463 222 505 221 484 b 225 401 221 441 222 421 l 661 401 l 661 329 l 242 329 b 369 152 266 255 308 196 b 578 86 429 108 499 86 b 724 124 630 86 678 99 b 833 221 770 149 806 181 l 931 168 b 578 -17 841 45 723 -17 "},"ℓ":{"ha":660,"x_min":0,"x_max":0,"o":"m 106 140 b 254 -17 106 36 155 -17 b 378 26 308 -17 349 -2 l 347 97 b 276 68 326 78 302 68 b 210 156 232 68 210 97 l 210 390 l 446 549 b 570 653 500 585 541 619 b 614 765 599 686 614 724 b 544 890 614 815 591 857 b 369 940 497 924 439 940 b 179 872 292 940 228 917 b 106 701 130 826 106 769 m 210 494 l 210 700 b 255 818 210 749 225 788 b 368 863 285 848 323 863 b 470 834 407 863 441 853 b 514 761 499 815 514 791 b 489 694 514 736 506 714 b 407 626 472 675 445 652 "},"№":{"ha":1546,"x_min":0,"x_max":0,"o":"m 764 0 l 224 739 l 224 0 l 108 0 l 108 926 l 226 926 l 760 203 l 760 926 l 875 926 l 875 0 m 1264 486 b 1101 553 1197 486 1143 508 b 1039 715 1060 597 1039 651 b 1101 878 1039 780 1059 834 b 1264 944 1142 922 1196 944 b 1428 878 1332 944 1387 922 b 1490 715 1470 834 1490 780 b 1428 552 1490 650 1470 596 b 1264 486 1387 508 1332 486 m 1264 553 b 1369 599 1308 553 1344 568 b 1408 715 1395 630 1408 669 b 1369 831 1408 762 1395 800 b 1264 876 1344 861 1308 876 b 1160 831 1220 876 1186 861 b 1122 715 1135 800 1122 762 b 1160 599 1122 668 1135 629 b 1264 553 1186 568 1220 553 "},"℗":{"ha":1081,"x_min":0,"x_max":0,"o":"m 1019 464 b 879 126 1019 332 973 220 b 540 -15 786 32 673 -15 b 201 126 408 -15 295 32 b 61 464 108 220 61 332 b 201 802 61 595 108 708 b 540 943 295 896 408 943 b 879 802 673 943 786 896 b 1019 464 973 708 1019 595 m 976 464 b 848 772 976 583 934 686 b 540 900 762 857 660 900 b 233 772 421 900 318 857 b 104 464 147 686 104 583 b 233 156 104 344 147 242 b 540 28 318 71 421 28 b 848 156 660 28 762 71 b 976 464 934 242 976 344 m 764 582 b 713 467 764 534 747 495 b 589 424 679 438 638 424 l 433 424 l 433 182 l 382 182 l 382 744 l 589 744 b 713 700 638 744 679 730 b 764 582 747 670 764 631 m 711 582 b 677 665 711 617 700 645 b 589 696 654 686 625 696 l 433 696 l 433 471 l 589 471 b 677 501 625 471 654 481 b 711 582 700 522 711 549 "},"℠":{"ha":661,"x_min":0,"x_max":0,"o":"m 571 621 l 571 874 l 467 621 l 456 621 l 351 874 l 351 621 l 313 621 l 313 926 l 372 926 l 461 704 l 550 926 l 610 926 l 610 621 m 261 703 b 230 635 261 674 251 651 b 140 610 209 618 179 610 b 21 660 89 610 50 626 l 46 689 b 139 644 72 659 103 644 b 215 699 190 644 215 663 b 185 740 215 716 205 730 b 121 761 166 750 144 757 b 56 788 98 765 76 774 b 26 847 36 803 26 822 b 58 910 26 873 37 894 b 138 935 78 927 105 935 b 251 890 188 935 226 920 l 226 864 b 139 901 206 889 177 901 b 91 888 119 901 103 897 b 72 851 78 878 72 866 b 101 814 72 836 82 823 b 167 794 121 805 143 798 b 232 765 191 790 213 780 b 261 703 251 750 261 730 "},"™":{"ha":631,"x_min":0,"x_max":0,"o":"m 543 621 l 543 874 l 439 621 l 428 621 l 324 874 l 324 621 l 285 621 l 285 926 l 344 926 l 433 704 l 522 926 l 582 926 l 582 621 m 149 890 l 149 621 l 110 621 l 110 890 l 24 890 l 24 926 l 235 926 l 235 890 "},"℮":{"ha":1169,"x_min":0,"x_max":0,"o":"m 249 450 b 242 443 244 450 242 448 l 242 179 b 254 147 242 166 246 156 b 588 4 345 52 456 4 b 935 164 727 4 843 57 l 1014 164 b 826 26 964 106 901 59 b 585 -25 751 -8 671 -25 b 202 118 436 -25 308 23 b 43 463 96 213 43 328 b 202 807 43 597 96 712 b 585 950 308 902 436 950 b 967 807 734 950 861 902 b 1126 463 1073 712 1126 597 l 1126 450 m 928 750 b 914 783 928 763 923 774 b 588 921 824 875 715 921 b 256 779 458 921 347 874 b 242 746 246 770 242 759 l 242 485 b 249 476 242 479 244 476 l 922 476 b 928 485 926 476 928 479 "},"⅓":{"ha":1121,"x_min":0,"x_max":0,"o":"m 226 0 l 151 0 l 743 926 l 819 926 m 1058 151 b 1002 35 1058 103 1040 64 b 849 -10 965 5 913 -10 b 640 81 753 -10 684 20 l 686 133 b 847 58 726 83 780 58 b 941 85 887 58 918 67 b 975 156 964 102 975 126 b 831 251 975 219 927 251 b 775 250 799 251 781 251 l 775 319 b 831 318 781 319 800 318 b 967 407 921 318 967 348 b 931 472 967 435 955 456 b 842 496 908 488 878 496 b 690 429 782 496 732 474 l 647 478 b 850 564 698 535 766 564 b 994 524 909 564 957 550 b 1049 415 1030 497 1049 461 b 1011 327 1049 378 1036 349 b 925 288 986 305 957 292 b 1016 247 957 284 988 270 b 1058 151 1044 223 1058 191 m 160 371 l 160 818 l 68 722 l 19 774 l 169 926 l 243 926 l 243 371 "},"⅔":{"ha":1271,"x_min":0,"x_max":0,"o":"m 376 0 l 301 0 l 893 926 l 969 926 m 1208 151 b 1152 35 1208 103 1190 64 b 999 -10 1115 5 1063 -10 b 790 81 903 -10 834 20 l 836 133 b 997 58 876 83 930 58 b 1091 85 1037 58 1068 67 b 1125 156 1114 102 1125 126 b 981 251 1125 219 1077 251 b 925 250 949 251 931 251 l 925 319 b 981 318 931 319 950 318 b 1117 407 1071 318 1117 348 b 1081 472 1117 435 1105 456 b 992 496 1058 488 1028 496 b 840 429 932 496 882 474 l 797 478 b 1000 564 848 535 916 564 b 1144 524 1059 564 1107 550 b 1199 415 1180 497 1199 461 b 1161 327 1199 378 1186 349 b 1075 288 1136 305 1107 292 b 1166 247 1107 284 1138 270 b 1208 151 1194 223 1208 191 m 69 371 l 69 433 b 315 630 185 517 267 582 b 388 765 363 678 388 723 b 353 841 388 799 376 824 b 269 867 330 858 302 867 b 179 846 237 867 207 860 b 114 794 151 832 130 815 l 68 847 b 272 935 114 906 182 935 b 413 893 328 935 375 921 b 471 771 452 865 471 825 b 401 617 471 720 448 669 b 192 439 355 566 285 506 l 474 439 l 474 371 "},"⅛":{"ha":1121,"x_min":0,"x_max":0,"o":"m 226 0 l 151 0 l 743 926 l 819 926 m 1064 142 b 1003 30 1064 94 1044 56 b 851 -10 962 3 912 -10 b 700 30 791 -10 741 3 b 639 142 659 56 639 94 b 679 233 639 177 652 207 b 779 286 706 259 739 277 b 685 334 741 295 710 311 b 649 418 661 357 649 385 b 709 527 649 466 669 503 b 851 564 749 552 797 564 b 994 527 906 564 953 552 b 1054 418 1034 503 1054 466 b 1017 334 1054 385 1042 357 b 924 286 993 311 962 295 b 1024 233 963 277 997 259 b 1064 142 1050 207 1064 177 m 971 408 b 938 474 971 437 960 459 b 851 497 915 490 887 497 b 765 474 816 497 787 489 b 731 408 742 458 731 436 b 851 314 731 366 771 334 b 971 408 931 332 971 364 m 981 149 b 936 224 981 181 966 206 b 851 256 906 241 878 252 b 766 224 825 252 796 241 b 721 149 736 206 721 181 b 759 81 721 121 734 98 b 851 56 784 64 815 56 b 943 81 888 56 918 64 b 981 149 968 98 981 121 m 160 371 l 160 818 l 68 722 l 19 774 l 169 926 l 243 926 l 243 371 "},"⅜":{"ha":1271,"x_min":0,"x_max":0,"o":"m 376 0 l 301 0 l 893 926 l 969 926 m 1214 142 b 1153 30 1214 94 1194 56 b 1001 -10 1112 3 1062 -10 b 850 30 941 -10 891 3 b 789 142 809 56 789 94 b 829 233 789 177 802 207 b 929 286 856 259 889 277 b 835 334 891 295 860 311 b 799 418 811 357 799 385 b 859 527 799 466 819 503 b 1001 564 899 552 947 564 b 1144 527 1056 564 1103 552 b 1204 418 1184 503 1204 466 b 1167 334 1204 385 1192 357 b 1074 286 1143 311 1112 295 b 1174 233 1113 277 1147 259 b 1214 142 1200 207 1214 177 m 1121 408 b 1088 474 1121 437 1110 459 b 1001 497 1065 490 1037 497 b 915 474 966 497 937 489 b 881 408 892 458 881 436 b 1001 314 881 366 921 334 b 1121 408 1081 332 1121 364 m 1131 149 b 1086 224 1131 181 1116 206 b 1001 256 1056 241 1028 252 b 916 224 975 252 946 241 b 871 149 886 206 871 181 b 909 81 871 121 884 98 b 1001 56 934 64 965 56 b 1093 81 1038 56 1068 64 b 1131 149 1118 98 1131 121 m 476 522 b 420 406 476 474 458 435 b 267 361 383 376 331 361 b 58 451 171 361 102 391 l 104 504 b 265 429 144 454 198 429 b 359 456 305 429 336 438 b 393 526 382 473 393 497 b 249 622 393 590 345 622 b 193 621 217 622 199 622 l 193 690 b 249 689 200 689 218 689 b 385 778 339 689 385 719 b 349 843 385 806 373 827 b 260 867 326 859 296 867 b 108 800 200 867 150 844 l 65 849 b 268 935 116 906 184 935 b 412 894 327 935 375 921 b 467 786 448 868 467 831 b 429 698 467 749 454 720 b 343 658 404 676 375 663 b 434 617 375 655 406 641 b 476 522 462 594 476 562 "},"⅝":{"ha":1267,"x_min":0,"x_max":0,"o":"m 372 0 l 297 0 l 889 926 l 965 926 m 1210 142 b 1149 30 1210 94 1189 56 b 997 -10 1108 3 1057 -10 b 846 30 937 -10 887 3 b 785 142 805 56 785 94 b 825 233 785 177 798 207 b 925 286 852 259 885 277 b 831 334 887 295 856 311 b 794 418 807 357 794 385 b 855 527 794 466 815 503 b 997 564 895 552 943 564 b 1140 527 1052 564 1099 552 b 1200 418 1180 503 1200 466 b 1163 334 1200 385 1188 357 b 1069 286 1139 311 1107 295 b 1169 233 1109 277 1143 259 b 1210 142 1196 207 1210 177 m 1117 408 b 1083 474 1117 437 1106 459 b 997 497 1061 490 1032 497 b 910 474 962 497 933 489 b 876 408 888 458 876 436 b 997 314 876 366 917 334 b 1117 408 1077 332 1117 364 m 1126 149 b 1082 224 1126 181 1112 206 b 997 256 1052 241 1024 252 b 912 224 970 252 942 241 b 867 149 882 206 867 181 b 905 81 867 121 879 98 b 997 56 930 64 961 56 b 1089 81 1033 56 1064 64 b 1126 149 1114 98 1126 121 m 478 546 b 418 412 478 490 458 446 b 267 361 378 378 328 361 b 61 451 175 361 106 391 l 110 506 b 267 429 149 455 201 429 b 360 462 305 429 336 440 b 396 543 384 484 396 511 b 361 626 396 577 384 605 b 269 658 338 648 307 658 b 138 604 219 658 175 640 l 78 626 l 78 926 l 440 926 l 440 858 l 163 858 l 163 672 b 294 722 196 706 240 722 b 424 676 345 722 389 707 b 478 546 460 645 478 601 "},"⅞":{"ha":1153,"x_min":0,"x_max":0,"o":"m 258 0 l 183 0 l 775 926 l 851 926 m 1096 142 b 1035 30 1096 94 1075 56 b 883 -10 994 3 944 -10 b 732 30 823 -10 773 3 b 671 142 691 56 671 94 b 711 233 671 177 684 207 b 811 286 738 259 771 277 b 717 334 773 295 742 311 b 681 418 693 357 681 385 b 741 527 681 466 701 503 b 883 564 781 552 829 564 b 1026 527 938 564 985 552 b 1086 418 1066 503 1086 466 b 1049 334 1086 385 1074 357 b 956 286 1025 311 994 295 b 1056 233 995 277 1029 259 b 1096 142 1082 207 1096 177 m 1003 408 b 969 474 1003 437 992 459 b 883 497 947 490 919 497 b 797 474 848 497 819 489 b 763 408 774 458 763 436 b 883 314 763 366 803 334 b 1003 408 963 332 1003 364 m 1013 149 b 968 224 1013 181 998 206 b 883 256 938 241 910 252 b 798 224 856 252 828 241 b 753 149 768 206 753 181 b 791 81 753 121 766 98 b 883 56 816 64 847 56 b 975 81 919 56 950 64 b 1013 149 1000 98 1013 121 m 218 371 l 125 371 l 356 858 l 46 858 l 46 926 l 449 926 l 449 869 "},"←":{"ha":808,"x_min":0,"x_max":0,"o":"m 374 293 l 390 113 l 0 397 l 390 681 l 374 501 l 747 501 l 747 293 "},"↑":{"ha":808,"x_min":0,"x_max":0,"o":"m 300 397 l 119 381 l 404 771 l 688 381 l 508 397 l 508 24 l 300 24 "},"→":{"ha":808,"x_min":0,"x_max":0,"o":"m 421 113 l 438 293 l 65 293 l 65 501 l 438 501 l 421 681 l 811 397 "},"↓":{"ha":808,"x_min":0,"x_max":0,"o":"m 508 397 l 689 414 l 404 24 l 121 414 l 300 397 l 300 771 l 508 771 "},"∂":{"ha":794,"x_min":0,"x_max":0,"o":"m 397 -17 b 156 81 297 -17 217 16 b 65 325 96 147 65 228 b 151 567 65 421 94 502 b 371 665 209 633 282 665 b 586 551 463 665 534 627 b 455 733 558 614 515 675 b 240 881 395 791 324 840 l 318 946 b 609 697 432 886 529 803 b 729 346 689 592 729 475 b 639 85 729 239 699 152 b 397 -17 579 17 498 -17 m 397 76 b 560 148 466 76 520 100 b 619 325 600 196 619 255 b 560 501 619 394 600 453 b 397 572 520 548 466 572 b 235 501 329 572 275 548 b 175 325 195 453 175 394 b 235 148 175 255 195 196 b 397 76 275 100 329 76 "},"∏":{"ha":983,"x_min":0,"x_max":0,"o":"m 671 -125 l 671 824 l 311 824 l 311 -125 l 196 -125 l 196 824 l 44 824 l 44 926 l 939 926 l 939 824 l 786 824 l 786 -125 "},"∑":{"ha":800,"x_min":0,"x_max":0,"o":"m 219 824 l 725 824 l 725 926 l 76 926 l 76 825 l 396 414 l 75 -22 l 75 -125 l 725 -125 l 725 -22 l 214 -22 l 536 415 "},"−":{"ha":693,"x_min":0,"x_max":0,"o":"m 40 428 l 40 500 l 653 500 l 653 428 "},"√":{"ha":1007,"x_min":0,"x_max":0,"o":"m 513 0 l 332 454 l 117 369 l 92 439 l 378 549 l 554 108 l 881 926 l 963 926 l 593 0 "},"∞":{"ha":911,"x_min":0,"x_max":0,"o":"m 256 236 b 96 305 186 236 133 259 b 40 465 59 351 40 404 b 95 627 40 527 59 581 b 256 696 132 673 185 696 b 373 653 299 696 338 681 b 456 543 408 624 435 588 b 538 653 476 588 503 624 b 657 696 573 681 613 696 b 817 628 727 696 781 673 b 871 465 853 582 871 528 b 816 305 871 404 853 351 b 657 236 779 259 726 236 b 538 279 613 236 573 250 b 456 389 503 308 476 344 b 373 279 435 344 408 308 b 256 236 338 250 299 236 m 650 310 b 755 353 694 310 729 324 b 793 465 780 383 793 420 b 755 578 793 512 780 549 b 650 622 729 608 694 622 b 490 465 583 622 530 570 b 650 310 530 362 583 310 m 263 310 b 422 465 329 310 382 362 b 357 577 406 510 384 547 b 263 622 330 607 299 622 b 157 578 218 622 183 608 b 118 465 131 549 118 512 b 157 353 118 420 131 383 b 263 310 183 324 218 310 "},"∫":{"ha":483,"x_min":0,"x_max":0,"o":"m 24 -139 l 24 -62 l 108 -62 b 174 -31 133 -62 155 -52 b 201 49 192 -9 201 17 l 201 879 b 253 1015 201 935 219 980 b 375 1067 288 1049 329 1067 l 460 1067 l 460 990 l 375 990 b 309 959 349 990 327 980 b 282 881 291 938 282 912 l 282 47 b 230 -87 282 -7 265 -52 b 108 -139 195 -122 155 -139 "},"≈":{"ha":693,"x_min":0,"x_max":0,"o":"m 40 375 b 193 329 84 344 135 329 b 339 369 237 329 285 343 b 499 410 393 396 446 410 b 653 372 554 410 606 397 l 653 290 b 499 338 607 322 556 338 b 353 297 455 338 406 324 b 193 256 299 269 246 256 b 40 293 137 256 86 268 m 40 638 b 193 592 84 607 135 592 b 339 632 237 592 285 605 b 499 672 393 659 446 672 b 653 635 554 672 606 660 l 653 553 b 499 599 609 583 558 599 b 353 558 455 599 406 585 b 193 518 299 531 246 518 b 40 556 137 518 86 531 "},"≠":{"ha":693,"x_min":0,"x_max":0,"o":"m 96 129 l 200 293 l 40 293 l 40 367 l 246 367 l 369 561 l 40 561 l 40 635 l 417 635 l 521 797 l 597 797 l 493 635 l 653 635 l 653 561 l 446 561 l 322 367 l 653 367 l 653 293 l 275 293 l 171 129 "},"≤":{"ha":693,"x_min":0,"x_max":0,"o":"m 40 440 l 40 514 l 653 818 l 653 731 l 129 476 l 653 225 l 653 138 m 40 0 l 40 74 l 653 74 l 653 0 "},"≥":{"ha":693,"x_min":0,"x_max":0,"o":"m 40 138 l 40 225 l 563 476 l 40 731 l 40 818 l 653 514 l 653 440 m 39 0 l 39 74 l 651 74 l 651 0 "},"⊲":{"ha":815,"x_min":0,"x_max":0,"o":"m 75 -32 l 75 826 l 818 397 "},"⊳":{"ha":815,"x_min":0,"x_max":0,"o":"m 743 -32 l 0 397 l 743 826 "},"⌘":{"ha":926,"x_min":0,"x_max":0,"o":"m 314 317 l 211 317 b 140 287 182 317 159 307 b 111 214 121 267 111 243 b 140 140 111 185 121 161 b 213 110 160 120 184 110 b 285 140 241 110 265 120 b 314 214 304 161 314 185 m 314 714 b 285 787 314 743 304 767 b 214 817 266 807 243 817 b 141 787 185 817 161 807 b 111 714 121 767 111 743 b 141 640 111 685 121 661 b 214 610 161 620 185 610 l 314 610 m 558 368 l 558 558 l 368 558 l 368 368 m 815 214 b 787 287 815 243 806 267 b 715 317 768 307 744 317 l 613 317 l 613 214 b 642 140 613 185 622 161 b 714 110 661 120 685 110 b 786 140 743 110 767 120 b 815 214 806 161 815 185 m 815 714 b 786 787 815 743 806 767 b 714 817 767 807 743 817 b 642 787 685 817 661 807 b 613 714 622 767 613 743 l 613 610 l 715 610 b 786 640 743 610 767 620 b 815 714 806 661 815 685 m 868 214 b 823 104 868 171 853 135 b 714 58 793 74 756 58 b 604 104 671 58 635 74 b 558 214 574 135 558 171 l 558 317 l 368 317 l 368 214 b 322 104 368 171 353 135 b 213 58 292 74 255 58 b 103 104 170 58 134 74 b 58 214 73 135 58 171 b 103 323 58 256 73 293 b 213 368 134 353 170 368 l 314 368 l 314 558 l 214 558 b 104 604 171 558 135 574 b 58 714 74 635 58 671 b 104 823 58 756 74 793 b 214 868 135 853 171 868 b 323 823 256 868 293 853 b 368 714 353 793 368 756 l 368 610 l 558 610 l 558 714 b 604 823 558 756 574 793 b 714 868 635 853 671 868 b 823 823 756 868 793 853 b 868 714 853 793 868 756 b 823 604 868 671 853 635 b 714 558 793 574 756 558 l 613 558 l 613 368 l 714 368 b 823 323 756 368 793 353 b 868 214 853 293 868 256 "},"■":{"ha":918,"x_min":0,"x_max":0,"o":"m 65 0 l 65 794 l 858 794 l 858 0 "},"▲":{"ha":856,"x_min":0,"x_max":0,"o":"m -3 42 l 426 785 l 857 40 "},"▼":{"ha":856,"x_min":0,"x_max":0,"o":"m 426 -35 l -3 708 l 857 708 "},"◊":{"ha":521,"x_min":0,"x_max":0,"o":"m 246 0 l 26 464 l 246 926 l 275 926 l 494 464 l 275 0 m 444 464 l 260 869 l 76 464 l 261 57 "},"●":{"ha":965,"x_min":0,"x_max":0,"o":"m 894 396 b 774 104 894 282 854 185 b 482 -17 693 24 596 -17 b 190 104 368 -17 271 24 b 69 396 110 185 69 282 b 190 688 69 510 110 607 b 482 808 271 768 368 808 b 774 688 596 808 693 768 b 894 396 854 607 894 510 "},"◼":{"ha":674,"x_min":0,"x_max":0,"o":"m 674 674 l 674 0 l 0 0 l 0 674 "},"★":{"ha":1054,"x_min":0,"x_max":0,"o":"m 728 347 l 853 -35 l 526 201 l 201 -35 l 325 347 l 0 585 l 403 585 l 526 968 l 651 585 l 1054 585 "},"☐":{"ha":918,"x_min":0,"x_max":0,"o":"m 63 0 l 63 794 l 856 794 l 856 0 m 776 722 l 142 722 l 142 74 l 776 74 "},"☑":{"ha":918,"x_min":0,"x_max":0,"o":"m 844 794 l 856 794 l 856 0 l 63 0 l 63 794 l 760 794 l 876 1011 l 940 969 m 776 667 l 483 126 l 203 468 l 261 522 l 472 261 l 721 722 l 142 722 l 142 74 l 776 74 "},"♦":{"ha":696,"x_min":0,"x_max":0,"o":"m 347 49 l 0 396 l 347 744 l 696 396 "},"✓":{"ha":738,"x_min":0,"x_max":0,"o":"m 281 126 l 0 468 l 58 522 l 269 261 l 674 1011 l 738 969 "},"":{"ha":1100,"x_min":0,"x_max":0,"o":"m 133 0 l 133 579 l 22 579 l 22 671 l 133 671 l 133 722 b 186 883 133 791 151 844 b 328 940 221 921 269 940 b 469 889 385 940 432 923 l 426 822 b 344 854 402 844 375 854 b 238 722 273 854 238 810 l 238 671 l 374 671 l 374 579 l 238 579 l 238 0 m 528 0 l 528 579 l 417 579 l 417 671 l 528 671 l 528 722 b 581 883 528 791 546 844 b 722 940 617 921 664 940 b 825 918 764 940 798 933 l 799 839 b 739 854 781 849 761 854 b 632 722 668 854 632 810 l 632 671 l 768 671 l 768 579 l 632 579 l 632 0 m 944 767 b 894 787 925 767 908 773 b 874 836 881 800 874 817 b 894 886 874 856 881 872 b 944 907 908 900 925 907 b 994 886 964 907 980 900 b 1014 836 1007 872 1014 856 b 994 787 1014 817 1007 800 b 944 767 980 773 964 767 m 797 -272 b 651 -222 742 -272 693 -256 l 688 -144 b 783 -186 715 -172 747 -186 b 863 -156 817 -186 843 -176 b 892 -65 882 -136 892 -106 l 892 671 l 996 671 l 996 -65 b 944 -219 996 -132 979 -183 b 797 -272 910 -254 861 -272 "},"":{"ha":707,"x_min":0,"x_max":0,"o":"m 133 0 l 133 579 l 22 579 l 22 671 l 133 671 l 133 722 b 187 883 133 791 151 844 b 328 940 222 921 269 940 b 431 918 369 940 404 933 l 404 839 b 344 854 387 849 367 854 b 238 722 273 854 238 810 l 238 671 l 374 671 l 374 579 l 238 579 l 238 0 m 551 767 b 501 787 532 767 515 773 b 481 836 488 800 481 817 b 501 886 481 856 488 872 b 551 907 515 900 532 907 b 601 886 571 907 587 900 b 621 836 614 872 621 856 b 601 787 621 817 614 800 b 551 767 587 773 571 767 m 404 -272 b 258 -222 349 -272 300 -256 l 294 -144 b 390 -186 322 -172 354 -186 b 469 -156 424 -186 450 -176 b 499 -65 489 -136 499 -106 l 499 671 l 603 671 l 603 -65 b 551 -219 603 -132 586 -183 b 404 -272 517 -254 468 -272 "},"":{"ha":1219,"x_min":0,"x_max":0,"o":"m 400 590 b 349 455 400 536 383 491 b 217 401 316 419 271 401 b 87 456 164 401 121 419 b 36 590 53 492 36 537 b 87 726 36 644 53 689 b 217 781 121 762 164 781 b 349 726 270 781 314 763 b 400 590 383 690 400 645 m 786 174 b 735 39 786 120 769 75 b 604 -15 700 3 657 -15 b 474 39 551 -15 508 3 b 422 174 439 75 422 120 b 474 310 422 228 439 274 b 604 364 508 346 551 364 b 735 310 657 364 700 346 b 786 174 769 274 786 228 m 181 0 l 108 0 l 639 764 l 714 764 m 328 590 b 297 683 328 627 317 658 b 217 719 276 707 249 719 b 138 682 185 719 159 707 b 107 590 117 657 107 626 b 138 499 107 554 117 524 b 217 463 159 475 185 463 b 297 499 250 463 277 475 b 328 590 318 523 328 553 m 715 174 b 685 266 715 211 705 241 b 604 303 664 291 638 303 b 524 266 571 303 544 291 b 493 174 503 241 493 211 b 524 83 493 138 503 107 b 604 46 545 58 572 46 b 684 83 637 46 663 58 b 715 174 705 107 715 138 m 1183 174 b 1133 39 1183 120 1166 75 b 1001 -15 1099 3 1055 -15 b 872 40 949 -15 905 3 b 821 174 838 77 821 122 b 872 310 821 228 838 274 b 1001 364 905 346 949 364 b 1133 310 1055 364 1099 346 b 1183 174 1166 274 1183 228 m 1113 174 b 1082 266 1113 211 1102 241 b 1001 303 1062 291 1035 303 b 922 266 969 303 943 291 b 892 174 902 241 892 211 b 922 83 892 138 902 107 b 1001 46 943 58 969 46 b 1081 83 1034 46 1060 58 b 1113 174 1102 107 1113 138 "},"":{"ha":850,"x_min":0,"x_max":0,"o":"m 425 -17 b 218 60 344 -17 275 9 l 181 0 l 90 0 l 165 119 b 71 463 102 207 71 322 b 91 633 71 522 78 579 b 152 785 104 688 125 739 b 263 898 179 832 216 870 b 425 940 310 926 364 940 b 629 865 504 940 572 915 l 668 926 l 758 926 l 683 806 b 779 463 747 717 779 602 b 759 292 779 403 772 346 b 698 139 746 237 725 186 b 586 26 671 92 633 54 b 425 -17 539 -3 485 -17 m 425 86 b 564 144 481 86 527 105 b 640 282 601 182 626 228 b 661 463 654 336 661 396 b 618 700 661 557 647 636 l 276 153 b 425 86 315 108 365 86 m 189 463 b 231 225 189 369 203 290 l 572 772 b 425 838 533 816 484 838 b 286 781 369 838 323 819 b 210 643 249 743 224 697 b 189 463 196 589 189 529 "},"":{"ha":831,"x_min":0,"x_max":0,"o":"m 415 -17 b 253 26 354 -17 300 -3 b 142 139 207 54 170 92 b 81 292 115 186 95 237 b 61 463 68 346 61 403 b 81 633 61 522 68 579 b 142 785 95 688 115 739 b 253 898 170 832 207 870 b 415 940 300 926 354 940 b 576 898 475 940 529 926 b 688 785 624 870 661 832 b 749 633 716 739 736 688 b 769 463 763 579 769 522 b 749 292 769 403 763 346 b 688 139 736 237 716 186 b 576 26 661 92 624 54 b 415 -17 529 -3 475 -17 m 415 86 b 554 144 471 86 517 105 b 631 282 591 182 617 228 b 651 463 644 336 651 396 b 631 643 651 529 644 589 b 554 781 617 697 591 743 b 415 838 517 819 471 838 b 276 781 360 838 313 819 b 200 643 239 743 214 697 b 179 463 186 589 179 529 b 200 282 179 396 186 336 b 276 144 214 228 239 182 b 415 86 313 105 360 86 "},"":{"ha":831,"x_min":0,"x_max":0,"o":"m 96 0 l 96 93 b 496 436 286 241 419 356 b 611 668 573 517 611 594 b 553 794 611 724 592 766 b 417 838 515 823 469 838 b 165 721 310 838 226 799 l 94 794 b 233 902 130 841 176 877 b 417 940 290 928 351 940 b 635 869 501 940 574 917 b 728 668 697 822 728 755 b 617 410 728 582 691 496 b 278 103 543 325 430 222 l 732 103 l 732 0 "},"":{"ha":831,"x_min":0,"x_max":0,"o":"m 414 -17 b 217 26 340 -17 274 -2 b 85 136 159 55 115 92 l 153 208 b 263 119 181 171 217 142 b 411 86 308 97 357 86 b 569 133 478 86 531 102 b 628 260 608 165 628 207 b 566 383 628 315 607 356 b 397 424 525 410 469 424 b 301 422 343 424 311 423 l 301 528 b 397 526 312 527 344 526 b 552 565 460 526 512 539 b 613 679 592 590 613 628 b 553 795 613 728 593 767 b 406 838 514 823 465 838 b 161 725 312 838 231 800 l 97 797 b 415 940 175 893 281 940 b 640 874 507 940 582 918 b 728 694 699 830 728 770 b 667 547 728 633 707 584 b 529 479 626 510 580 488 b 674 411 580 474 628 451 b 743 250 720 371 743 318 b 653 58 743 171 713 107 b 414 -17 594 8 514 -17 "},"":{"ha":831,"x_min":0,"x_max":0,"o":"m 511 0 l 511 235 l 71 235 l 71 331 l 468 926 l 626 926 l 626 336 l 757 336 l 757 235 l 626 235 l 626 0 m 511 819 l 186 336 l 511 336 "},"":{"ha":831,"x_min":0,"x_max":0,"o":"m 424 -17 b 97 132 281 -17 172 33 l 168 210 b 424 86 232 127 317 86 b 578 143 487 86 538 105 b 638 285 618 181 638 228 b 578 430 638 345 618 393 b 425 485 539 466 488 485 b 211 399 343 485 271 456 l 126 428 l 126 926 l 693 926 l 693 824 l 242 824 l 242 501 b 458 585 299 557 371 585 b 668 506 541 585 611 558 b 754 289 725 453 754 381 b 660 67 754 197 723 123 b 424 -17 598 11 519 -17 "},"":{"ha":831,"x_min":0,"x_max":0,"o":"m 439 -17 b 274 22 376 -17 321 -4 b 162 129 226 48 189 84 b 101 281 134 175 114 225 b 81 463 87 336 81 397 b 177 803 81 598 113 711 b 458 940 241 894 335 940 b 714 829 566 940 651 903 l 656 743 b 458 838 602 806 536 838 b 311 783 401 838 352 819 b 224 649 270 747 241 703 b 197 474 206 596 197 538 l 197 438 b 305 538 220 475 256 508 b 460 582 353 567 405 582 b 677 505 548 582 620 556 b 763 286 734 453 763 381 b 674 72 763 203 733 131 b 439 -17 614 13 536 -17 m 433 86 b 590 147 500 86 552 106 b 646 282 627 188 646 233 b 586 431 646 347 626 396 b 433 482 546 465 495 482 b 303 444 388 482 344 469 b 201 344 261 418 227 385 b 267 164 207 276 229 216 b 433 86 305 112 360 86 "},"":{"ha":831,"x_min":0,"x_max":0,"o":"m 225 0 l 599 824 l 100 824 l 100 926 l 732 926 l 732 847 l 353 0 "},"":{"ha":831,"x_min":0,"x_max":0,"o":"m 415 -17 b 178 51 321 -17 242 6 b 83 235 115 97 83 158 b 147 386 83 293 104 344 b 304 478 189 429 241 459 b 157 559 245 494 196 522 b 99 700 118 597 99 644 b 193 878 99 778 130 837 b 415 940 256 920 330 940 b 638 878 500 940 575 920 b 733 700 702 837 733 778 b 674 559 733 644 714 597 b 526 478 635 522 586 494 b 684 386 589 459 642 429 b 747 235 726 344 747 293 b 652 52 747 159 716 98 b 415 -17 589 6 510 -17 m 415 525 b 472 539 434 528 453 532 b 536 566 491 545 512 554 b 594 615 560 578 580 594 b 617 685 609 635 617 659 b 559 796 617 731 597 768 b 415 838 521 824 473 838 b 272 797 358 838 310 824 b 215 685 234 769 215 732 b 238 615 215 659 223 635 b 296 566 252 594 272 578 b 360 539 320 554 341 545 b 415 525 378 532 397 528 m 415 86 b 567 131 475 86 525 101 b 631 247 609 160 631 199 b 587 345 631 284 616 317 b 498 405 558 373 528 393 b 415 426 468 416 440 424 b 333 405 390 424 363 416 b 244 345 303 393 273 373 b 200 247 215 317 200 284 b 263 131 200 199 221 160 b 415 86 304 101 355 86 "},"":{"ha":831,"x_min":0,"x_max":0,"o":"m 375 -15 b 118 96 269 -15 184 22 l 176 182 b 375 88 230 119 296 88 b 525 143 434 88 484 106 b 611 278 566 180 594 225 b 636 451 628 331 636 388 b 635 488 636 467 636 479 b 528 388 612 450 576 417 b 374 343 480 358 428 343 b 156 420 286 343 213 369 b 69 639 98 472 69 544 b 158 853 69 722 99 794 b 394 942 218 912 296 942 b 558 903 456 942 511 929 b 671 796 606 877 643 841 b 733 644 699 750 719 700 b 753 463 746 589 753 528 b 714 227 753 375 740 297 b 588 53 688 157 646 99 b 375 -15 529 8 458 -15 m 400 443 b 531 481 445 443 489 456 b 632 582 573 507 607 540 b 613 671 629 613 623 642 b 572 753 603 700 590 727 b 501 815 555 779 531 800 b 399 839 471 831 437 839 b 243 778 333 839 281 819 b 186 643 205 738 186 693 b 246 494 186 578 206 529 b 400 443 286 460 337 443 "},"":{"ha":822,"x_min":0,"x_max":0,"o":"m 400 590 b 349 455 400 536 383 491 b 217 401 316 419 271 401 b 87 456 164 401 121 419 b 36 590 53 492 36 537 b 87 726 36 644 53 689 b 217 781 121 762 164 781 b 349 726 270 781 314 763 b 400 590 383 690 400 645 m 786 174 b 735 39 786 120 769 75 b 604 -15 700 3 657 -15 b 474 39 551 -15 508 3 b 422 174 439 75 422 120 b 474 310 422 228 439 274 b 604 364 508 346 551 364 b 735 310 657 364 700 346 b 786 174 769 274 786 228 m 181 0 l 108 0 l 639 764 l 714 764 m 328 590 b 297 683 328 627 317 658 b 217 719 276 707 249 719 b 138 682 185 719 159 707 b 107 590 117 657 107 626 b 138 499 107 554 117 524 b 217 463 159 475 185 463 b 297 499 250 463 277 475 b 328 590 318 523 328 553 m 715 174 b 685 266 715 211 705 241 b 604 303 664 291 638 303 b 524 266 571 303 544 291 b 493 174 503 241 493 211 b 524 82 493 137 503 106 b 604 46 544 58 571 46 b 684 83 637 46 663 58 b 715 174 705 107 715 138 "},"":{"ha":831,"x_min":0,"x_max":0,"o":"m 769 382 b 734 190 769 313 758 249 b 616 43 710 132 671 83 b 415 -17 561 3 494 -17 b 215 43 337 -17 270 3 b 97 190 159 83 120 132 b 61 382 73 249 61 313 b 82 529 61 434 68 483 b 144 656 96 575 117 618 b 256 747 172 694 209 724 b 415 781 303 769 356 781 b 574 747 475 781 528 769 b 686 656 621 724 658 694 b 749 529 714 618 735 575 b 769 382 763 483 769 434 m 651 382 b 592 592 651 464 632 534 b 415 678 553 649 494 678 b 239 592 338 678 279 649 b 179 382 199 534 179 464 b 239 172 179 300 199 230 b 415 86 279 115 338 86 b 592 172 493 86 552 115 b 651 382 631 230 651 300 "},"":{"ha":831,"x_min":0,"x_max":0,"o":"m 435 0 l 435 613 l 286 454 l 217 525 l 449 764 l 550 764 l 550 0 "},"":{"ha":831,"x_min":0,"x_max":0,"o":"m 110 0 l 110 93 b 483 303 276 162 401 232 b 607 515 566 375 607 446 b 552 632 607 563 589 601 b 418 678 516 663 471 678 b 160 561 306 678 220 639 l 89 635 b 231 742 124 681 172 717 b 421 781 291 768 354 781 b 638 712 509 781 581 758 b 724 531 695 666 724 606 b 611 294 724 449 686 370 b 322 103 536 217 440 154 l 708 103 l 708 0 "},"":{"ha":831,"x_min":0,"x_max":0,"o":"m 414 -186 b 217 -143 340 -186 274 -172 b 85 -33 159 -114 115 -78 l 153 39 b 263 -50 181 2 217 -28 b 411 -83 308 -72 357 -83 b 569 -36 478 -83 531 -68 b 628 90 608 -5 628 38 b 566 214 628 146 607 187 b 397 254 525 241 469 254 b 301 253 343 254 311 254 l 301 358 b 397 357 312 357 344 357 b 552 395 460 357 512 370 b 613 510 592 421 613 459 b 553 626 613 559 593 597 b 406 668 514 654 465 668 b 161 556 312 668 231 631 l 97 628 b 415 771 175 723 281 771 b 640 705 507 771 582 749 b 728 525 699 661 728 601 b 667 378 728 464 707 415 b 529 310 626 341 580 318 b 674 242 580 304 628 281 b 743 81 720 202 743 148 b 653 -112 743 2 713 -62 b 414 -186 594 -161 514 -186 "},"":{"ha":831,"x_min":0,"x_max":0,"o":"m 626 76 l 626 -162 l 511 -162 l 511 76 l 71 76 l 71 172 l 468 764 l 626 764 l 626 178 l 757 178 l 757 76 m 511 657 l 186 178 l 511 178 "},"":{"ha":831,"x_min":0,"x_max":0,"o":"m 424 -179 b 97 -31 281 -179 172 -130 l 168 47 b 424 -76 232 -35 317 -76 b 578 -19 487 -76 538 -57 b 638 122 618 19 638 66 b 578 267 638 182 618 231 b 425 322 539 304 488 322 b 211 236 343 322 271 294 l 126 265 l 126 764 l 693 764 l 693 661 l 242 661 l 242 339 b 458 422 299 394 371 422 b 668 343 541 422 611 396 b 754 126 725 290 754 218 b 660 -95 754 35 723 -39 b 424 -179 598 -151 519 -179 "},"":{"ha":831,"x_min":0,"x_max":0,"o":"m 439 -17 b 274 22 376 -17 321 -4 b 162 129 226 48 189 84 b 101 281 134 175 114 225 b 81 463 87 336 81 397 b 177 803 81 598 113 711 b 458 940 241 894 335 940 b 714 829 566 940 651 903 l 656 743 b 458 838 602 806 536 838 b 311 783 401 838 352 819 b 224 649 270 747 241 703 b 197 474 206 596 197 538 l 197 438 b 305 538 220 475 256 508 b 460 582 353 567 405 582 b 677 505 548 582 620 556 b 763 286 734 453 763 381 b 674 72 763 203 733 131 b 439 -17 614 13 536 -17 m 433 86 b 590 147 500 86 552 106 b 646 282 627 188 646 233 b 586 431 646 347 626 396 b 433 482 546 465 495 482 b 303 444 388 482 344 469 b 201 344 261 418 227 385 b 267 164 207 276 229 216 b 433 86 305 112 360 86 "},"":{"ha":831,"x_min":0,"x_max":0,"o":"m 225 -162 l 599 661 l 100 661 l 100 764 l 732 764 l 732 685 l 353 -162 "},"":{"ha":831,"x_min":0,"x_max":0,"o":"m 415 -17 b 178 51 321 -17 242 6 b 83 235 115 97 83 158 b 147 386 83 293 104 344 b 304 478 189 429 241 459 b 157 559 245 494 196 522 b 99 700 118 597 99 644 b 193 878 99 778 130 837 b 415 940 256 920 330 940 b 638 878 500 940 575 920 b 733 700 702 837 733 778 b 674 559 733 644 714 597 b 526 478 635 522 586 494 b 684 386 589 459 642 429 b 747 235 726 344 747 293 b 652 52 747 159 716 98 b 415 -17 589 6 510 -17 m 415 525 b 472 539 434 528 453 532 b 536 566 491 545 512 554 b 594 615 560 578 580 594 b 617 685 609 635 617 659 b 559 796 617 731 597 768 b 415 838 521 824 473 838 b 272 797 358 838 310 824 b 215 685 234 769 215 732 b 238 615 215 659 223 635 b 296 566 252 594 272 578 b 360 539 320 554 341 545 b 415 525 378 532 397 528 m 415 86 b 567 131 475 86 525 101 b 631 247 609 160 631 199 b 587 345 631 284 616 317 b 498 405 558 373 528 393 b 415 426 468 416 440 424 b 333 405 390 424 363 416 b 244 345 303 393 273 373 b 200 247 215 317 200 284 b 263 131 200 199 221 160 b 415 86 304 101 355 86 "},"":{"ha":831,"x_min":0,"x_max":0,"o":"m 375 -176 b 118 -65 269 -176 184 -139 l 176 21 b 375 -74 230 -42 296 -74 b 525 -18 434 -74 484 -55 b 611 117 566 19 594 64 b 636 290 628 169 636 227 b 635 326 636 306 636 318 b 528 226 612 289 576 256 b 374 182 480 197 428 182 b 156 259 286 182 213 208 b 69 478 98 310 69 383 b 158 692 69 561 99 632 b 394 781 218 751 296 781 b 558 742 456 781 511 768 b 671 635 606 716 643 680 b 733 483 699 589 719 539 b 753 301 746 428 753 367 b 714 66 753 214 740 136 b 588 -108 688 -4 646 -62 b 375 -176 529 -153 458 -176 m 400 282 b 531 320 445 282 489 295 b 632 421 573 346 607 379 b 613 510 629 451 623 481 b 572 592 603 538 590 566 b 501 654 555 618 531 638 b 399 678 471 670 437 678 b 243 617 333 678 281 658 b 186 482 205 577 186 532 b 246 333 186 417 206 368 b 400 282 286 299 337 282 "},"":{"ha":808,"x_min":0,"x_max":0,"o":"m 364 -3 b 285 24 340 2 313 11 l 251 -74 l 192 -74 l 235 53 b 110 191 182 88 141 134 b 65 383 80 248 65 312 b 182 669 65 500 104 595 b 474 781 260 744 357 781 l 479 781 l 497 832 l 557 832 l 538 775 b 618 753 563 771 589 764 l 646 832 l 706 832 l 669 726 b 776 624 709 701 745 667 l 689 575 b 636 629 675 595 657 613 l 451 79 l 474 79 b 598 109 518 79 559 89 b 689 189 636 129 667 156 l 778 140 b 474 -17 701 36 600 -17 b 419 -14 462 -17 444 -16 l 400 -74 l 340 -74 m 176 383 b 269 157 176 290 207 214 l 447 683 b 253 590 369 677 304 646 b 176 383 202 535 176 466 m 317 121 b 394 89 342 106 368 95 l 588 660 b 506 682 560 672 532 679 l 317 121 "},"":{"ha":847,"x_min":0,"x_max":0,"o":"m 218 432 b 215 383 216 410 215 394 b 218 331 215 359 216 342 l 569 331 l 569 264 l 238 264 b 343 129 259 207 294 163 b 513 79 392 96 449 79 b 637 109 557 79 598 89 b 728 189 675 129 706 156 l 817 140 b 513 -17 740 36 638 -17 b 263 60 417 -17 334 9 b 119 264 191 111 144 179 l 43 264 l 43 331 l 107 331 b 104 383 105 342 104 359 b 107 432 104 394 105 410 l 43 432 l 43 499 l 119 499 b 263 703 144 584 191 652 b 513 781 334 755 417 781 b 815 624 641 781 742 728 l 728 575 b 635 655 705 608 674 635 b 513 685 597 675 556 685 b 342 634 449 685 392 668 b 236 499 293 600 257 555 l 569 499 l 569 432 "},"":{"ha":510,"x_min":0,"x_max":0,"o":"m 32 -165 l 135 299 l 65 299 l 65 378 l 151 378 l 193 565 b 404 779 225 708 295 779 b 524 735 453 779 493 764 l 478 651 b 419 676 465 668 445 676 b 308 551 365 676 328 635 l 269 378 l 417 378 l 417 299 l 251 299 l 147 -165 "},"":{"ha":689,"x_min":0,"x_max":0,"o":"m 640 482 l 518 482 l 453 286 l 576 286 l 556 221 l 431 221 l 357 0 l 278 0 l 351 221 l 226 221 l 153 0 l 74 0 l 147 221 l 31 221 l 51 286 l 171 286 l 236 482 l 115 482 l 135 547 l 257 547 l 331 764 l 410 764 l 336 547 l 460 547 l 535 764 l 614 764 l 539 547 l 660 547 m 315 482 l 249 286 l 374 286 l 438 482 "},"":{"ha":590,"x_min":0,"x_max":0,"o":"m 19 378 l 118 378 b 51 551 74 440 51 498 b 126 714 51 616 76 670 b 307 779 175 757 236 779 b 446 746 358 779 404 768 b 539 654 488 724 519 693 l 457 610 b 315 699 429 669 382 699 b 204 658 272 699 235 685 b 158 551 174 630 158 595 b 172 485 158 530 163 508 b 196 433 180 462 188 444 b 233 378 203 422 216 404 l 421 378 l 421 311 l 272 311 b 289 240 283 286 289 263 b 215 108 289 184 264 140 b 246 113 224 111 234 113 b 340 93 272 113 303 106 b 424 74 376 80 404 74 b 532 117 474 74 510 88 l 579 39 b 418 -15 541 3 488 -15 b 314 8 384 -15 349 -7 b 217 32 279 24 246 32 b 86 -11 187 32 144 18 l 49 64 b 196 221 147 106 196 159 b 165 311 196 248 186 278 l 19 311 "},"":{"ha":760,"x_min":0,"x_max":0,"o":"m 328 0 l 328 157 l 33 157 l 33 224 l 328 224 l 328 322 l 33 322 l 33 388 l 282 388 l 10 764 l 136 764 l 383 417 l 625 764 l 750 764 l 482 388 l 725 388 l 725 322 l 436 322 l 436 224 l 725 224 l 725 157 l 436 157 l 436 0 "},"":{"ha":808,"x_min":0,"x_max":0,"o":"m 429 -14 b 167 110 323 -5 235 37 b 65 383 99 183 65 274 b 167 654 65 492 99 582 b 429 778 235 726 323 768 l 429 860 l 511 860 l 511 778 b 776 624 621 769 710 717 l 689 575 b 511 682 646 635 587 671 l 511 82 b 689 189 590 92 649 128 l 778 140 b 511 -14 708 47 619 -5 l 511 -128 l 429 -128 m 176 383 b 247 181 176 304 200 236 b 429 82 294 125 355 92 l 429 682 b 247 584 355 672 294 639 b 176 383 200 529 176 462 "}}}
